<svg xmlns="http://www.w3.org/2000/svg" width="295" height="222.424" viewBox="0 0 295 222.424">
  <g id="Grupo_1108186" data-name="Grupo 1108186" transform="translate(-774.051 -2913.528)">
    <path id="Trazado_897901" data-name="Trazado 897901" d="M143,111.762a61.905,61.905,0,0,1-3.195,11.95l12.973,11.755a78.216,78.216,0,0,1-6.282,10.964l-16.657-5.37a62.328,62.328,0,0,1-8.78,8.776l5.37,16.657a78.631,78.631,0,0,1-10.964,6.282L103.707,159.8A61.828,61.828,0,0,1,91.758,163l-3.7,17.137c-2.092.166-4.193.319-6.331.319s-4.239-.153-6.335-.319L71.691,163a61.908,61.908,0,0,1-11.95-3.195L47.986,172.775a78.219,78.219,0,0,1-10.964-6.282l5.37-16.657a62.519,62.519,0,0,1-8.776-8.776l-16.657,5.37a78.629,78.629,0,0,1-6.282-10.964l12.973-11.755a61.827,61.827,0,0,1-3.195-11.95l-17.137-3.7c-.166-2.1-.319-4.2-.319-6.335s.153-4.239.319-6.335l17.137-3.7a61.906,61.906,0,0,1,3.195-11.95L10.678,67.986a78.216,78.216,0,0,1,6.282-10.964l16.657,5.37a62.327,62.327,0,0,1,8.78-8.776l-5.37-16.657A78.631,78.631,0,0,1,47.99,30.678L59.745,43.651a61.827,61.827,0,0,1,11.95-3.195l3.7-17.137c2.092-.166,4.193-.319,6.331-.319s4.239.153,6.335.319l3.7,17.137a61.908,61.908,0,0,1,11.95,3.195l11.755-12.973a78.217,78.217,0,0,1,10.964,6.282l-5.37,16.657a62.326,62.326,0,0,1,8.776,8.78l16.657-5.37a78.63,78.63,0,0,1,6.282,10.964L139.8,79.745A61.825,61.825,0,0,1,143,91.695l17.137,3.7c.166,2.092.319,4.193.319,6.331s-.153,4.239-.319,6.335Zm-61.27-51.47a41.435,41.435,0,1,0,41.435,41.435A41.434,41.434,0,0,0,81.726,60.291Z" transform="translate(775.195 2918.153)" fill="#454a6d"/>
    <path id="Trazado_897903" data-name="Trazado 897903" d="M108.214,73.044a28.838,28.838,0,0,1-2.689,6.514l4.123,8.676a37.582,37.582,0,0,1-6.414,6.414l-8.676-4.123a28.761,28.761,0,0,1-6.514,2.689L84.82,102.28a34.054,34.054,0,0,1-9.058,0l-3.224-9.066a28.838,28.838,0,0,1-6.514-2.689l-8.676,4.123a37.583,37.583,0,0,1-6.414-6.414l4.123-8.676a28.806,28.806,0,0,1-2.689-6.509L43.3,69.824a34.085,34.085,0,0,1,0-9.062l9.066-3.224a28.728,28.728,0,0,1,2.689-6.509l-4.123-8.676a37.582,37.582,0,0,1,6.414-6.414l8.676,4.123a28.76,28.76,0,0,1,6.514-2.689l3.224-9.066A36.3,36.3,0,0,1,80.291,28a37.109,37.109,0,0,1,4.529.3l3.224,9.066a28.839,28.839,0,0,1,6.514,2.689l8.676-4.123a37.582,37.582,0,0,1,6.414,6.414l-4.123,8.676a28.76,28.76,0,0,1,2.689,6.514l9.066,3.224a34.054,34.054,0,0,1,0,9.058ZM80.291,52.861a12.43,12.43,0,1,0,12.43,12.43A12.43,12.43,0,0,0,80.291,52.861Z" transform="translate(900.934 2933.871)" fill="#4ac3ed"/>
    <path id="Trazado_897904" data-name="Trazado 897904" d="M2.331,111.484a4.14,4.14,0,0,0,3.257,3.721l14.44,3.116a65.461,65.461,0,0,0,1.939,7.259l-10.931,9.9a4.142,4.142,0,0,0-.957,4.852,82.854,82.854,0,0,0,6.613,11.54,4.143,4.143,0,0,0,4.678,1.587L35.4,148.942a66.39,66.39,0,0,0,5.345,5.345l-4.521,14.034A4.143,4.143,0,0,0,37.816,173a82.854,82.854,0,0,0,11.54,6.613,4.147,4.147,0,0,0,4.852-.957l9.9-10.93a66.7,66.7,0,0,0,7.264,1.939L74.49,184.1a4.149,4.149,0,0,0,3.717,3.257c2.2.174,4.413.331,6.663.331s4.458-.157,6.663-.331a4.14,4.14,0,0,0,3.721-3.257l3.116-14.44a65.531,65.531,0,0,0,7.264-1.939l9.9,10.93a4.138,4.138,0,0,0,4.852.957A83.277,83.277,0,0,0,131.927,173a4.143,4.143,0,0,0,1.587-4.678l-4.521-14.034a67.026,67.026,0,0,0,5.345-5.341l14.034,4.521a4.137,4.137,0,0,0,4.678-1.587,82.853,82.853,0,0,0,6.613-11.54,4.142,4.142,0,0,0-.957-4.852l-10.931-9.9a66.7,66.7,0,0,0,1.939-7.264l14.44-3.116a4.149,4.149,0,0,0,3.257-3.717c.17-2.208.327-4.417.327-6.667s-.157-4.458-.331-6.663a4.14,4.14,0,0,0-3.257-3.721l-14.44-3.116a65.53,65.53,0,0,0-1.939-7.264l10.931-9.9a4.142,4.142,0,0,0,.957-4.852,83.272,83.272,0,0,0-6.613-11.54,4.137,4.137,0,0,0-4.678-1.587L134.335,60.7a66.387,66.387,0,0,0-5.345-5.345l4.521-14.034a4.143,4.143,0,0,0-1.587-4.678,82.854,82.854,0,0,0-11.54-6.613,4.135,4.135,0,0,0-4.852.957l-9.9,10.931a66.7,66.7,0,0,0-7.264-1.939l-3.116-14.44a4.149,4.149,0,0,0-3.717-3.257,84.213,84.213,0,0,0-13.33,0,4.14,4.14,0,0,0-3.721,3.257l-3.116,14.44a65.461,65.461,0,0,0-7.259,1.939L54.2,30.985a4.141,4.141,0,0,0-4.852-.957,82.852,82.852,0,0,0-11.54,6.613,4.143,4.143,0,0,0-1.587,4.678l4.521,14.034A66.387,66.387,0,0,0,35.4,60.7l-14.03-4.521a4.133,4.133,0,0,0-4.678,1.587A82.853,82.853,0,0,0,10.08,69.3a4.142,4.142,0,0,0,.957,4.852l10.931,9.9a66.706,66.706,0,0,0-1.939,7.264L5.588,94.438a4.149,4.149,0,0,0-3.257,3.717C2.157,100.363,2,102.572,2,104.822s.157,4.458.331,6.663Zm8.043-9.6,14.1-3.045a4.145,4.145,0,0,0,3.215-3.385A57.764,57.764,0,0,1,30.665,84.3a4.139,4.139,0,0,0-1.094-4.537L18.926,70.12c.928-1.778,1.9-3.481,2.9-5.092l13.657,4.4a4.159,4.159,0,0,0,4.479-1.318,58.259,58.259,0,0,1,8.2-8.2,4.139,4.139,0,0,0,1.318-4.479l-4.4-13.657q2.418-1.51,5.092-2.9l9.646,10.649a4.149,4.149,0,0,0,4.541,1.094A57.485,57.485,0,0,1,75.5,47.642a4.145,4.145,0,0,0,3.385-3.215l3.041-14.1a54.573,54.573,0,0,1,5.88,0l3.045,14.1a4.145,4.145,0,0,0,3.385,3.215,57.764,57.764,0,0,1,11.15,2.979,4.137,4.137,0,0,0,4.537-1.094l9.646-10.645c1.778.928,3.481,1.9,5.092,2.9l-4.4,13.657a4.148,4.148,0,0,0,1.318,4.479,58.258,58.258,0,0,1,8.2,8.2,4.129,4.129,0,0,0,4.479,1.318l13.657-4.4q1.51,2.418,2.9,5.088l-10.649,9.646a4.144,4.144,0,0,0-1.094,4.541,57.484,57.484,0,0,1,2.979,11.146,4.145,4.145,0,0,0,3.215,3.385l14.1,3.041c.054.974.091,1.956.091,2.942s-.033,1.968-.087,2.938l-14.1,3.045a4.145,4.145,0,0,0-3.215,3.385,57.764,57.764,0,0,1-2.979,11.15,4.139,4.139,0,0,0,1.094,4.537l10.645,9.646c-.928,1.778-1.9,3.481-2.9,5.092l-13.657-4.4a4.125,4.125,0,0,0-4.479,1.318,58.479,58.479,0,0,1-8.2,8.2,4.141,4.141,0,0,0-1.318,4.475l4.4,13.657q-2.418,1.51-5.088,2.9l-9.646-10.649a4.158,4.158,0,0,0-4.541-1.094A57.485,57.485,0,0,1,94.242,162a4.145,4.145,0,0,0-3.385,3.215l-3.041,14.1a54.566,54.566,0,0,1-5.88,0l-3.045-14.1A4.145,4.145,0,0,0,75.505,162a57.763,57.763,0,0,1-11.15-2.979,4.133,4.133,0,0,0-4.537,1.094l-9.646,10.645c-1.778-.928-3.481-1.9-5.092-2.9l4.4-13.657a4.148,4.148,0,0,0-1.318-4.479,58.26,58.26,0,0,1-8.2-8.2,4.138,4.138,0,0,0-4.479-1.318l-13.657,4.4q-1.51-2.418-2.9-5.092l10.649-9.646a4.144,4.144,0,0,0,1.094-4.541,57.484,57.484,0,0,1-2.979-11.146,4.145,4.145,0,0,0-3.215-3.385l-14.1-3.033c-.05-.974-.087-1.956-.087-2.942S10.32,102.854,10.374,101.884Z" transform="translate(772.051 2915.058)" fill="#0d1030"/>
    <path id="Trazado_897906" data-name="Trazado 897906" d="M121.812,60l-7.118-2.528a33.579,33.579,0,0,0-1.4-3.385l3.236-6.816a4.126,4.126,0,0,0-.481-4.326,41.7,41.7,0,0,0-7.123-7.127,4.145,4.145,0,0,0-4.33-.481L97.78,38.57A33.1,33.1,0,0,0,94.4,37.178L91.867,30.06a4.153,4.153,0,0,0-3.406-2.726,38.182,38.182,0,0,0-10.056,0A4.139,4.139,0,0,0,75,30.06l-2.528,7.119a33.582,33.582,0,0,0-3.385,1.4L62.27,35.338a4.146,4.146,0,0,0-4.326.481,41.7,41.7,0,0,0-7.127,7.123,4.15,4.15,0,0,0-.481,4.33l3.236,6.82a33.092,33.092,0,0,0-1.392,3.381L45.062,60a4.153,4.153,0,0,0-2.726,3.406A40.6,40.6,0,0,0,42,68.432a41.533,41.533,0,0,0,.331,5.026,4.139,4.139,0,0,0,2.726,3.406l7.119,2.528a33.581,33.581,0,0,0,1.4,3.385l-3.236,6.816a4.126,4.126,0,0,0,.481,4.326,41.7,41.7,0,0,0,7.123,7.127,4.151,4.151,0,0,0,4.33.481l6.82-3.236a33.093,33.093,0,0,0,3.381,1.392L75,106.8a4.153,4.153,0,0,0,3.406,2.726,40.02,40.02,0,0,0,5.026.34,41.53,41.53,0,0,0,5.026-.331,4.139,4.139,0,0,0,3.406-2.726l2.528-7.119a33.58,33.58,0,0,0,3.385-1.4l6.816,3.236a4.117,4.117,0,0,0,4.326-.481,41.7,41.7,0,0,0,7.127-7.123,4.15,4.15,0,0,0,.481-4.33l-3.236-6.82a33.086,33.086,0,0,0,1.392-3.381l7.119-2.532a4.153,4.153,0,0,0,2.726-3.406,40.019,40.019,0,0,0,.34-5.026,41.531,41.531,0,0,0-.331-5.026A4.145,4.145,0,0,0,121.812,60Zm-5.271,9.949-6.567,2.333a4.144,4.144,0,0,0-2.606,2.8,24.655,24.655,0,0,1-2.3,5.581,4.153,4.153,0,0,0-.137,3.816l2.975,6.269q-1.032,1.131-2.159,2.159l-6.269-2.975a4.154,4.154,0,0,0-3.816.137,24.669,24.669,0,0,1-5.577,2.3,4.158,4.158,0,0,0-2.8,2.606l-2.333,6.567a28.325,28.325,0,0,1-3.025,0l-2.333-6.567a4.144,4.144,0,0,0-2.8-2.606,24.656,24.656,0,0,1-5.581-2.3,4.177,4.177,0,0,0-3.816-.137L61.13,92.9Q60,91.868,58.972,90.741l2.975-6.269a4.141,4.141,0,0,0-.137-3.816,24.67,24.67,0,0,1-2.3-5.577,4.158,4.158,0,0,0-2.606-2.8l-6.567-2.333c-.033-.5-.05-1-.05-1.512s.017-1.015.041-1.512L56.9,64.583a4.129,4.129,0,0,0,2.6-2.8,24.779,24.779,0,0,1,2.3-5.581,4.153,4.153,0,0,0,.137-3.816L58.963,46.12Q60,44.989,61.122,43.961l6.269,2.975a4.129,4.129,0,0,0,3.816-.137,24.669,24.669,0,0,1,5.577-2.3,4.158,4.158,0,0,0,2.8-2.606l2.333-6.567a28.329,28.329,0,0,1,3.025,0l2.333,6.567a4.144,4.144,0,0,0,2.8,2.606,24.656,24.656,0,0,1,5.581,2.3,4.129,4.129,0,0,0,3.816.137l6.269-2.975q1.131,1.032,2.159,2.159l-2.975,6.269a4.141,4.141,0,0,0,.137,3.816,24.669,24.669,0,0,1,2.3,5.577,4.158,4.158,0,0,0,2.606,2.8l6.567,2.333c.033.506.05,1.007.05,1.517s-.017,1.011-.041,1.512Z" transform="translate(897.79 2930.73)" fill="#0d1030"/>
    <path id="Trazado_897907" data-name="Trazado 897907" d="M56.578,122.157A45.578,45.578,0,1,0,11,76.578,45.632,45.632,0,0,0,56.578,122.157Zm0-82.87A37.291,37.291,0,1,1,19.287,76.578,37.337,37.337,0,0,1,56.578,39.287Z" transform="translate(800.342 2943.301)" fill="#0d1030"/>
    <path id="Trazado_897908" data-name="Trazado 897908" d="M105.519,18.6l-6.364-5.308a99.241,99.241,0,0,1-76.414,35.8c-2.109,0-4.214-.12-6.319-.253l5.1-5.1-5.859-5.859L3.237,50.307a4.139,4.139,0,0,0,0,5.859L15.667,68.6l5.859-5.859L15.9,57.107c2.279.145,4.562.273,6.845.273A107.511,107.511,0,0,0,105.519,18.6Z" transform="translate(963.532 3006.586)" fill="#0d1030"/>
    <path id="Trazado_897910" data-name="Trazado 897910" d="M64.574,33A16.574,16.574,0,1,0,81.148,49.574,16.591,16.591,0,0,0,64.574,33Zm0,24.861a8.287,8.287,0,1,1,8.287-8.287A8.3,8.3,0,0,1,64.574,57.861Z" transform="translate(916.651 2949.587)" fill="#0d1030"/>
    <path id="Trazado_897911" data-name="Trazado 897911" d="M29.738,4.227,9.02.083A4.134,4.134,0,0,0,4.143,3.332L0,24.049l8.125,1.628,2.233-11.154A62.172,62.172,0,0,1,16.5,41.435,61.487,61.487,0,0,1,2.863,80.28l6.468,5.183A70.64,70.64,0,0,0,24.782,41.435a70.528,70.528,0,0,0-7.276-31.2l10.607,2.121Z" transform="matrix(0.819, 0.574, -0.574, 0.819, 941.194, 3048.887)" fill="#0d1030"/>
    <path id="Trazado_899638" data-name="Trazado 899638" d="M6.645-3.56H15.82V0H.87V-2.439L10.02-15.623H.817V-19.2H15.728v2.373ZM31.034,0H17.64V-2.9l6.17-6.486q2.281-2.6,2.281-4.126A2.87,2.87,0,0,0,25.55-15.4a1.93,1.93,0,0,0-1.569-.646,1.954,1.954,0,0,0-1.648.864,3.549,3.549,0,0,0-.633,2.156H17.244a6.3,6.3,0,0,1,.883-3.263,6.194,6.194,0,0,1,2.452-2.34,7.284,7.284,0,0,1,3.507-.844,7.166,7.166,0,0,1,4.792,1.437,5.13,5.13,0,0,1,1.681,4.126,5.992,5.992,0,0,1-.422,2.208,9.684,9.684,0,0,1-1.312,2.254,33.044,33.044,0,0,1-2.867,3.157L23.48-3.428h7.554Z" transform="translate(796.217 2933)" fill="#12263f"/>
    <path id="Trazado_899639" data-name="Trazado 899639" d="M6.645-3.56H15.82V0H.87V-2.439L10.02-15.623H.817V-19.2H15.728v2.373ZM27.488,0H23.032V-14.186l-4.377,1.279v-3.375L27.079-19.2h.409Z" transform="translate(1022.635 2978.917)" fill="#12263f"/>
    <path id="Trazado_899640" data-name="Trazado 899640" d="M18.129,0H13.357L6.3-12.387V0H1.5V-19.906H6.3L13.344-7.52V-19.906h4.785ZM31.09,0H26.469V-14.711L21.93-13.385v-3.5l8.736-3.021h.424Z" transform="translate(997.301 3090.75)" fill="#12263f"/>
    <path id="Trazado_899641" data-name="Trazado 899641" d="M18.129,0H13.357L6.3-12.387V0H1.5V-19.906H6.3L13.344-7.52V-19.906h4.785ZM34.768,0H20.877V-3.008l6.4-6.727q2.365-2.693,2.365-4.279a2.977,2.977,0,0,0-.561-1.955,2,2,0,0,0-1.627-.67,2.026,2.026,0,0,0-1.709.9,3.68,3.68,0,0,0-.656,2.235H20.467a6.537,6.537,0,0,1,.916-3.384,6.424,6.424,0,0,1,2.543-2.427,7.554,7.554,0,0,1,3.637-.875,7.431,7.431,0,0,1,4.97,1.49,5.32,5.32,0,0,1,1.743,4.279,6.214,6.214,0,0,1-.437,2.29A10.043,10.043,0,0,1,32.478-9.8,34.268,34.268,0,0,1,29.5-6.521l-2.57,2.967h7.834Z" transform="translate(943.468 3124)" fill="#12263f"/>
  </g>
</svg>
