<svg xmlns="http://www.w3.org/2000/svg" xmlns:xlink="http://www.w3.org/1999/xlink" width="504.898" height="246" viewBox="0 0 504.898 246">
  <defs>
    <clipPath id="clip-path">
      <rect id="Rectángulo_403127" data-name="Rectángulo 403127" width="407.676" height="143.614" fill="#12263f"/>
    </clipPath>
  </defs>
  <g id="Grupo_1108223" data-name="Grupo 1108223" transform="translate(-303.051 -1768)">
    <path id="Trazado_897915" data-name="Trazado 897915" d="M6.311,0H498.587c3.486,0,6.311,2.239,6.311,5V241c0,2.761-2.826,5-6.311,5H6.311C2.826,246,0,243.761,0,241V5C0,2.239,2.826,0,6.311,0Z" transform="translate(303.051 1768)" fill="#faefa0"/>
    <g id="Grupo_1108219" data-name="Grupo 1108219" transform="translate(352.051 1819)">
      <g id="Grupo_1108218" data-name="Grupo 1108218" clip-path="url(#clip-path)">
        <path id="Trazado_897984" data-name="Trazado 897984" d="M407.676,56.832c-2.674-.041-5.347-.1-8.02-.1a3.283,3.283,0,0,0-1.312.439c-.7.341-1.37.739-2.121,1.15H366.474a3.933,3.933,0,0,1-2.806.665c-1.47-.024-2.941.017-4.411-.013-1.614-.032-3.227-.114-4.949-.178a12.134,12.134,0,0,0-.158,3.461c-.043,1.2-.01,2.408-.01,3.611s0,2.409,0,3.613v3.486a1.452,1.452,0,0,1-1.427.95c-3.2-.005-6.407,0-9.61-.016a2.556,2.556,0,0,1-.714-.221c-.278-1.3-.543-2.557-.81-3.8h-2.206V85.547h1.777q5.355,0,10.712,0c.692,0,1.39-.041,1.871.809v37.365c-.447.865-1.2.8-1.946.8q-5.278-.006-10.554,0h-1.612c-.137.138-.176.172-.207.212a.334.334,0,0,0-.078.122,1.361,1.361,0,0,0-.042.3c0,4.916,0,9.832,0,14.773l-.971,1.393H317.647a2.622,2.622,0,0,1-1.128-2.479c.026-4.766.012-9.532.013-14.3v-1.772a8.7,8.7,0,0,0-1.424-.258c-6.561-.03-13.122-.078-19.673.426-2.453.188-4.918.242-7.548.365-.031.614-.08,1.145-.081,1.675q-.007,8.052.007,16.1a2.749,2.749,0,0,1-1.12,2.532H268.317a2.477,2.477,0,0,1-1.176-2.355c.028-3.662.011-7.325.011-10.987v-1.7c-.679-.033-1.189-.076-1.7-.078q-5.12-.011-10.239,0a1.836,1.836,0,0,1-1.93-.9v-6.3a6.485,6.485,0,0,0-3.014.191c-.053.539-.157,1.117-.159,1.7-.014,4.165-.028,8.33.006,12.494a3.082,3.082,0,0,1-1.108,2.658H231.261a2.581,2.581,0,0,1-1.181-2.4c.029-3.161.02-6.322,0-9.482-.013-2.646-.673-3.285-3.45-3.29-7.929-.013-15.858.012-23.786-.018-2.976-.011-3.558,1.108-3.476,3.284.072,1.9.014,3.812.014,5.837l-.871,1.3c-6.5.348-12.948.246-19.457.034a2.434,2.434,0,0,1-1.066-2.3c.036-2.506.012-5.01.012-7.591a8.194,8.194,0,0,0-3.483-.027V127.8l-1.106,1.521H156.309c-1.91-1.471-1.45-3.97-2.564-5.745a3.657,3.657,0,0,0-2.323-.429q-7.245-.03-14.491-.044c-5.04-.005-10.079.02-15.117,0-6.826-.025-13.649-.1-20.473-.112-2.519,0-5.039.1-7.559.151-.571.011-1.142,0-1.72,0l-1.039-1.515v-4.579H88.579v7.161a1.578,1.578,0,0,1-1.579.967c-3.1-.013-6.194.012-9.293-.03a5.211,5.211,0,0,1-1.417-.448V85.662a1.511,1.511,0,0,1,1.481-.767q4.648.011,9.3,0a1.521,1.521,0,0,1,1.516.963V93.1h2.394c.028-.527.057-1.057.084-1.586.073-1.386-.2-2.788.451-4.144a3.456,3.456,0,0,0,.032-1.637c-.071-.94-.266-1.877-.279-2.817-.039-2.76-.013-5.519-.012-8.279V73.156c-2.321-.7-4.714-.383-6.888-1.235-.589-4.083-.078-8.1-.347-12.076-1.006-.569-1.068.592-1.649.838H73.136c-.04.523-.1.954-.1,1.386-.011,2.559-.009,5.118-.007,7.676a1.714,1.714,0,0,1-.963,1.826c-1.226,0-2.689,0-4.156,0-1.418,0-2.836-.01-4.251.015a1.642,1.642,0,0,1-1.619-.85V62.99c-1.147-.021-2.174-.048-3.2-.057-1-.01-1.992,0-3.023,0l-2.2,1.987H42.566c-.613-.318-1.258-.649-1.681-.869-1.217.1-2.2.234-3.178.242-3.254.03-6.511.018-9.767.008-.678,0-1.354-.064-2.087-.1l-1.046,1.373H20.356l-.837,1.212c-1.52,0-3.041.051-4.554-.013-1.862-.079-3.014.43-3.323,2.218-.022.132-.166.245-.3.432-1.6.432-3.4-.279-4.917.433-.534.9.151,2.015-1.07,2.668H.856A1.271,1.271,0,0,1,0,71.19c.012-.251,0-.5,0-.752V5.49A1.462,1.462,0,0,1,1.5,4.5c1.049.016,2.1.012,3.151,0A1.469,1.469,0,0,1,6.135,5.4c.111,5.1-.073,10.36.094,15.491.91.7,1.784.422,2.6.463.783.04,1.571.01,2.479.01a9.057,9.057,0,0,1,.463,1.081,2.226,2.226,0,0,0,2.294,1.7c1.047.034,2.1.024,3.143.029.782,0,1.564,0,2.3,0,.311.439.538.759.811,1.147,1.032,0,2.079.014,3.126,0,1.076-.018,2.026.131,2.184,1.376,4.1,0,8.086-.013,12.07.008.982.005,1.964.122,3.219.206,1.053-.925,2.62-.915,4.212-.9,2.83.032,5.663.01,8.611.01l1.6,1.889h6.636V19.943a5.337,5.337,0,0,1,1.463-.49c2.886-.042,5.773-.022,8.541-.022.972.346,1.057,1.011,1.05,1.758-.018,2.408-.01,4.816-.011,7.225,0,.588,0,1.176,0,1.863h9.27c.616.243.731,1.352,1.724.846.261-3.947-.21-7.961.307-11.91,1.024-.875,2.27-.575,3.363-.813,1.113-.243,2.269-.31,3.564-.474,0-.554,0-1.045,0-1.535,0-3.161.019-6.322-.006-9.483A2.533,2.533,0,0,1,92.4,4.538h14.873a2.713,2.713,0,0,1,1.179,2.524c-.028,4.465-.011,8.931-.01,13.4a4.145,4.145,0,0,0,.186,1.5V1.548L109.641,0h20.11a2.365,2.365,0,0,1,1.061,2.247c-.023,3.111-.07,6.223.01,9.332.081,3.143.3,6.284.471,9.578,1.261.165,2.542.336,3.824.5a3.107,3.107,0,0,1,2.236.867V28.61h6.958c.306-2.079-.02-4.128.21-6.273,1.771-1.084,3.937-.619,5.947-1.235.531-2.576-.4-5.333.679-8l1.948-.3c0-1.618-.008-3.213,0-4.81.007-1.21.016-1.21,1.034-2.3,6.819-.355,13.688-.214,20.689-.022l1.008,1.215v14l1.478.169V11.793l1.033-1.571h20.01a2.565,2.565,0,0,1,1.137,2.359c-.036,2.859-.023,5.719-.022,8.578,0,.58.037,1.16.064,1.963l1.238-1.1c2.114.133,4.3-.311,6.56.324v6.434c.9.217,1.022-.634,1.574-.763h11.486c.621-1.576-.471-3.409.764-4.9h6l1,.881c.082-.125.21-.229.21-.335.016-2.107.018-4.214.021-6.321,0-.552,0-1.1,0-1.82l.948-1.385h18.54a2.342,2.342,0,0,1,1.142,2.256c-.011,2.409,0,4.817.007,7.225,0,.49.042.979.067,1.5l1.026.1v-8.8a1.708,1.708,0,0,1,1.7-1.017c2.416.011,4.831-.012,7.247.016a8.027,8.027,0,0,1,1.462.31l.932-.3c.73.263.734.765.74,1.282a9.028,9.028,0,0,0,.087,1.646c.147.733.406,1.445.642,2.257l2.9.191c.348,1.7.029,3.353.241,5.1l1.311.07c0-1.127.031-2.12-.009-3.112a2.4,2.4,0,0,1,1.148-2.326c6.041-.329,12.228,0,18.372-.084a2.533,2.533,0,0,1,1.149,2.379c-.046,1.152-.018,2.307-.01,3.461,0,.28.052.56.1,1.01l1.072-.844h6.071c.767,2.008.077,4.087.47,6.154,2.836.2,5.711-.291,8.876.391,1.17-.721,2.446-.25,3.68.968.041-.6.076-1.1.112-1.638l.7-.875v-6.51c1.8-1.181,3.808-.292,5.621-.639l1.626,1.018a11.124,11.124,0,0,0,.184-1.284c.02-1.3.038-2.61,0-3.914a2.506,2.506,0,0,1,1.123-2.309H337.6l.949,1.317c.043.65.083,1.245.131,1.949h2.692c.811-1.092.668-2.446.91-3.662,1.137-.424,6.079-.54,10.991-.279.874.314.871,1.017.869,1.741q-.013,5.8-.006,11.591v1.68a5.328,5.328,0,0,0,1.067.061c3.077-.542,6.18-.175,9.269-.229a4.842,4.842,0,0,1,2.054.66q11.1,0,22.2,0c2,0,3.991.054,5.984-.006a4.708,4.708,0,0,1,2.82.718c.52.335,1.089.6,1.648.9h8.494v.6l-2.676,0c-.943,0-1.889-.027-2.83.022a6.318,6.318,0,0,0-2.576.18V56.119c1.4,0,2.7-.014,4.007,0,1.359.019,2.716.07,4.074.106ZM155.9,41.45l-1.288.373c.747.008.748.01,1.258-.407a1.049,1.049,0,0,0,1.306-.574l-1.276.608m12.276,2.394-1.31.4c.534.088,1.1.191,1.278-.433a1.043,1.043,0,0,0,1.33-.558q-.648.3-1.3.592m75.317.913-1.567.616-1.562.616-2.483.926-1.64.548-1.541.643a4.012,4.012,0,0,0-2.481.927l-1.387.3c.516.079,1.043.146,1.36-.329a4.149,4.149,0,0,0,2.482-.926,1.567,1.567,0,0,0,1.541-.642,1.613,1.613,0,0,0,1.64-.55,3.927,3.927,0,0,0,2.484-.923,1.57,1.57,0,0,0,1.559-.619,1.379,1.379,0,0,0,1.567-.618c.589.241.988-.082,1.317-.576-.429.2-.859.406-1.289.609m-79.4.6-1.306.385c.052.1.1.207.154.31l1.123-.728c.582.221.979-.105,1.311-.578l-1.283.611M160,46.875l-1.378.374c.5.01,1.1.216,1.349-.407a1.046,1.046,0,0,0,1.3-.6L160,46.875M245.773,38.8l1.287-.391c-.05-.1-.1-.2-.149-.308l-1.1.733a1.064,1.064,0,0,0-1.322.562l1.289-.6m-83.21.27,1.356-.341c-.54-.125-1.04-.12-1.326.374l-1.4.279a1.2,1.2,0,0,0,1.373-.312m-6.589,9.363,1.32-.386c-.528-.079-1.084-.173-1.289.42-.75.049-.75.049-1.567.712l1.536-.746M171.362,102.3a1.593,1.593,0,0,0-1.588-.592,5.754,5.754,0,0,0-3.133-1.217,1.75,1.75,0,0,0-1.6-.584A10.947,10.947,0,0,0,161,98.358l-1.622-.568a2.819,2.819,0,0,0-2.3-.584l2.331.553a1.636,1.636,0,0,0,1.623.567,9.39,9.39,0,0,0,4.039,1.553,1.727,1.727,0,0,0,1.6.581,5.918,5.918,0,0,0,3.132,1.218,1.8,1.8,0,0,0,1.589.593c.31.536.838.543,1.431.344l-1.458-.313m.908-53.038-1.308.4c.461-.055,1.127.234,1.278-.437.583.237.99-.083,1.336-.551l-1.306.585m72.551.373,1.329-.376-.142-.328c-.31.4-.963.105-1.156.738a1.058,1.058,0,0,0-1.3.581l1.272-.615m-4.174,1.445-1.319.385c.519.068,1.066.149,1.287-.42a1.075,1.075,0,0,0,1.321-.576l-1.289.611m-75.007.581-1.274.409c.056.1.112.2.168.3l1.073-.741a1.087,1.087,0,0,0,1.348-.524l-1.314.558m6.684-9.284a3.829,3.829,0,0,0,1.961-.609c-.043-.089-.086-.18-.128-.27l-1.806.909-1.379.328c.044.1.089.208.132.312l1.219-.671m22.01,68.971c.414.312.833.611,1.431.239l-1.462-.206a3.266,3.266,0,0,0-2.511-.91,3.474,3.474,0,0,0-2.459-.951,1.853,1.853,0,0,0-1.61-.58,10.478,10.478,0,0,0-4.094-1.508,7.145,7.145,0,0,0-3.923-1.219l3.949,1.191a10.588,10.588,0,0,0,4.093,1.508,1.939,1.939,0,0,0,1.612.578l2.463.946,2.511.912m1.608-5.148a3.039,3.039,0,0,0,1.842.708,2.358,2.358,0,0,0-1.867-.678,2.756,2.756,0,0,0-2.622-.8c-.022-.131-.009-.356-.073-.378-.972-.338-1.956-.649-2.936-.967a1.08,1.08,0,0,0-1.451-.284l1.476.255c.824.821,2.017.883,3.018,1.338l2.613.8m-1.542-6.34a1.1,1.1,0,0,0-1.424-.247l1.453.216a2.517,2.517,0,0,0,2.284.685l-2.313-.653m-74.73-52.38-2.267.649c.047.117.092.234.139.352.644-.471,1.554-.323,2.094-1.036a1.052,1.052,0,0,0,1.3-.6l-1.262.633m113.75-4.209a5.389,5.389,0,0,0-2.212.71c.052.108.106.217.158.324q1.015-.531,2.028-1.063a1.8,1.8,0,0,0,1.627-.565q2.012-.714,4.02-1.433c.013-.005,0-.093-.008-.143a1.074,1.074,0,0,0,1.336-.552l-1.3.586-4.018,1.572a1.976,1.976,0,0,0-1.626.565m-69.342,70.495a1.173,1.173,0,0,0,1.4.221l-1.434-.187a3.514,3.514,0,0,0-2.471-.951,4.1,4.1,0,0,0-2.471-.938,1.075,1.075,0,0,0-1.441-.284l1.468.254a3.714,3.714,0,0,0,2.472.936l2.478.949M111.529,39.083l2.26-.646c-.808.062-1.669.016-2.229.68a1.1,1.1,0,0,0-1.342.649l1.311-.683m171.69,69.223a4.181,4.181,0,0,0,2.287.873,3.937,3.937,0,0,0-2.312-.843,6.8,6.8,0,0,0-3.464-1.2c-.093-.1-.164-.26-.281-.3q-3.787-1.364-7.586-2.7a2.194,2.194,0,0,0-.612-.034,4.008,4.008,0,0,0-2.339-.815,3.524,3.524,0,0,0,2.364.783c.088.106.153.269.268.31q3.868,1.38,7.75,2.73a1.407,1.407,0,0,0,.461-.007,7.265,7.265,0,0,0,3.464,1.206m.309-10.532a4.109,4.109,0,0,0,2.309.807A3.605,3.605,0,0,0,283.5,97.8a6.783,6.783,0,0,0-3.464-1.206,7.541,7.541,0,0,0-3.2-1.148,7.953,7.953,0,0,0,3.226,1.12,7.957,7.957,0,0,0,3.464,1.206m-10.489-8.891-1.832-.329a1.812,1.812,0,0,0,1.834.33c.048.135.058.357.146.39.913.341,1.839.65,2.761.969l.062-.181-2.971-1.179m11.439,25.142a1.547,1.547,0,0,0,1.71.382l-1.736-.353a7.77,7.77,0,0,0-3.207-1.143,7.667,7.667,0,0,0,3.232,1.113M270.946,98.67a2.741,2.741,0,0,0-2.313-.543l2.339.514a6.531,6.531,0,0,0,3.459,1.211,6.59,6.59,0,0,0,3.461,1.208,8.765,8.765,0,0,0,1.281.663c1.551.513,3.119.978,4.68,1.463a3.966,3.966,0,0,0,2.31.833,3.561,3.561,0,0,0-2.336-.8c-.769-.34-1.519-.732-2.312-1.007-1.2-.415-2.431-.749-3.649-1.117a7.65,7.65,0,0,0-3.461-1.21,7.776,7.776,0,0,0-3.459-1.212m-88.838,2.4a3,3,0,0,0-2.332-.567l2.359.537a9.669,9.669,0,0,0,4.036,1.555,1.148,1.148,0,0,0,1.444.312l-1.469-.283a11.276,11.276,0,0,0-4.038-1.555m90.7,14.175a8.444,8.444,0,0,0,3.232,1.09,7.8,7.8,0,0,0-3.259-1.06c-1.193-.907-2.683-1.045-4.071-1.449a12.445,12.445,0,0,0,4.1,1.419m-2.186-6.026a3.474,3.474,0,0,0-1.991-.723,2.571,2.571,0,0,0,2.016.691,4.413,4.413,0,0,0,.837.537c1.3.475,2.618.921,3.938,1.353a9.869,9.869,0,0,0,1.181.241,7.937,7.937,0,0,0,3.231,1.128,7.755,7.755,0,0,0-3.256-1.1,3.229,3.229,0,0,0-.709-.464c-1.743-.571-3.5-1.114-5.247-1.667m-99.882-.007a1.063,1.063,0,0,0,1.454.332l-1.481-.3a2.659,2.659,0,0,0-.574-.422q-6.328-2.438-12.668-4.85a5.47,5.47,0,0,0-.7-.172,1.632,1.632,0,0,0,.818.624q5.972,2.278,11.953,4.536a7.925,7.925,0,0,0,1.2.254M275.967,49.595a16.121,16.121,0,0,0,1.8-.38c2.521-.827,5.031-1.687,7.542-2.542.68-.232,1.353-.484,2.09-.75-.071-.315-.12-.535-.187-.834a9.808,9.808,0,0,0-.956.262q-4.858,1.907-9.708,3.836a2.518,2.518,0,0,0-.559.44l-1.339.29c.476.017,1.038.206,1.312-.322m-76.2,37.085v5.377q0,14.669.01,29.341a4.493,4.493,0,0,0,.086,1.532c1.267-.123,2.343-.314,3.421-.32,6.562-.028,13.124-.042,19.686,0,2.208.016,4.453-.364,6.607.519.314-3.77.181-34.931-.181-36.262a5.281,5.281,0,0,1-3.332.6q-11.182,0-22.363,0a6.234,6.234,0,0,1-3.932-.789m104.5-28.665a15.149,15.149,0,0,1-2.084.32c-2.139.042-4.28.016-6.6.016v5.925c-2.172.686-4.26.191-6.219.357l-1.263-.933c-.372,7.771-.34,15.351-.267,23,.8.081,1.419.17,2.042.2,2.882.141,5.764.322,8.648.386,5.508.121,11.017.176,16.526.243a11.581,11.581,0,0,0,1.476-.185V85.728q0-3.61,0-7.222c0-3.711.012-7.423-.009-11.134,0-.507.213-1.1-.377-1.578l-1.328.795c-1.354,0-2.717,0-4.079,0a1.618,1.618,0,0,1-1.654-.87V59.56c-.266-.366-.5-.688-.7-.959-.031-.6-.058-1.124-.088-1.7-1.6,1.548-2.08,1.659-4.029,1.118m62.447-24.768c-.332,1.655-.278,23.329.029,24.42h28.979c.091-.185.172-.272.174-.36q.025-11.2.04-22.394c0-.449-.032-.9-.054-1.349a.263.263,0,0,0-.062-.129,3.2,3.2,0,0,0-.248-.216c-9.543-.011-19.216-.032-28.858.028M199.572,67.806c-.057.438-.1.626-.1.815-.03,5.16-.067,10.32-.076,15.48,0,2.029.816,2.8,2.963,2.806q12.353.018,24.707,0c2.151,0,2.971-.754,3.02-2.777.039-1.553.011-3.107.012-4.661q0-1.262,0-2.526l-.282.1L228.4,75.578c-.052-2.994.036-5.768-.058-8.537L228,66.889l-.6,1.045c-2.02,0-3.749.035-5.474-.024a5.24,5.24,0,0,1-1.456-.537V62.9H208.7c-.506-.158-.461-1.1-1.374-.727,0,.421,0,.91,0,1.4,0,1.3.031,2.608-.02,3.909a6.282,6.282,0,0,1-.372,1.367H200.6l-1.03-1.039M352.83,73.311c.327-1.788.274-54.438-.039-55.6h-9.854c-.022.6-.058,1.132-.059,1.669q0,10.076,0,20.15,0,16.014.011,32.028c0,.575-.2,1.2.292,1.749Zm-98.187,8.921c-.33,1.653-.267,44.451.082,45.667,4.081-.017,8.2.061,12.339-.048V82.233Zm48.47,39.733c-.014-11.352.024-22.556-.022-33.863l-15.159-.763c-.047.53-.117.964-.117,1.4q-.013,16.322-.007,32.641a13.479,13.479,0,0,0,.144,1.36l15.16-.774M251.592,15.948c-.309,1.433-.316,57.52-.014,59.009a68.2,68.2,0,0,0,9.768-.3V16.118l-.55.193c-3.233-.691-6.246-.207-9.2-.363M339.5,86.179c-.092.177-.177.263-.177.351q-.028,18.113-.041,36.226c0,.3.039.6.068.9,0,.04.052.08.086.116a1.474,1.474,0,0,0,.114.1,106.485,106.485,0,0,0,13-.138,1.871,1.871,0,0,0,.1-.426q.015-17.888.014-35.776c0-.348-.041-.7-.069-1.044a.313.313,0,0,0-.062-.137,2.006,2.006,0,0,0-.17-.172ZM63.235,20.062c-.276,3.366-.161,49.627.108,50.822a38.6,38.6,0,0,0,8.488-.166c0-.42,0-.867,0-1.313q-.023-24.522-.052-49.045c0-.041-.048-.084-.077-.123s-.068-.078-.153-.175ZM26.929,27.335c0,11.741,0,23.31,0,34.879,0,.4.05.795.081,1.191a.252.252,0,0,0,.067.131.8.8,0,0,0,.126.09c2.536.274,10.778.18,11.951-.168q0-16.777,0-33.621c0-.75-.043-1.5-.072-2.249,0-.041-.047-.084-.079-.12a1.666,1.666,0,0,0-.158-.134ZM130.8,86.985c.857.045,1.578.119,2.3.113q9.2-.08,18.4-.186c.367,0,.737.02,1.1-.013,1.008-.089,1.146-.228,1.488-1.412l-1.062-1.593V78.13l-1.968-.33c-.88-2.693-.171-5.327-.567-7.983-1.519-.207-3.009-.429-4.5-.605-.659-.078-1.249-.193-1.524-.935-.132-1.916.1-3.912-.118-5.921h-6.967v6.284c-1.94,1.063-4.17.573-6.1,1.279a2.027,2.027,0,0,0-.122.44c-.123,3.5-.254,7-.351,10.5-.041,1.5-.006,3.007-.006,4.51v1.622m184.83,34.887v-11.3c0-3.762.02-7.524,0-11.285-.02-3.689.081-7.381-.06-11.045a75.6,75.6,0,0,0-11.8.14c-.018.275-.054.569-.054.865q.022,16.173.053,32.349c0,.04.057.081.088.12s.066.079.136.16ZM77.535,85.509a2.686,2.686,0,0,0-.151.554q-.022,18.493-.031,36.989c0,.4.043.8.069,1.2a.255.255,0,0,0,.059.132,1.17,1.17,0,0,0,.167.129h9.612c.32-1.757.257-37.826-.066-39ZM42.887,64.2a55.171,55.171,0,0,0,10.382-.088V26.758a54.482,54.482,0,0,0-10.382.11ZM136.375,99.93c2.082,1.108,4,2.033,5.808,3.112a27.658,27.658,0,0,1,5.447,3.626l-.941.947-10.6-1.574c1.991,1.028,3.964,1.964,5.847,3.044a31.759,31.759,0,0,1,5.551,3.46c-.314,1-1.006.952-1.7.864q-2.885-.366-5.768-.747c-1.013-.135-2.023-.293-3.314-.481a5.442,5.442,0,0,0,.591.442c2.919,1.366,5.843,2.721,8.759,4.095.538.254,1.188.416,1.368,1.092a1.261,1.261,0,0,1-1.359.587c-2.187-.253-4.377-.468-6.568-.678-.46-.045-.929-.006-1.714-.006.549.23.777.344,1.016.424,2.427.8,4.857,1.6,7.281,2.407.468.155,1.088.116,1.226.86-.534.652-1.306.351-1.987.342s-1.358-.119-2.039-.147-1.349-.005-2.024-.005a35.164,35.164,0,0,0,11.6.888c.286-2.072.219-33.724-.069-34.933H147.56c-.268.186-.6.417-.952.665h-4.979c2.068.894,4.2.921,5.847,2.185-.514.879-1.232.693-1.89.639-1.881-.151-3.76-.32-5.64-.473-.317-.025-.638,0-.958,0a1.417,1.417,0,0,0,.688.5c2.151.921,4.308,1.831,6.45,2.772a6.336,6.336,0,0,1,1.161.744c.1.072.1.263.166.45l-.716.65-9.842-1.166c2.01.967,3.817,1.761,5.543,2.688a27.577,27.577,0,0,1,5.2,3.209l-.882,1.014L136.375,99.93M90.894,72.415c.122-.258.2-.347.2-.437q.035-25.333.054-50.668c0-.8-.041-1.6-.068-2.4,0-.042-.046-.086-.076-.124s-.069-.075-.2-.215l-5.691.725v52.37l5.778.748M12.34,24.251c-.371,1.337-.361,41.073.01,42.465,2.21-1.045,4.627-.177,6.99-.66V24.882c-2.368-.49-4.78.368-7-.631M4.958,71.866c.029-.427.056-.672.06-.919.132-8.917-.069-17.833.228-26.756.28-8.406.146-16.828-.2-25.243-.163-4-.022-8.021-.037-12.03,0-.577.2-1.226-.51-1.709a7.406,7.406,0,0,0-3.12.163c-.293,1.54-.244,65.351.05,66.494Zm145.337-2.671c.286-1.864.228-46.123-.067-47.379l-4.679.562c-.324,1.656-.279,45,.039,46.2l4.707.619M131.633,21.818c-.138.232-.22.313-.233.4a6.27,6.27,0,0,0-.041.75q.018,22.939.043,45.875c0,.042.051.086.081.127s.062.076.168.205l4.716-.631V22.4l-4.733-.586M364.717,32.693a35.531,35.531,0,0,0-8.026.044v25.5a34.209,34.209,0,0,0,8.026-.069ZM61.795,62.273c.093-.158.189-.243.189-.329Q62.01,46,62.025,30.049c0-.4-.041-.8-.071-1.2,0-.04-.059-.078-.093-.114s-.072-.073-.167-.168c-1.812-.006-3.678-.042-5.512.018-.278,2.136-.2,32.586.1,33.793,1.476,0,2.988.007,4.5-.005a9.7,9.7,0,0,0,1.014-.1M7.25,22.02c-.006,15.681-.006,31.241,0,46.764a8.038,8.038,0,0,0,3.851-.044c-.01-15.521.014-31.08-.009-46.721Zm12.762,3.943C20,38.982,20,51.926,20.018,64.953a15.153,15.153,0,0,0,4.144-.069V25.963ZM253.264,88.734V82.587c.581-1.086,1.349-1,2.084-1q5.035,0,10.069,0c.551,0,1.1-.05,1.737-.081V79.689c0-3.507-.016-7.016.008-10.523.009-1.246.121-2.491.167-3.737.006-.126-.118-.257-.211-.445l-1.018.089c-.363,1.73.222,3.46-.4,5.124l-2.759.184a8.512,8.512,0,0,0-.764,3.558c.042.573.178,1.24-.589,1.54a6.551,6.551,0,0,0-1.5-.147,67.789,67.789,0,0,1-9.078.138,2.523,2.523,0,0,1-.792-.3c-.317,3.362-.182,12.324.206,13.443a5.243,5.243,0,0,0,2.849.116M91.53,90.344c3.752,1.045,7.222,1.991,10.678,2.985,2.356.678,4.671,1.492,7.038,2.131,6.556,1.766,13.15,3.4,19.687,5.225,4.927,1.374,9.788,2.962,14.681,4.445a6.226,6.226,0,0,0,.941.136,3.906,3.906,0,0,0-1.223-1.018c-1.724-.952-3.406-2-5.206-2.793-2.183-.966-4.466-1.726-6.712-2.556a198.061,198.061,0,0,0-31.07-9.1c-2.662-.513-5.346-.925-8.18-1.411-.23.71-.421,1.3-.633,1.95m.652,16.75c9.868,3.862,19.68,7.511,29.806,10.352a83.053,83.053,0,0,0,21.149,3.586c.493.008.989,0,1.559,0-.127-.225-.15-.345-.217-.375a7.893,7.893,0,0,0-.873-.332q-6.278-1.95-12.558-3.893c-1.944-.6-3.869-1.271-5.838-1.789-4.243-1.115-8.536-2.063-12.76-3.242-6.388-1.783-12.733-3.7-19.1-5.57a3.206,3.206,0,0,0-1.817-.242l.646,1.5m.16,5.925c.173.081.264.133.361.167a175.949,175.949,0,0,0,28.728,7.7,103.623,103.623,0,0,0,17.678,1.619c.422,0,.843-.042,1.266-.065a.619.619,0,0,0-.428-.278c-2.524-.451-5.057-.864-7.573-1.353a163.805,163.805,0,0,1-17.454-4.476c-1.743-.543-3.462-1.172-5.228-1.637-5.454-1.437-10.928-2.816-16.394-4.213-.484-.123-.978-.211-1.481-.319a2.931,2.931,0,0,0,.527,2.855m53.217-13.275c-.157-.206-.218-.357-.331-.425a42.717,42.717,0,0,0-9.718-4.544c-5.46-1.6-10.919-3.189-16.494-4.408a17.738,17.738,0,0,0-5.92-.28c-1.133.131-2.28.151-3.432.221-.433-.637-.8-1.177-1.212-1.787A101.449,101.449,0,0,0,92.4,87.541a3.494,3.494,0,0,0,.571.271,150.823,150.823,0,0,1,23.89,5.171c2.8.833,5.574,1.754,8.39,2.528,3.17.871,6.378,1.618,9.567,2.428a54.349,54.349,0,0,0,10.746,1.8M341.4,69.154V57.283q0-5.938,0-11.877c0-3.91.02-7.819,0-11.728-.026-3.938.1-7.877-.073-11.837h-2.259c-.267,2.512-.161,46.187.114,47.313Zm-78.325.509c.538.023.851.054,1.163.046.348-.01.694-.055,1.1-.09V21.382h-2.259ZM91.737,95.021q25.463,6.149,50.095,14.666a8.742,8.742,0,0,0-1.57-1c-1.739-.816-3.463-1.675-5.252-2.378-4.892-1.924-9.814-3.778-14.727-5.657a252.448,252.448,0,0,0-26.423-8.726c-.542-.141-1.087-.272-1.608-.4-.933,1.146-.506,2.3-.514,3.5m86.053,27.888c-.02-11.984.024-23.791-.027-35.666h-3.12V88.8q0,2.557,0,5.114,0,13.613.01,27.226c0,.579-.184,1.206.284,1.772ZM94.258,101.341c-.049.086-.1.173-.148.26.328.139.652.287.983.417,1.936.768,3.866,1.554,5.812,2.293q12.275,4.652,24.558,9.28a59.969,59.969,0,0,0,17.68,3.974c.462.029.929,0,1.393,0,.016-.1.03-.2.044-.3-2.041-.891-4.076-1.8-6.128-2.67-3.607-1.531-7.457-2.352-11.208-3.458-9.762-2.879-19.507-5.809-29.259-8.716-1.24-.37-2.486-.723-3.729-1.085M174.624,17.6,154.4,23.321a4.78,4.78,0,0,0-.592,3.806c1.743-.249,20.269-5.265,21.361-5.79-.12-1.168.426-2.436-.549-3.738m-20.4,55.479,20.214-5.752c1.037-1.292.79-2.529.652-3.889l-21.354,5.673c.05,1.33-.369,2.576.488,3.967m.043,4.387c6.854-1.411,13.6-3.072,20.3-4.854.92-1.317.663-2.665.467-4.127l-21.344,5.943c.136.944-.314,1.96.577,3.038m-.394-55.318,21.284-5.887c-.032-1,.4-2.072-.566-3.006-6.833,1.425-13.628,3.029-20.272,4.82a5.231,5.231,0,0,0-.447,4.072m-28.4,100.423c.009-.1.019-.206.028-.309-1.286-.181-2.574-.34-3.856-.545a166.028,166.028,0,0,1-24.482-6.006c-1.439-.462-2.9-.865-4.358-1.265a5.68,5.68,0,0,0-1.091-.074c-.041,1.3-.291,2.507.734,3.634a126.2,126.2,0,0,0,33.025,4.565M177.39,69.238V67.66q0-22.193,0-44.386c0-.4,0-.8-.038-1.2a1.624,1.624,0,0,0-.21-.452l-1.261.1V69.238Zm-2.257-42.7c-.033-1.216.406-2.4-.46-3.631l-20.3,6.467a3.448,3.448,0,0,0-.436,3.365l21.2-6.2M154.276,67.706l20.2-6.477a3.456,3.456,0,0,0,.541-3.36L153.8,64.105c-.219,2.429-.208,2.518.477,3.6m.792,21.715c3.136.883,6.172,1.783,9.238,2.585,3.109.814,6.248,1.53,9.454,2.307.169-1.488.349-2.774-.724-3.921-5.492-1.634-11.047-3.2-16.7-4.416a9.334,9.334,0,0,0-1.266,3.444m23.541-18.053c6.6-1.589,13.169-3.427,19.6-5.356.9-1.132.718-2.257.524-3.532-7.047,1.618-13.747,4.049-20.694,5.923.041,1.01-.4,2.023.57,2.965m-.5-42.649c7.073-1.65,13.84-3.995,20.773-5.97-.14-1.077.4-2.121-.628-2.966-6.613,1.654-13.188,3.45-19.562,5.426-.934,1.144-.732,2.276-.583,3.509m75.131,60.8h-1.912c-.274,1.862-.211,29.906.056,31.022h1.857Zm-98.285,23.62c.523,1.434.947,2.6,1.35,3.7,5.716,1.863,11.272,3.628,17.013,5.1.9-1.269.5-2.559.478-3.848l-18.841-4.958M178.1,33.207l20.633-5.853c.31-2.282.278-2.488-.569-3.393l-19.46,6.11c-.764,1.286-.764,1.286-.6,3.136m.367,34.007c6.771-1.916,13.371-4,19.81-6.167a3.155,3.155,0,0,0,.41-3.023l-20.676,5.844c.079,1.135-.3,2.188.456,3.346m-4.607,56.148c-.614-.167-1.119-.3-1.617-.44-4.918-1.422-9.831-2.855-14.752-4.263a4.607,4.607,0,0,0-2.481-.38c.438,1.427.544,2.894,1.364,4.1,2.9,1.042,14.939,3.638,16.906,3.654.842-.711.552-1.642.58-2.674M129.548,13.917l-19.468,5.35c-.882,1.434-.909,1.607-.5,3.169,6.856-1.914,13.8-3.533,20.623-5.693-.07-.977.338-1.9-.654-2.825m24.312,24.8,21.3-6.676c-.047-1.057.339-2.052-.422-3.086-6.878,2.255-13.692,4.626-20.4,7.03-.73,1.184-.73,1.184-.486,2.732M130.008,67.224l-20.674,5.562c.107,1.1-.388,2.141.676,3.008l19.541-5.55c.786-1.437.786-1.437.458-3.02m68.766,56.494c-6.71-1.958-13.252-4.1-20-5.6-.309,1.664-.3,1.714.514,3.123,6.2,1.894,12.528,3.635,18.859,5.125.89-.783.588-1.662.623-2.648M317.72,66.906c6.678-1.559,13.261-3.319,19.62-5.331a3.286,3.286,0,0,0,.489-3.142c-7.061,1.646-13.732,4.16-20.663,5.984-.046.874-.289,1.668.554,2.489m19.589-42.731c-6.574,1.5-13.147,3.336-19.558,5.319-.758,1.373-.77,1.457-.446,3.1,7.036-1.558,13.738-4.124,20.687-5.947-.04-.921.283-1.756-.683-2.469M175,51.914l-21.2,6.653c-.207,2.121-.207,2.121.456,3.1l20.317-7.042A2.722,2.722,0,0,0,175,51.914M266.068,26.7V63.715c.3.389.57.787,1.156.508.64-1.936-.412-4,.487-5.771a7.174,7.174,0,0,1-.06-4.377,1.658,1.658,0,0,0,.028-1.027,6.344,6.344,0,0,1,0-4.105,2.057,2.057,0,0,0-.014-1.181,6.436,6.436,0,0,1,.021-4.1,2.04,2.04,0,0,0-.027-1.181,6.2,6.2,0,0,1,0-3.958,1.927,1.927,0,0,0-.018-1.172,6.664,6.664,0,0,1,.117-4.326c-.592-1.116-.353-2.377-.364-3.617-.008-.877-.036-1.755-.056-2.7ZM154.3,80.989c6.812-1.062,13.582-2.34,20.239-3.814A4,4,0,0,0,175.1,73.8l-21.33,4.976a2.3,2.3,0,0,0,.53,2.213m24.442,7.685,19.936,5.39a3.013,3.013,0,0,0-.523-2.837c-3.22-1.329-17.386-5.413-19.057-5.5-.589.938-.589.938-.356,2.943m-48.63-17.239L109.35,77.193c.028.924-.292,1.815.731,2.534l19.326-4.895c.972-1.008.874-2.042.7-3.4m47.93-47.23,20.75-5.639c.114-.771.332-1.61-.566-2.292-6.587,1.316-13.144,2.825-19.5,4.529-.934,1.086-.722,2.2-.68,3.4m139.2,59.728,21.331,5.989a2.8,2.8,0,0,0-.75-2.932l-20.067-5.881c-.749,1.015-.749,1.015-.514,2.824M174.6,9.788c-6.867,1.074-13.644,2.307-20.278,3.77a4.273,4.273,0,0,0-.543,3.32l21.268-4.9c.186-1.1.186-1.1-.447-2.189m-1.5,86.894c-5.471-1.968-11.062-3.892-16.754-5.6a7.694,7.694,0,0,0-1.379,3.279c2.184.6,4.288,1.174,6.387,1.762,2.056.576,4.1,1.186,6.161,1.747a62.039,62.039,0,0,0,6.233,1.717,3.011,3.011,0,0,0-.648-2.908m165.524,29.58c-1.909-.584-3.649-1.132-5.4-1.646s-3.516-1-5.277-1.488c-1.812-.5-3.618-1.027-5.446-1.475a36.3,36.3,0,0,0-5.281-1.312,2.435,2.435,0,0,0,.607,2.6c6.029,2.136,18.837,5.76,20.5,5.786.6-.739.314-1.583.3-2.464m-1.152-98.425c-6.742,1.935-13.318,4.049-19.663,6.257a2.359,2.359,0,0,0-.538,2.6l20.657-5.836c.034-.981.362-1.975-.456-3.025M317.7,63.324l19.5-6.2a2.454,2.454,0,0,0,.576-2.779c-3.483,1.012-6.887,2-10.289,2.993-3.437,1-6.939,1.807-10.364,2.882.063,1.072-.32,2.037.577,3.1M178.663,74.858c6.638-1.325,13.2-2.8,19.589-4.516a3.7,3.7,0,0,0,.462-3.3l-20.69,5.564c-.018.7-.238,1.508.639,2.25m70.832,48.612c-4.481-1.8-17.2-5.506-18.741-5.462a3.088,3.088,0,0,0,.733,2.972l17.414,5.376c.916-.94.487-1.917.593-2.886M110.127,24.08a2.822,2.822,0,0,0-.659,2.888c6.883-1.955,13.732-3.9,20.631-5.858.091-1,.486-1.987-.518-2.894L110.127,24.08M230.737,85.4c6.258,1.8,12.291,4.172,18.719,5.693.032-1.208.276-2.268-.558-3.154-3.25-1.362-16.351-5.16-17.861-5.163-.642.788-.31,1.687-.3,2.624m-1.582-52.077c6.57-1.519,12.85-3.874,19.291-5.8-.059-.96.3-1.832-.533-2.651-6.162,1.626-12.283,3.519-18.313,5.479-.72,1.163-.734,1.264-.444,2.976M109.421,18.146l20.743-5.6c.039-.889.291-1.745-.693-2.419l-19.328,4.721a3.635,3.635,0,0,0-.722,3.3m88.631,68.3c-6.169-1.724-12.482-3.3-18.816-4.579a2.163,2.163,0,0,0-.539,2.3c2.259.617,4.473,1.211,6.68,1.827,2.262.63,4.513,1.294,6.776,1.92,2.174.6,4.277,1.453,6.591,1.911.061-1.25.229-2.353-.692-3.381M91.7,98.99c5.553,1.652,10.95,3.244,16.338,4.862,5.351,1.607,10.666,3.33,16.108,4.665-10.579-4.293-21.119-8.662-31.926-12.287-.891.886-.448,1.807-.52,2.761M317.18,79.784l21.346,6.141c.3-1.728.286-1.778-.559-3.059-6.673-1.9-13.451-3.716-20.273-5.243a2.1,2.1,0,0,0-.513,2.162M109.94,71.365c6.611-2.043,13.171-4.071,19.561-6.047a2.428,2.428,0,0,0,.5-2.733L109.383,68.56c.027.958-.369,1.874.558,2.805m228.694,58.878c-3.661-1.02-7.182-1.977-10.687-2.984-3.539-1.018-7.062-2.084-10.681-3.156-.274,1.239-.331,2.24.526,3.073,4.73,1.515,18.4,5,20.378,5.186.739-.568.482-1.34.464-2.119M178.476,62.419c6.694-2.1,13.306-4.424,19.759-6.71a2.3,2.3,0,0,0,.474-2.5L178.064,59.5c-.011,1-.364,1.939.412,2.922m50.889,5.211c2.153-.281,15.894-4.15,18.507-5.2.82-.921.666-1.978.429-3.187l-19.232,6.029a3.058,3.058,0,0,0,.3,2.355m.053-3.828c6.206-1.834,12.34-3.811,18.356-5.87a2.439,2.439,0,0,0,.5-2.713c-6.447,1.974-12.937,3.492-19.274,5.636.092,1.019-.319,1.971.417,2.947m-30.682,55.492c-6.18-1.762-12.292-3.506-18.406-5.244-.448-.127-.91-.214-1.367-.313a.246.246,0,0,0-.153.02c-.041.021-.066.073-.131.154a2.318,2.318,0,0,0,.7,2.374c6.187,2.067,12.464,4.129,18.819,5.926.957-.924.508-1.933.537-2.917M287.3,57.257c-6.607,1.535-12.948,3.641-19.322,5.6-.072.934-.212,1.731.582,2.4,6.158-1.405,12.217-3.112,18.108-4.984a3.113,3.113,0,0,0,.632-3.02M286.6,84.7c-5.411-1.8-16.9-4.918-18.486-5.012-.629.795-.293,1.677-.293,2.644L287.056,87.6a2.847,2.847,0,0,0-.46-2.9M198.442,28.711l-19.663,6.732a2.28,2.28,0,0,0-.626,2.58l20.647-6.31a4.47,4.47,0,0,0-.358-3M55.387,62.742V28.235c-.4-.355-.8-.7-1.367-1.2-.047.522-.089.758-.089.994q.023,17.736.058,35.474c0,.035.052.075.09.1a1.715,1.715,0,0,0,.21.106l1.1-.967m175.328,27.07,18.653,5.445a2.487,2.487,0,0,0-.672-2.764c-5.784-1.991-11.624-4.007-17.611-5.791-.642,1.051-.369,2.042-.37,3.11M287.2,129.857c-2.308-.655-4.463-1.271-6.621-1.879q-5.8-1.635-11.6-3.252a7.134,7.134,0,0,0-1.126-.127c-.147,1.806-.147,1.806.618,2.985l18.1,4.806c.977-.754.6-1.628.628-2.532m-18.38-97.049,18.547-5.574c.1-.878.2-1.634-.6-2.218-6.14,1.3-12.227,2.923-18.168,4.759-.708,1.295-.708,1.295-.519,2.532l.741.5m-37.423,92.458c4,1.352,15.624,4.446,17.543,4.668.653-.9.653-.9.4-2.313l-18.527-5.626c-.24,2.089-.24,2.089.581,3.272m37.339-90.654c-1.072,1.683-1.069,1.825-.1,2.528l18.71-5.412c.15-1.939.15-1.939-.582-2.971l-18.027,5.855m-.3,88.4c6.009,1.833,12.111,3.723,18.292,5.357.818-.935.467-1.869.406-2.835l-19.221-5.2a2.513,2.513,0,0,0,.523,2.679m49.421-4.578,20.23,6.484c.97-.849.488-1.762.544-2.663l-21.339-6.2a2.027,2.027,0,0,0,.564,2.379m-.729-30.62,21.388,6.226c.2-1.295.2-1.295-.574-2.327-6.727-2.249-13.52-4.511-20.37-6.494-.733.85-.379,1.658-.443,2.6M42.178,64.121V27.02a2.023,2.023,0,0,0-.532.076c-.273.136-.524.312-.807.485V63.409l1.339.713m186.943-26.6,19.271-5.586c0-1.011.376-1.953-.4-2.906-6.234,1.879-12.376,4-18.382,6.086a2.254,2.254,0,0,0-.487,2.406M109.481,31.8l20.608-6.248c.2-1.71.2-1.71-.517-2.6l-19.464,6.3a2.373,2.373,0,0,0-.627,2.547m.172,51.357c6.9-1.35,13.47-2.788,19.868-4.36a2.95,2.95,0,0,0,.559-2.887l-20.824,5.164c.124.652.24,1.259.4,2.083M287.242,52.713a5.79,5.79,0,0,0-.591.113q-8.535,2.533-17.071,5.063a2.516,2.516,0,0,0-1.643,1.338c.012.636-.189,1.36.649,1.947,6.138-1.812,12.222-3.906,18.138-6.069a2.1,2.1,0,0,0,.519-2.392m-39.4-31.538-18.144,4.707a3.419,3.419,0,0,0-.577,3.158l19.267-5.651a2.582,2.582,0,0,0-.546-2.214m38.712,59.182c-6.064-1.629-12.163-3.164-18.25-4.5-.777.73-.5,1.486-.51,2.227l19.316,5.3a3.261,3.261,0,0,0-.556-3.025m-37.12,38.7-18.54-5.533c-.3,1.383-.3,1.383.529,2.6,5.563,1.871,11.289,3.8,17.019,5.709a2.545,2.545,0,0,0,.754.01,4.891,4.891,0,0,0,.238-2.787m-18.713-37.8,18.752,5.48c.006-1.195.26-2.262-.814-3.264-2.74-.733-5.656-1.534-8.584-2.291-2.96-.765-5.908-1.591-8.849-2.087a2.338,2.338,0,0,0-.5,2.163m-32.6,15.116c-6.321-2.164-12.6-4.386-18.981-6.272a2.861,2.861,0,0,0-.389,2.742l19.868,5.846a2.347,2.347,0,0,0-.5-2.316m-24.362,16.692c-1.988-.58-4.038-1.174-6.084-1.778s-4.1-1.226-6.153-1.841c-2.02-.6-4-1.349-6.354-1.821.47,1.03.82,1.793,1.147,2.511,5.719,2.127,11.322,4.212,16.99,6.047.683-1.086.686-1.1.456-3.119m5.546,12.509c6.232,1.591,12.54,2.973,18.827,4.07a1.585,1.585,0,0,0,.572-1.858l-19.98-5.265a3.386,3.386,0,0,0,.581,3.053m88.561-39.11c2.176.6,4.332,1.188,6.487,1.786,2.112.586,4.218,1.194,6.332,1.772a63.734,63.734,0,0,0,6.412,1.735c.154-1.367.154-1.367-.521-2.344C282.6,87.85,269.389,83.94,268,83.927a4.056,4.056,0,0,0-.141,2.531M109.876,66.529l19.567-6.445a2.029,2.029,0,0,0,.586-2.419l-20.583,6.327c-.168,1.567-.168,1.567.431,2.537m288.967-10.2V34.708a4.42,4.42,0,0,0-2.319-1.028c0,.875,0,1.67,0,2.463q0,9.839,0,19.678a2.825,2.825,0,0,0,.244,1.635l2.076-1.128M317.2,28.433l20.862-5.555-.506-1.637c-6.819,1.148-13.392,2.576-19.762,4.255a3.289,3.289,0,0,0-.594,2.937m20.715,34.209-20.771,5.5a1.459,1.459,0,0,0,.6,1.589c4.663-.621,17.449-3.413,19.658-4.287a3.2,3.2,0,0,0,.509-2.8M129.541,6.957c-6.558,1.225-13.144,2.551-19.559,4.095a2.81,2.81,0,0,0-.5,2.719l20.664-4.918a1.661,1.661,0,0,0-.61-1.9M250.1,65V26.469l-1.089-.838c0,13.368-.026,26.418.007,39.607L250.1,65M143.569,112.445c-2.99-1.784-31.271-10.884-33.687-10.91a5.382,5.382,0,0,0,.6.328c7.478,2.916,14.924,5.909,22.452,8.7a39.042,39.042,0,0,0,10.639,1.879M153.881,44.85l21.3-6.915c-.081-.894.3-1.7-.421-2.53L154.43,42.747a1.69,1.69,0,0,0-.549,2.1m163.65,14.017c6.731-2.153,13.358-4.555,19.856-6.963.518-.651.824-1.2.42-1.962l-20.617,6.347c-.064.851-.343,1.679.341,2.578M268.406,131.55c5.839,1.691,16.967,4.134,18.443,4.042a1.748,1.748,0,0,0,.246-1.85l-19.171-4.969c-.276,1.578-.276,1.578.482,2.778M337.48,32.157,317.833,39.09c-.749,1.083-.749,1.083-.457,2.034q10.293-3.177,20.611-6.359c-.062-.892.284-1.7-.508-2.608M338.727,133.8l-21.476-5.447c-.206,1.5-.206,1.5.626,2.661,6.657,1.65,13.416,3.2,20.425,4.472.166-.655.3-1.194.426-1.686M173.085,85.443c-2.6-.5-5.348-.915-8.029-1.578-2.962-.734-5.833.017-8.741.18-.423.023-.843.177-.82.722.6.093,1.213.14,1.8.287q7.075,1.77,14.141,3.574c.754.191,1.506.4,2.333.615.167-1.344.31-2.574-.683-3.8M338.045,79.1c-6.768-1.674-13.557-3.243-20.593-4.513-.144.67-.262,1.214-.368,1.7l21.477,5.442a2.975,2.975,0,0,0-.516-2.631M153.81,55.249c7.176-2.528,14.012-5.019,20.723-7.487a1.492,1.492,0,0,0,.441-1.991L153.81,52.635Zm93.812,11.544a2.822,2.822,0,0,0,.684-2.992l-19.254,5.318a1.667,1.667,0,0,0,.651,1.951l17.919-4.277M90.354,116.252c.337-1.583.269-21.265-.087-22.461l-1.623.08v22.381Zm196.529,7.8a3.164,3.164,0,0,0,.157-2.621l-19.106-5.562a1.85,1.85,0,0,0,.576,2.321l18.373,5.862M198.24,13.547c-6.57.988-13.143,2.119-19.532,3.557a2.865,2.865,0,0,0-.618,2.733l20.712-4.7a1.462,1.462,0,0,0-.562-1.589M124.5,90.731c1.606.436,3.228.824,4.814,1.317a71.651,71.651,0,0,0,13.52,2.637,8.039,8.039,0,0,0,2.831-.357,40.88,40.88,0,0,0-15.089-4.742c-1.922,1.012-4.111.377-6.077,1.144M107.745,69.019,92.017,64.809a2.646,2.646,0,0,0,.572,2.908l14.68,4.19c.893-.936.566-1.869.476-2.888m70.927,8.5c6.559-.908,13.092-2.1,19.521-3.472.8-1.326.817-1.457.45-2.658l-20.51,4.583c-.039.767-.039.767.539,1.547M248.3,50.938,229.1,56.7v2.612c.533-.129.932-.194,1.309-.321,2.862-.962,5.724-1.925,8.578-2.913q4.058-1.4,8.1-2.864c1.273-.462,1.356-.649,1.22-2.273M109.457,36.717c1.864-.317,19.817-6.085,20.738-6.662-.021-.646.259-1.363-.5-2.039L110.073,34.7a1.8,1.8,0,0,0-.616,2.02M198.664,48.2,178,54.8c.09.864-.262,1.627.391,2.336.307-.084.6-.147.887-.246,2.606-.918,5.213-1.829,7.812-2.765q5.222-1.882,10.429-3.8c1.289-.475,1.4-.7,1.148-2.124M91.848,22.527c1.85.5,3.6.987,5.356,1.461s3.52.953,5.288,1.4a38.284,38.284,0,0,0,5.218,1.325,2.548,2.548,0,0,0-.506-2.638c-3.391-1.291-13.771-4.179-15.026-4.169-.624.737-.318,1.6-.33,2.618M231.325,129.1c3.821,1.291,16.174,3.948,17.739,3.819a1.533,1.533,0,0,0,.364-1.622L230.8,126.385a2.694,2.694,0,0,0,.521,2.714m-32.636-14.056c-1.146-.576-18.975-5.968-19.941-6.032-.118.919-.124.921.676,1.86l18.792,6.54c.624-.939.624-.939.473-2.368m-20.484-72,20.554-6.582V34.032c-.7.209-1.241.34-1.756.526q-8.667,3.126-17.329,6.269a7.083,7.083,0,0,0-.73.271c-.852.42-.951.669-.74,1.943m70.636,54.52q-8.507-3.014-17.058-6.03a3.5,3.5,0,0,0-1-.012v2.407l18.528,5.753a2.151,2.151,0,0,0-.473-2.118M107.173,19.24c-4.882-1.334-9.818-2.647-14.729-3.759-.9.74-.577,1.562-.593,2.317,3.49,1.219,14.722,4.276,15.9,4.318a3.13,3.13,0,0,0-.582-2.875m210.165,92.4c-.213,1.19-.128,1.452.6,1.841a4.783,4.783,0,0,0,.726.283q9.453,3.226,18.91,6.448a5.848,5.848,0,0,0,.743.152,2.5,2.5,0,0,0,.246-2.2l-21.224-6.527m-.22-19.774c8.161,2.7,20.437,6.355,21.437,6.393.06-1.3-.041-1.483-1.356-1.934q-9.232-3.174-18.477-6.315c-.422-.143-.873-.207-1.5-.352-.039.831-.07,1.5-.1,2.207m-119.09-9.332c-6.247-1.367-12.53-2.58-18.826-3.422-.448.567-.777,1.015-.563,1.413l20.083,4.71a2.963,2.963,0,0,0-.694-2.7m69.666-8.068,19.39,4.667a2.425,2.425,0,0,0-.6-2.611c-6.044-1.378-12.09-2.722-18.378-3.822-.152.657-.277,1.2-.408,1.765M107.714,73.7l-15.778-4.38a3.065,3.065,0,0,0,.712,3.12l14.561,3.653c.688-.958.688-.958.5-2.392m2.08-12.331,19.7-6.79a1.576,1.576,0,0,0,.509-2l-20.577,6.582a2.812,2.812,0,0,0,.37,2.209m.039,24.667,19.648-3.586c.634-.894.97-1.638.584-2.513l-20.841,4.455.609,1.644M287.048,96.4c.194-1.6.068-1.847-1.29-2.3q-8.312-2.752-16.637-5.469a9.476,9.476,0,0,0-1.059-.218,3,3,0,0,0-.193,2.264l19.179,5.72m.219-34.667-19.3,5.049c.033.18.083.448.138.746a12.271,12.271,0,0,0,4.419.036c2.863-.578,5.736-1.112,8.593-1.71,1.931-.4,3.843-.887,5.632-1.3a2.912,2.912,0,0,0,.513-2.817M175.056,78.294l-21.391,3.849c.136.355.3.786.493,1.286,6.94-.644,13.712-1.55,20.344-2.648a2.362,2.362,0,0,0,.553-2.488m92.827-36.683c.753.787,1.349.3,1.889.126,4.861-1.552,9.711-3.137,14.566-4.708.986-.32,1.978-.619,2.981-.932.1-.9.4-1.733-.538-2.483l-18.239,6.739-.659,1.258M230.576,77.757l18.841,4.728a2.8,2.8,0,0,0-.659-2.659c-5.737-1.406-11.594-2.647-17.646-3.7-.184.561-.348,1.055-.537,1.627m17.451-59.4c-6.374,1.114-12.448,2.4-18.374,3.861a2.447,2.447,0,0,0-.539,2.537l19.441-4.874c-.177-.51-.332-.96-.528-1.523M174.679,7.435c-6.824.608-13.608,1.488-20.293,2.571a2.426,2.426,0,0,0-.581,2.442l21.342-3.789a1.528,1.528,0,0,0-.039-.5,4.96,4.96,0,0,0-.429-.728m74.76,107.576c-1.52-.75-17.59-5.719-18.6-5.758-.123,1.257-.013,1.464,1.3,1.944q7.988,2.909,15.989,5.788c.323.117.67.174,1.008.26a3.138,3.138,0,0,0,.3-2.234M91.947,59.963a2.442,2.442,0,0,0,.572,2.522c4.879,1.561,9.843,3.215,14.889,4.634a2.755,2.755,0,0,0,.28-2.573L91.947,59.963m63,39.754c6.191,1.913,12.164,3.762,18.141,5.6a4.235,4.235,0,0,0,.957.008l-.764-1.583-17.113-6.405c-.429.836-.787,1.534-1.22,2.381m74.1-57.911c1.629-.257,18.5-5.509,19.4-6.029-.089-.672.346-1.454-.464-2.107-6.288,2.172-12.574,4.359-18.862,6.754-.028.52-.049.936-.072,1.382M91.8,27.015l15.81,4.652c.316-1.366.316-1.366-.522-2.456-4.909-1.594-9.832-3.234-14.8-4.661-.714.778-.383,1.553-.486,2.464m176.281,1.3,19.4-4.79c-.211-.388-.41-.755-.622-1.147a169.422,169.422,0,0,0-18.226,3.32,2.545,2.545,0,0,0-.551,2.617m.069,28.1,18.534-6.959c.508-.564.86-.983.6-1.691a5.19,5.19,0,0,0-.76.126q-8.533,2.783-17.057,5.6a8.887,8.887,0,0,0-1.58.922c.087.655.153,1.169.263,2M129.688,4.334c-6.707.924-13.269,2.065-19.7,3.337-.506.789-.858,1.444-.533,2.254l20.694-4.19a1.98,1.98,0,0,0-.012-.58,5.64,5.64,0,0,0-.447-.821M268.146,135.081c6.336,1.355,12.423,2.566,18.558,3.54.39-.576.663-1.029.44-1.54l-19.52-4.362c.2.907.356,1.609.522,2.362M178.685,97.395c3.351,1.039,6.67,2.083,10,3.094,3.31,1.006,6.568,2.176,10.026,3.091.124-1.263-.642-1.606-1.5-1.913q-8.593-3.069-17.182-6.15A8.721,8.721,0,0,0,179,95.281c-.593.684-.386,1.366-.314,2.114m-4.733,29.886a170.459,170.459,0,0,1-18.746-3.966l1.054,3.182a163.005,163.005,0,0,0,17.039,1.991c.22-.406.4-.747.652-1.207M317.1,73.392l21.452,4.6c.14-1.092.14-1.092-.6-2.164-6.691-1.429-13.473-2.609-20.369-3.59-.184.439-.332.79-.483,1.151m21.638,63.154c-7.328-1.252-14.414-2.892-21.522-4.556a2.17,2.17,0,0,0,.661,2.275c6.663,1.373,13.433,2.641,20.369,3.581.186-.49.334-.882.492-1.3m-70.766-25.321c-.234,1.4-.147,1.566,1.232,2.033q8.362,2.834,16.736,5.639a9.666,9.666,0,0,0,1.164.221v-2.061l-19.132-5.833m-158.5-69.186,20.623-6.72c.131-.713.284-1.295-.233-1.9-.431.123-.88.229-1.312.38q-6.572,2.307-13.137,4.626c-1.623.573-3.251,1.134-4.863,1.732-1.014.375-1.086.528-1.078,1.88M91.918,13.765,107.66,17.64c.272-1.4.272-1.4-.536-2.621-4.863-1.123-9.77-2.283-14.672-3.142a1.623,1.623,0,0,0-.534,1.889m137.5,59.809c6.307-.951,12.448-2.069,18.384-3.46a2.279,2.279,0,0,0,.537-2.27l-19.423,4.474c.154.387.309.773.5,1.256M107.715,77.712l-15.751-3.79a2.733,2.733,0,0,0,.554,2.6l14.658,3.094c.643-.9.643-.9.539-1.9m71.548,51.323c6.289,1.217,12.583,2.226,19,2.864l.464-1.01-20-4.116a2.675,2.675,0,0,0,.529,2.262M337.435,19.329a189.384,189.384,0,0,0-19.7,2.968,2.3,2.3,0,0,0-.528,2.174l20.718-4.315-.488-.827M109.456,55.946c.531-.141.781-.189,1.017-.273q9.123-3.228,18.243-6.467a3.126,3.126,0,0,0,.971-.466c.383-.325.743-.73.229-1.348-6.854,2.262-13.731,4.453-20.614,6.782.054.619.1,1.092.154,1.772m228.2-18.77c-.456.134-.948.246-1.416.42q-7.108,2.637-14.211,5.289c-1.27.474-2.543.939-3.8,1.433-.574.225-1.161.483-.982,1.453l20.67-6.65a2.224,2.224,0,0,0-.257-1.944M317.2,53.99c.657-.184,1.149-.287,1.614-.459q6.382-2.356,12.757-4.736,2.565-.956,5.121-1.933c.631-.241,1.251-.5,1.274-1.593-7.039,2.3-13.957,4.493-20.891,6.752.044.7.078,1.227.124,1.969M92.5,56.937c4.884,1.658,9.873,3.412,14.927,4.977a2.305,2.305,0,0,0,.287-2.2c-5.229-1.6-10.451-3.278-15.764-4.848a1.883,1.883,0,0,0,.551,2.07m138.836,75.5c5.861,1.178,11.73,2.307,17.75,3.034.174-.543.3-.944.383-1.195L230.8,130.233a2.307,2.307,0,0,0,.544,2.206m55.221-59.147c-6.114-1.142-12.2-2.281-18.473-3.055-.134.539-.233.935-.309,1.242L287.1,75.4c.334-.773-.028-1.367-.534-2.106m52.121,40.567c-7.267-2.244-14.309-4.572-21.5-6.8-.084,1.026.5,1.308,1.153,1.54q9.56,3.4,19.126,6.8a6.3,6.3,0,0,0,1.144.16c.028-.6.05-1.082.078-1.694M91.777,31.884c5.171,1.628,10.129,3.19,15.088,4.746a3.8,3.8,0,0,0,.614.1.264.264,0,0,0,.144-.029.668.668,0,0,0,.118-.1c.092-.93.1-.933-.6-1.79-4.931-1.686-9.906-3.45-15.156-5.1-.08.823-.14,1.437-.211,2.163M317.1,96.189c7.088,2.257,14.076,4.485,21.067,6.7.121.038.287-.053.459-.091.032-.946-.708-1.147-1.383-1.387q-9.483-3.375-18.973-6.736a10,10,0,0,0-1.051-.23c-.042.634-.078,1.15-.118,1.745m-49.352-1.151c3.16,1.278,18.287,5.849,19.454,5.873.066-1.017-.64-1.344-1.462-1.625q-8.347-2.85-16.686-5.719c-.328-.112-.681-.154-1.209-.27-.036.642-.066,1.165-.1,1.741m-93.268-9.307c.03.241.061.484.11.866.538,0,1.051.007,1.563,0,.56-.011,1.12-.038,1.838-.064,0-2.055.006-3.991-.008-5.927a.994.994,0,0,0-.183-.563,3.076,3.076,0,0,1-.413-2.018q0-3.749-.017-7.5a2.384,2.384,0,0,0-.191-.605l-1.372.124V84.105l-1.327,1.625M153.744,50.779c1.381-.113,19.153-5.817,21.333-6.814V42.216c-.7.215-1.249.354-1.772.545q-6.97,2.543-13.933,5.1c-1.516.557-3.023,1.13-4.541,1.68-.567.205-1.044.456-1.087,1.236m.033-2.429c.719-.22,1.212-.346,1.687-.519q9.1-3.32,18.184-6.656a3.967,3.967,0,0,0,1.118-.523c.217-.172.272-.531.556-1.143l-21.544,7ZM130.1,83.4l-20.814,3.669c.248.383.456.706.707,1.1l19.526-2.774c.45-.682.836-1.211.582-1.992M248.414,46.694c-1.312.049-16.168,4.579-19.343,5.874a2.364,2.364,0,0,0,.21,1.874c.532-.171,1.022-.315,1.5-.486q3.527-1.259,7.046-2.53,4.617-1.679,9.222-3.383c.612-.227,1.344-.378,1.363-1.348m1.07,57.39c-.074-.3-.052-.618-.2-.725a6.054,6.054,0,0,0-1.433-.844q-7.812-2.943-15.642-5.838c-.377-.14-.771-.239-1.173-.361-.558.642-.343,1.27-.271,1.972q9.03,2.908,18,5.789a2.826,2.826,0,0,0,.713.007M177.853,16.2,198.8,12.536l-.554-.945-19.692,2.467c-.246.756-.452,1.391-.7,2.142m.779,87.6c.143,1.171.9,1.331,1.573,1.579q8.445,3.1,16.891,6.2c.426.156.878.247,1.294.363.467-.819.479-.819.219-1.821L178.632,103.8m20.142-60.448c-1.2.037-18.278,5.47-20.682,6.571a1.905,1.905,0,0,0,.207,1.651c.546-.168,1.087-.306,1.607-.5q6.735-2.486,13.462-4.988c1.464-.543,2.93-1.079,4.39-1.629.526-.2,1.083-.388,1.017-1.107M178.03,48.187l20.763-6.758c.074-.694.238-1.231-.269-1.758-.507.167-1,.314-1.481.491q-4.037,1.48-8.07,2.971c-3.177,1.174-6.356,2.344-9.527,3.536-.606.228-1.358.355-1.417,1.518m52.622,26.829L249.4,78.825c.336-.731-.126-1.35-.552-2-.2-.049-.4-.113-.6-.146-4.846-.788-9.689-1.593-14.541-2.34a18.019,18.019,0,0,0-2.671-.019l-.382.7M228.944,21.1l19.374-3.9a1,1,0,0,0-.067-.345,4.122,4.122,0,0,0-.39-.536c-6.187.688-12.318,1.659-18.527,2.888-.142.687-.266,1.29-.391,1.9m-73.107,80.994c.143.855.9,1.036,1.568,1.292q7.445,2.842,14.9,5.672c.374.142.771.232,1.141.341.637-.614.413-1.25.356-1.843-1.974-.916-16.767-5.406-17.961-5.462m131.416,37.718-19.39-3.565c-.267.693.034,1.245.64,1.946,5.918.878,12.009,1.781,18.111,2.685l.639-1.066M109.454,6.618l20.726-3.392-.614-.954-19.416,2.51c-.681.954-.681.954-.7,1.835M107.4,11.463,92.32,8.855c-.217.552-.384.98-.562,1.436l16.219,3.341c-.223-.834-.384-1.438-.58-2.169m22.673,27.46c-.672.2-1.121.309-1.553.462q-5.083,1.8-10.16,3.619-3.753,1.343-7.5,2.711c-.656.24-1.428.4-1.474,1.308,1.109-.034,20.372-6.292,20.817-6.815-.03-.3-.07-.678-.132-1.284m137.786,67.489c-.146,1.063.519,1.282,1.14,1.5q8.57,2.986,17.15,5.949a4.678,4.678,0,0,0,.9.12,3.593,3.593,0,0,0,.17-.655,7.094,7.094,0,0,0-.07-.865l-19.292-6.047M230.6,104.351c.3,1.225,1.066,1.369,1.729,1.618q7.98,2.989,15.962,5.968c.277.1.567.171.828.249.549-.558.348-1.1.328-1.747L230.6,104.351M107.921,81.1,91.94,77.9a2.249,2.249,0,0,0,.578,2.094l14.8,2.447c.21-.46.4-.883.608-1.338m90.837-6.134c-6.022,1.043-11.892,2.06-17.761,3.08a.184.184,0,0,0-.107.1.918.918,0,0,0-.026.225,14.278,14.278,0,0,0,4.62.3c2.116-.34,4.262-.506,6.389-.792,2.168-.293,4.328-.642,6.376-.949.462-.7.778-1.262.509-1.961M287.3,39.216a10.577,10.577,0,0,0-1.183.254c-.689.242-1.362.525-2.041.791Q276.8,43.12,269.532,45.98c-.56.221-1.25.31-1.416,1.111a1.618,1.618,0,0,0,.594.056c6.227-2.071,12.448-4.155,18.731-6.258l-.138-1.673M107.745,54.58,92.008,49.53c-.087,1.288-.009,1.436,1.19,1.86q6.7,2.363,13.413,4.689a6.951,6.951,0,0,0,1.133.181ZM317.313,71.168,338.8,74.862c-.264-.631-.484-1.158-.748-1.79-5.337-.7-10.624-1.4-15.913-2.079-1.193-.153-2.394-.26-3.594-.358-.452-.037-.969-.12-1.236.532m21.213,67.74-21.56-3.674.661,1.543a205.29,205.29,0,0,0,20.518,2.7l.381-.565m-.637-72.38L322.035,69.98a7.365,7.365,0,0,0,1.012.3,15.817,15.817,0,0,0,5.752.014c.456-.105.927-.149,1.389-.23,2.407-.426,4.813-.855,7.117-1.265a2.426,2.426,0,0,0,.584-2.272M84.012,59.065c.029-.636.069-1.12.07-1.6q.008-5.186,0-10.372c0-4.56.007-9.12-.01-13.68,0-.5.166-1.069-.287-1.557-.746.389-.5,1-.5,1.49-.019,5.562-.011,11.124-.01,16.686,0,2.606-.007,5.211.012,7.817,0,.4-.184.918.717,1.22m23.663-16.885c0-1.273-.031-1.356-1.14-1.75Q99.711,38,92.869,35.613a3.891,3.891,0,0,0-.9-.084,5.361,5.361,0,0,0-.143.816,4.859,4.859,0,0,0,.118.77c5.249,1.691,10.45,3.408,15.736,5.066m121.39,4c1.137-.033,18.094-5.33,19.406-6.077-.051-.408-.109-.863-.181-1.442-.587.17-.983.261-1.362.4q-4.545,1.652-9.082,3.321-3.878,1.431-7.746,2.889c-.454.17-1.022.243-1.034.909M92.282,121.176c3.881.95,15.253,1.72,17.749,1.127A148.541,148.541,0,0,1,91.8,118.762a2.466,2.466,0,0,0,.479,2.414M109.52,50.287c.531-.142.932-.221,1.311-.356q8.912-3.185,17.819-6.386a4.657,4.657,0,0,0,1.122-.52c.193-.137.251-.45.521-.988l-20.98,6.925c.077.491.133.852.207,1.325m88.859,57.939a18.894,18.894,0,0,0-4.731-2.11c-1.6-.625-3.217-1.2-4.826-1.791-1.658-.613-3.312-1.236-4.977-1.835-1.642-.591-3.252-1.276-5.112-1.791-.05.6-.084,1.021-.126,1.52,6.61,2.1,13.118,4.218,19.771,6.007m88.8-2.521c-.176-.736-.81-.854-1.381-1.055q-6.938-2.436-13.874-4.879c-1.264-.444-2.534-.877-4-1.385-.067.579-.112.979-.153,1.336,2.557,1.107,18.209,5.933,19.413,5.982M268.231,50.618c.513-.167.909-.276,1.288-.423q2.693-1.044,5.379-2.105,5.517-2.178,11.03-4.366c.5-.2,1.113-.29,1.36-1.09-.612.163-1.108.264-1.582.424q-7.928,2.661-15.848,5.34a7.549,7.549,0,0,0-1.168.438c-.657.351-.744.7-.459,1.782m-.384,18.5,19.5,3.146-.67-1.564c-6.2-.923-12.294-1.771-18.42-2.244l-.412.662m-228.06-5.9.357,0c.023-.476.067-.951.068-1.427q.007-8.878,0-17.757,0-7.675-.013-15.35c0-.335.2-.788-.414-1.042Zm298.9,46.141c-7.161-2.277-14.162-4.5-21.167-6.727-.033-.012-.1.036-.134.068a1.475,1.475,0,0,0-.144.251c.459.2.908.417,1.374.591q3.958,1.461,7.926,2.9,5.658,2.049,11.326,4.075a3.113,3.113,0,0,0,.672.066c.048-.4.088-.727.148-1.225m-.188-2c-.158-.629-.783-.621-1.232-.786q-7.113-2.611-14.243-5.177c-1.664-.6-3.33-1.208-5-1.788a2.934,2.934,0,0,0-.824-.011v1.021c2.4,1.052,20.2,6.682,21.3,6.741M231.207,134.872a2.641,2.641,0,0,0,.433.166c3.944.515,7.887,1.045,11.834,1.529,1.558.191,3.13.285,4.7.409.392.031.833.088.962-.509l-18.592-3.094.666,1.5M130.244,86.263,109.6,89.076c.227.246.332.452.423.446q9.73-.6,19.381-1.916a1.589,1.589,0,0,0,.372-.2l.467-1.145M174.569,6.387c-6.779.049-13.523.494-20.221,1.181-.383.492-.783.9-.527,1.515,3.5-.458,6.962-.888,10.414-1.367s6.917-.663,10.333-1.329M286.685,21.357a101.763,101.763,0,0,0-18.18,1.545,1.834,1.834,0,0,0-.478,1.609c3.139-.586,6.2-1.2,9.273-1.72,3.119-.527,6.256-.96,9.384-1.435M91.754,103.587c2.717,1.147,15.4,4.883,16.978,4.915l-16.6-6.53a1.484,1.484,0,0,0-.378,1.616M107.279,8.665c-5.009-.7-9.958-1.407-14.954-1.832l-.356.8,15.807,2.552a2.175,2.175,0,0,0-.033-.55c-.108-.28-.257-.547-.463-.973M130.8,88.658a10.112,10.112,0,0,0,1.022.3,122.585,122.585,0,0,0,13.442,1.427c.13.007.27-.139.539-.288a47.976,47.976,0,0,0-14.894-2.367c-.037.32-.064.556-.109.928M109.4,52.19c1.311-.049,18.932-5.75,20.774-6.7-.047-.237-.1-.5-.189-.955-6.711,2.411-13.313,4.781-19.911,7.162a3.391,3.391,0,0,0-.674.492m-17.54-8.124a1.353,1.353,0,0,0,1.029,1.295c.49.174.984.34,1.476.515q6.25,2.243,12.5,4.481a4.424,4.424,0,0,0,.783.121,2.761,2.761,0,0,0,.174-.625,2.671,2.671,0,0,0-.132-.618l-15.833-5.17m245.636-2.9c-3.294.581-19.189,5.822-20.4,6.513l.279,1.139,20.121-7.652m.29,1.1-19.4,7.383c.039.1.079.2.118.307l19.508-6.315c-.074-.455-.132-.81-.226-1.376m-107.091,60.4c2.059.952,17.29,5.8,18.759,5.887-.711-.336-1.091-.548-1.5-.7q-6.93-2.626-13.869-5.234c-.923-.347-1.86-.662-2.8-.97-.121-.04-.288.05-.518.1-.024.291-.049.575-.079.921m56.28,39.151-19.359-2.73.759,1.33c15.546,1.83,17.551,1.993,18.6,1.4m.261-33.878c-1.4-.792-18.2-6.049-19.314-6.06.891.678,17.086,6.487,19.108,6.836.07-.261.141-.528.207-.776M92.391,82.632c5.021.668,9.942,1.352,14.922,1.715l.386-.7L91.748,81.176l.643,1.456M107.92,47.441c-.3-.364-.441-.7-.674-.784q-7.482-2.7-14.983-5.342c-.036-.013-.093.034-.26.1-.049.242-.111.552-.2,1,5.162,1.693,10.248,3.363,15.338,5.022a3.274,3.274,0,0,0,.78.007M178.5,130.078l.629,1.351c4.5.851,16.963,1.759,18.5,1.405L178.5,130.078m68.926-87.462c-.066-.106-.131-.214-.2-.32L229,48.048c.051.465.091.825.149,1.353l18.28-6.785M129.577,1.5l.007-.407c-6.563.348-13.106.936-19.708,1.684L109.4,4c3.487-.473,6.792-.953,10.108-1.363,3.352-.414,6.714-.759,10.072-1.135M355.743,32.6a1.836,1.836,0,0,0-.509,1.676q-.017,8.789-.006,17.575c0,1.753,0,3.506.017,5.258,0,.414-.106.908.572,1.183a5.992,5.992,0,0,0,.18-.879c.242-5.331.089-23.405-.254-24.813M248.374,71.175l-12.29,2.37a7.084,7.084,0,0,0,3.2.647c2.849-.31,5.676-.814,8.5-1.239.374-.571.769-1.035.6-1.778m106-13.223.381,0c.027-.475.073-.951.074-1.425q.017-7.97.019-15.941c0-2.205,0-4.411-.021-6.616,0-.347.162-.823-.461-.984-.079.15-.2.273-.2.4q-.01,12.109.009,24.218c0,.119.129.237.2.356M247.769,15.4c-.019-.116-.037-.23-.056-.346-6.094.366-12.169.9-18.272,1.8-.157.442-.294.833-.467,1.323,3.254-.53,6.323-1.066,9.406-1.522,3.122-.461,6.259-.841,9.389-1.257m87.261,3.284a132.342,132.342,0,0,0-17.4,1.288l-.508,1.393,17.908-2.681M156.724,55.69c.051.12.1.24.154.359L175.2,50.221l-.2-1.132-18.279,6.6m40.025-17q-9.335,3.015-18.707,6.044c.022.386.038.656.053.928,1.23-.078,16.247-5.507,18.653-6.972M130.06,37.174c-1.469.18-18.443,5.666-20.669,6.66.022.189.047.407.072.628a1.733,1.733,0,0,0,.558.036q9.722-3.454,19.436-6.932a3.614,3.614,0,0,0,.6-.392m57.366,42.174,11.269,2.184a1.939,1.939,0,0,0-.622-1.916c-3.467-.618-6.9-1.325-10.647-.268M155.1,105.576c5.484,1.709,10.72,3.359,16.1,4.6l-15.034-5.734-1.066,1.133M197.668,10.9c-6.356.123-12.693.516-19.088,1.214-.189.4-.371.776-.576,1.207L197.668,10.9M180.936,99.615l-.138.177c.524.22,1.04.459,1.573.656q7.312,2.707,14.629,5.4a10.3,10.3,0,0,0,1.191.365c.127.031.286-.063.487-.114v-.9l-17.742-5.583M172.385,34.8l-.118-.31L153.654,40.4c.122.412.2.667.311,1.046l18.42-6.647m26.269,10.541L181.3,51.771c.039.1.078.208.118.312,5.827-1.815,11.634-3.686,17.478-5.634-.089-.409-.149-.683-.241-1.108M108.483,67.088l.1-.05V23.961h-.1ZM337.567,140.4l-20.46-2.573.7,1.068c6.637.757,13.181,1.336,19.758,1.505M92.595,40.782,106.9,45.92c.092-.176.169-.261.176-.351a2.891,2.891,0,0,0-.054-.508c-4.739-1.723-9.487-3.444-14.373-5.133-.024.373-.038.559-.058.853m14.429,10.992c.181-.957-.5-.971-.936-1.128q-6.293-2.286-12.607-4.522a3.509,3.509,0,0,0-.828-.09c-.176.867.5.884.937,1.043q6.227,2.248,12.467,4.459c.279.1.578.143.967.238m0-11.806v-.826c-4.778-1.685-9.487-3.414-14.336-4.976-.187.918.431.957.877,1.114q6.26,2.216,12.527,4.418c.277.1.566.166.932.271m142.289,67.086c.071-.514.108-.78.16-1.154-1.828-.6-3.6-1.189-5.369-1.769-1.829-.6-3.648-1.227-5.492-1.774a22.12,22.12,0,0,0-5.271-1.327l15.972,6.023M92.57,52.633l14.466,5.028c.018-.388.027-.569.039-.836-1.6-.559-3.164-1.11-4.734-1.658q-4.725-1.651-9.459-3.291c-.057-.019-.157.076-.254.127-.012.136-.026.281-.057.629m14.566-19.256L92.66,28.541v.788l14.331,4.855c.056-.308.08-.449.144-.808M92.559,57.647c.082.342.064.59.177.668a3.237,3.237,0,0,0,.842.38q6.452,2.149,12.909,4.282a2.207,2.207,0,0,0,.536.042c.172-.8-.463-.786-.85-.918q-6.287-2.138-12.589-4.233c-.274-.092-.569-.125-1.024-.222M267.728,104.6c5.69,1.821,11.213,3.622,16.789,5.27.033-.1.068-.191.1-.287l-16.664-5.875c-.093.368-.138.548-.226.892m.909-53.179a2.7,2.7,0,0,0,.679-.008c.493-.164.976-.361,1.459-.55q7.263-2.85,14.522-5.706c.484-.191,1.1-.242,1.37-.9-.237-.019-.4-.082-.52-.035q-8.568,3.363-17.125,6.752c-.118.047-.186.208-.386.446m-142.9,50.056c4.793,2.094,9.589,4.239,14.987,4.578-4.947-1.651-9.874-3.359-14.987-4.578M286.894,38.35c-1.394.171-16.211,5.749-17.858,6.66-.146.08-.227.263-.4.48,1.191-.153,16.847-6.251,18.261-7.14m29.462,83.22.1-.032V88.5h-.1ZM286.78,50.014c-2.266.7-4.189,1.568-6.166,2.292-2.007.736-4.01,1.483-6,2.265a48.81,48.81,0,0,0-5.806,2.3c1.316-.105,16.082-5.408,17.62-6.245.1-.056.137-.23.349-.615M106.935,68.224c.068-.11.134-.221.2-.331a2.633,2.633,0,0,0-.547-.406c-2.848-1.135-13.069-4.147-13.964-4.126-.066.669.517.646.928.773q5.742,1.783,11.49,3.548c.627.192,1.262.362,1.892.542m100.9-38.288-.157-.017V61.006h.157Zm-32.525,51.7-8.379,1.237c2.6,1.182,5.187.7,7.828.341l.551-1.578M92.49,23.363c.172.445.179.56.243.613a1.21,1.21,0,0,0,.4.224q6.855,2.156,13.713,4.3c.03.01.086-.042.122-.072s.069-.072.161-.172c-.094-.135-.168-.377-.313-.426-4.657-1.573-9.349-3.038-14.326-4.463m-.2,15.8c.179.075.357.16.541.226q6.752,2.427,13.506,4.849a3.525,3.525,0,0,0,.894.259c.189.014.393-.152.659-.268-1.093-.768-12.441-4.568-15.6-5.067M286.6,33.114c-.052-.1-.1-.206-.158-.309-.432.138-.868.267-1.3.415-2.161.753-4.328,1.491-6.478,2.273q-4.473,1.624-8.919,3.315c-.36.136-.913.15-1.03.917L286.6,33.114m-38.536,10.75-12.29,4.577.113.3c4.2-1.274,8.389-2.575,12.534-3.977a3.683,3.683,0,0,0-.069-.578c-.027-.083-.126-.146-.289-.321M107.23,6.62a126.27,126.27,0,0,0-14.264-.786L107.71,7.522l-.48-.9m-14.5,12.228c.826.667,12.966,4.222,14.322,4.327-.041-.144-.044-.362-.119-.387-4.653-1.564-9.41-2.793-14.2-3.941m14.2,53.986.08-.362a6.618,6.618,0,0,0-.678-.275q-6.752-1.917-13.508-3.819c-.027-.008-.082.056-.116.095a2.016,2.016,0,0,0-.117.214c.12.1.241.284.4.33,4.631,1.322,9.244,2.7,13.934,3.818m179.679-4.093c-7.389-.918-9.306-1.01-10.94-.461l11.509,1.476c-.271-.482-.413-.737-.569-1.015m52.052,36.271c-1.584-.829-12.27-4.245-13.811-4.345l13.5,4.911.31-.565m-8.266,4.541.133-.257c-.336-.131-.67-.267-1.008-.39q-4.992-1.823-9.983-3.641a15.219,15.219,0,0,0-1.627-.552c-.22-.053-.494.1-.943.212a3.481,3.481,0,0,0,.664.482q6.378,2.084,12.763,4.146M105.917,52.067c-1.412-.513-2.822-1.03-4.237-1.537q-4.405-1.576-8.814-3.14c-.372-.133-.791-.4-.986.22.976.62,12.081,4.281,14.037,4.457M249.048,65.9v5.749l.9,1.042c.361-1.783.317-6.583-.089-6.917l-.808.126m116.474-7.884.249-.055q0-12.428,0-24.853c0-.038-.059-.085-.1-.109-.017-.01-.064.03-.142.068Zm-78.248,7.7-6.417,1.433a20.361,20.361,0,0,0,5.961.526c.349-.629.754-1.159.456-1.959M105.9,85.529c.026-.085.052-.171.079-.257L92.01,83.756l.456.852,13.438.921m180.624-29.7L269.516,61.56c2.229-.2,15.562-4.579,17.011-5.731m-43.154,81.651,0-.119-12.456-1.507c.113.9.741.961,1.36,1.009,2.712.21,5.422.431,8.137.608.981.064,1.97.01,2.956.01m94.782-66.253c-1.341-.167-2.626-.365-3.918-.475a6.526,6.526,0,0,0-3.95.36l8.382,1.227-.514-1.112M106.923,18.561c-1.528-1.07-12.837-3.836-14.456-3.71l14.456,3.71m1.714,50.3-.191.058q0,7.294,0,14.59a3.653,3.653,0,0,1-.544,2.448c-.147.19-.073.535-.112.921l.847-.057Zm47.78,59.832,8.442.2.017-.276-9.2-1.2c.286.49.482.827.741,1.274m-49.523-52.1q-6.023-1.534-12.048-3.065c-.651-.165-1.316-.279-1.976-.41-.038-.007-.1.038-.131.074s0,.075,0,.281a129.324,129.324,0,0,0,14.159,3.12M249.669,76c-.352-.671-.576-1.1-.782-1.488a10.9,10.9,0,0,0-5.937.277L249.669,76M130.13,50.676c-.071-.134-.141-.269-.211-.4-3.674,1.259-7.337,2.548-10.917,4.062,3.6-1,7.154-2.151,10.7-3.31.166-.054.286-.23.427-.349m48.558,56.01c-.027.143-.054.288-.082.431,3.386,1.214,6.857,2.176,10.334,3.13-3.123-1.275-6.281-2.453-9.449-3.6a2.156,2.156,0,0,0-.8.042M120.6,89.822c3.027-.132,6.054-.25,9.071-.579l.257-.609c-1.7-.106-8.426.677-9.328,1.188m147.5-45.256a2.656,2.656,0,0,0,.709-.07q4.26-1.665,8.508-3.355c-3.039.442-8.4,2.388-9.217,3.426m19,58.556a105.707,105.707,0,0,0-10.516-3.441c2.09,1.126,9.474,3.615,10.516,3.441m-18.861,38.226c-.032.173-.066.347-.1.52a31,31,0,0,0,5.439.523,21.327,21.327,0,0,0,5.488.082l-10.829-1.125M279.205,30.571c-1.877.072-9.363,2.595-10.266,3.46l10.266-3.46m-176.44,56c-2.411-.365-5.734-.255-6.63.22,3.334.478,5.461.408,6.63-.22M109.77,1.636c.026.086.052.172.078.258l9.127-.847c-2.93-.081-5.843.085-8.756.273-.157.011-.3.206-.449.315m58,98.344a32.387,32.387,0,0,0,5.718,2.186c.077.018.209-.175.564-.491a50.545,50.545,0,0,0-6.282-1.7m33.049-35.992c1.342.485,4.8.444,5.691-.078a31.83,31.83,0,0,0-5.691.078m-.192-32.62c1.727.527,5.152.457,5.759,0ZM221.36,61.686c.007.164.012.327.019.491.972.005,1.948.059,2.917,0,.914-.054,1.9.283,2.733-.379-1.9-.146-3.783-.14-5.669-.115m-.31-1.233A15.614,15.614,0,0,0,227,60.419a17.755,17.755,0,0,0-5.954.034m5.9-28.157a10.372,10.372,0,0,0-5.659,0Zm-20.108-3.849c-.406-.285-.483-.386-.561-.387-1.717-.014-3.433-.022-5.15-.007-.123,0-.244.2-.472.394Zm2.539,3.2c0,.023,0,.046,0,.069h10.24c0-.023,0-.046,0-.069Zm.192,27.685c0,.027-.006.053-.008.079h9.913V59.33ZM219.6,33.85l-.028-.087H209.41v.087Zm-.022,1.184v-.042H209.572c0,.014,0,.028,0,.042Zm.006-2.378c-.011-.029-.022-.057-.034-.086H209.409v.086ZM109.517,38.614c.974.143,4.97-1.156,6.8-2.211a52.78,52.78,0,0,0-6.8,2.211M209.546,54.558v.032h9.692v-.032ZM309.707,61.51a8.863,8.863,0,0,0,5.232,0,48.754,48.754,0,0,0-5.232,0m-.062-2.766c2.527.337,4.527.254,5.221-.153a15,15,0,0,0-5.221.153m-79.075,48.336a20.36,20.36,0,0,0,6.144,1.992c-2.119-1.11-4.957-2.077-6.144-1.992m79.452-72.968h5.211a9.9,9.9,0,0,0-5.211,0m27.9,13.838a17.65,17.65,0,0,0-6.138,2.2c1.976-.56,3.928-1.188,5.873-1.835.113-.037.171-.227.264-.36M229.476,15.881c1.081-.106,2.164-.2,3.243-.322,1.1-.122,2.207-.269,3.674-.449-2.68-.233-5.9.037-6.918.771m-74.751,85.993a5.85,5.85,0,0,0,.032,3.346,3.438,3.438,0,0,0-.032-3.346M73.687,56.026l-.048.089h8.012v-.089Zm-.06.91c.019.028.04.055.062.083H81.6c0-.028,0-.055,0-.083Zm161-15.011a22.463,22.463,0,0,0-5.466,1.9,21.243,21.243,0,0,0,5.466-1.9m75.245-11.183a13.2,13.2,0,0,0,5.131-.049,14.453,14.453,0,0,0-5.131.049m7.852,109c0,.149,0,.3.008.445l6.112.329c0-.058.006-.118.008-.176l-6.128-.6M268.443,21.521c1.642.324,3.206-.252,4.809-.362a11.779,11.779,0,0,0-4.809.362M317.3,43.137a14.173,14.173,0,0,0,4.508-1.559,11.562,11.562,0,0,0-4.508,1.559m-20.592-8.2c0,.028,0,.056,0,.084h6.057v-.084Zm6.121,20c-.017-.029-.034-.057-.051-.087h-6.052c0,.03,0,.058,0,.087ZM154.738,108.475a3.563,3.563,0,0,0,.241,3.011,3.625,3.625,0,0,0-.241-3.011M296.667,56l.047.1h6.049c0-.035,0-.069,0-.1Zm-141.6,39.6a2.762,2.762,0,0,0-.2,2.993,4.805,4.805,0,0,0,.2-2.993m71.9-66.638a15.968,15.968,0,0,0-5.529.117,13.744,13.744,0,0,0,5.529-.117m-26.067.9a18.425,18.425,0,0,0,5.628-.066,16.833,16.833,0,0,0-5.628.066m96.283,23.5v.02h5.162v-.02Zm-158.54,2.068-.068.073h5.081v-.073Zm5.091,1.279v-.075H138.5v.075Zm-.028,2.108.063-.1h-5.308c0,.033,0,.067,0,.1Zm57.33-25.656a13.391,13.391,0,0,0,5.233,0Zm-62.539-.01c0,.025,0,.052,0,.079h5.252c0-.027,0-.053,0-.079Zm83.266,20.12c.016.033.03.066.044.1h4.752l0-.1Zm-15.308-26.29a11.6,11.6,0,0,0-5.841.116c1.926,0,3.52,0,5.114-.005a4.884,4.884,0,0,0,.727-.11m14.861.824h5.5a15.1,15.1,0,0,0-5.5,0M201.33,51.529l.039.052H206l0-.052Zm4.973,6.205.007-.279h-1.862c-.577,0-1.154-.019-1.73.005a2.715,2.715,0,0,0-1.687.274Zm15.5-6.5v.055h4.737c0-.018,0-.037,0-.055Zm-.364-20.8a13.094,13.094,0,0,0,5.519-.015,36.118,36.118,0,0,0-5.519.015M201.05,35.2c.018.051.036.1.052.154h5.181c0-.051,0-.1,0-.154Zm5.329,26a14.46,14.46,0,0,0-5.486.046,30.52,30.52,0,0,0,5.486-.046m-5.468,1.266a12.005,12.005,0,0,0,5.756.13c-.486-.058-.783-.123-1.081-.125-1.558-.011-3.117,0-4.674,0m20.75,1.966c0,.038,0,.075,0,.114h4.991c0-.038,0-.075,0-.114Zm5.119-9.159c0-.046,0-.091,0-.137h-5.2c0,.046,0,.091,0,.137Zm-5.362,3.541a17.864,17.864,0,0,0,5.518-.005,18.547,18.547,0,0,0-5.518.005m.254-21.188c.009.039.017.078.026.117h4.911c0-.039,0-.078,0-.117ZM201.109,65.3l.057.141h5.072c0-.048,0-.095,0-.141Zm-22.093,67.1c.3.71.836.541,1.277.567.52.032,1.042.037,1.563.035.41,0,.821-.032,1.232-.049-.006-.057-.01-.115-.014-.172l-4.058-.381m27.327-72.843a13.609,13.609,0,0,0-5.654,0Zm-5.15-5.96,0,.106h4.941c0-.035,0-.071,0-.106Zm25.592,9.784a14.38,14.38,0,0,0-5.562,0Zm-5.517-6.44a14.83,14.83,0,0,0,5.77,0ZM201.125,25.569c-.016.049-.032.1-.048.147h5.191c0-.049,0-.1,0-.147ZM226.8,33.957l-.03-.278h-1.84c-.57,0-1.139-.011-1.709,0a2.913,2.913,0,0,0-1.626.277Zm-5.053,1.632.017.15H226.7v-.15ZM201.055,55.678c0,.05,0,.1,0,.149h5.228v-.149ZM294.5,31.45c0-.044,0-.087,0-.131H289.6c0,.044,0,.087,0,.131Zm20.465.873a11.631,11.631,0,0,0-5.012.072,27.612,27.612,0,0,0,5.012-.072m-20.578.6v-.113h-4.664c0,.037,0,.074,0,.113Zm-4.681,1.436c0,.024,0,.048,0,.072h4.6c0-.024,0-.048,0-.072Zm4.478,20.529,0-.034h-4.3c0,.011,0,.022,0,.034Zm15.842,1.981a11.089,11.089,0,0,0,5.133,0Zm-20.4,1.239c0,.036,0,.073,0,.109h4.814c0-.036,0-.073,0-.109Zm.164,1.488c0,.031,0,.062,0,.092h4.5c0-.031,0-.062,0-.092Zm24.989.8c.026-.112.051-.223.076-.335-.813-.012-1.63-.062-2.441-.025s-1.68-.246-2.421.36Zm-25.05.426-.057.125h4.775c0-.041,0-.084,0-.125Zm-7.422,57.727a8.906,8.906,0,0,0-3.88-1.256l3.88,1.256M226.49,26.591c0-.022,0-.044,0-.066H222.17c0,.022,0,.044,0,.066ZM294.4,30.213c0-.027,0-.052,0-.079h-4.607l0,.079Zm20.12-2.08c.023-.041.047-.084.069-.126h-4.426v.126ZM310.1,55.086c0,.049,0,.1,0,.147h4.583c0-.049,0-.1,0-.147ZM196.442,78.071c.008.12.017.239.026.359l2.044.185.276-.942-2.346.4M310.205,37.663c0,.031,0,.062,0,.092h4.334l0-.092ZM182.456,10.945a6.768,6.768,0,0,0-3.819.392l3.819-.392M310.238,35.793c0,.065,0,.131,0,.2h4.3c-.006-.065-.01-.131-.016-.2Zm-115,16.59a6.854,6.854,0,0,0,3.316-1.044.864.864,0,0,0-.569.033c-.917.332-1.831.673-2.747,1.011m114.77-23.208a10.085,10.085,0,0,0,4.937,0ZM314.418,51.3c-.017-.019-.033-.037-.049-.056h-3.7c0,.019,0,.037,0,.056ZM310.48,62.927c-.009.042-.019.085-.028.129h4.179v-.129Zm-132.326-23.2a3.613,3.613,0,0,0,2.964-1l-2.964,1M321.178,18.782c-1.961-.374-2.83-.3-3.677.371l3.677-.371m-166.267,98a2.218,2.218,0,0,0-.157-2.166,2.075,2.075,0,0,0,.157,2.166m-.638-110.34a8.974,8.974,0,0,0,3.392-.049,8.368,8.368,0,0,0-3.392.049M143.553,32.318l-.036-.053h-2.922c0,.017,0,.035,0,.053ZM106.8,14.347a3.49,3.49,0,0,0-2.834-.643l2.834.643M76.6,54.869V54.9h2.736v-.027ZM155.19,91.091l-.414-.056a1.281,1.281,0,0,0,.147,1.689q.133-.817.268-1.633m128.7-29.339.077.227,2.381-.707-.09-.272-2.368.752M338,69.517l-1.771.39c0,.065,0,.13,0,.194l1.577.241c.076-.318.116-.486.2-.825M101.95,13.214c0-.088.01-.177.014-.266l-2-.376c-.013.073-.028.147-.041.22l2.027.422M93.281,77.261c-.022.093-.046.187-.068.281l2.083.387.043-.24-2.059-.428m205.651-39.81v-.03h-1.661l0,.03ZM151.387,51.717a1.423,1.423,0,0,0,1.639.156c-.681-.362-.681-.362-1.639-.156m.05-16.595a1.256,1.256,0,0,0,1.628-.025,2.046,2.046,0,0,0-1.628.025M285.061,93.288l.137-.279-2-.661-.087.244,1.947.7M171.924,95.677a2.558,2.558,0,0,0-1.991-.727l1.991.727m101.529-1.188.118-.293a5.969,5.969,0,0,0-2.424-.515l2.307.808m-122-55.338a1.459,1.459,0,0,0,1.683.072c-.6-.368-1.011-.536-1.683-.072m1.486,4.43c-.856-.6-.856-.6-1.353,0Zm.019,4.209c-.477-.556-.936-.795-1.554.075l1.554-.075m96.137,53.831.133-.342a3.468,3.468,0,0,0-2.022-.373l1.889.715m-96.075-70.5a1.584,1.584,0,0,0-1.534.064c.569.449.964.357,1.534-.064m.109,24.628c-.684-.122-1.14-.345-1.634.223a1.382,1.382,0,0,0,1.634-.223m-79.445-.889v.029h1.186v-.029ZM323.553,18.5l0-.051h-1.333l0,.107ZM262.311,42.584l-.054.038v.983h.054ZM151.661,63.263l.03.389,1.116-.193-.03-.2ZM282.616,29.242c.022.072.046.146.069.219l1.464-.438-.067-.212-1.467.431m-130.477,44.2.22.45.673-.046c0-.761-.3-.769-.893-.4m129.251,69.3v.051h.922v-.051Zm-19.1-90.43h-.027v.836h.027Zm-107.618,68.43.309-.069-.187-.836-.262.047.14.858m43.621-20.21.176-.256-1.237-.388-.07.18,1.131.464m80.973,21.928.07-.182-1.126-.377c-.02.054-.04.107-.059.16l1.114.4m-185.495.014a1.7,1.7,0,0,0-1.888,0Zm168.5-88.548a.838.838,0,0,0,.037-.154c0-.19,0-.38,0-.57,0-.018-.028-.034-.042-.051-.01.187-.026.374-.03.561a1.266,1.266,0,0,0,.037.215M78.14,33.793l.041.033h.742v-.033ZM152.89,59.63h-1.441c.569.594.977.313,1.441,0M301.514,37.394l0,.031h.906v-.031ZM93.151,108.866l.134-.2c-.369-.119-.736-.241-1.108-.348-.022-.006-.082.107-.154.205.393.12.76.232,1.128.342M126.227,56.34c.019.052.039.1.059.155.176-.048.358-.083.528-.147s.324-.158.487-.24l-.1-.175-.976.407m36.729-3.525c-.017-.052-.032-.1-.048-.157a3.843,3.843,0,0,0-.546.116,4.694,4.694,0,0,0-.537.274l.1.173,1.033-.406m73.825-.4c.02.059.04.119.061.178.344-.107.691-.211,1.032-.329.027-.01.016-.117.032-.271l-1.126.422m-67.066,4.527c.023.059.047.12.069.181l1.06-.383-.07-.183-1.059.386m-47.093-4.724c-.014-.052-.029-.1-.044-.156a3.233,3.233,0,0,0-.561.1,3.925,3.925,0,0,0-.538.285c.036.061.071.121.108.182l1.036-.406m60.447,43.744.07-.206-1.094-.356c-.022.066-.044.132-.068.2l1.092.364M123.861,57.333c-.041-.062-.084-.124-.127-.186l-.916.389c.027.059.053.12.079.18l.963-.382m61.677,39.244c-.037.068-.072.137-.108.205a5.77,5.77,0,0,0,.691.3,1.282,1.282,0,0,0,.431-.028,2.364,2.364,0,0,0-.339-.223c-.219-.1-.45-.17-.676-.253m3.492,1.5.077-.257-1.082-.315-.063.225,1.069.347m2.578.9c.023-.07.048-.141.071-.212l-1.184-.373c-.023.071-.047.142-.071.214l1.184.372M217.33,58.208V58.2h-.491v.013Zm44.94,3.7h.023v-.574l-.023,0ZM156.78,54.831c.017.052.034.1.051.156a4.485,4.485,0,0,0,.521-.13c.181-.067.35-.166.524-.251l-.1-.169-1,.393m-41.915-5.7.09.191,1.014-.414c-.031-.066-.061-.132-.091-.2l-1.013.421m10.319,2.185c-.021-.061-.042-.12-.063-.182-.344.11-.691.218-1.031.339-.028.01-.018.117-.036.271l1.13-.428M153,75.464c-.261-.492-.52-.679-.868,0ZM113.5,49.867l-.087-.246-1.074.39.06.18,1.1-.323m119.411-11.5c-.016-.052-.032-.1-.048-.156a4.142,4.142,0,0,0-.541.119,4.965,4.965,0,0,0-.534.266l.1.175,1.022-.4M165.29,37.99l.057.16a3.707,3.707,0,0,0,.56-.123,3.568,3.568,0,0,0,.5-.28c-.037-.061-.074-.121-.11-.181l-1,.424m68.986-.344.139.211.988-.4-.07-.175-1.057.363M126.515,50.613l.172.2.981-.417c-.028-.061-.056-.121-.082-.182l-1.071.4M116.347,37.48l-.063-.18-1.1.356c.026.069.048.137.072.205l1.091-.381m120.461-.714.05.156a4.76,4.76,0,0,0,.524-.127,5.487,5.487,0,0,0,.526-.251l-.1-.17-1,.392m-117.945-.2-.17-.2-.973.411.081.178,1.062-.39m121.624-.9c-.02-.058-.04-.116-.061-.173l-1.058.348.067.194,1.052-.37m-118.179-.318-.047-.155a4.012,4.012,0,0,0-.54.121,5.049,5.049,0,0,0-.536.261l.092.168,1.03-.4m36.229-1.5c-.023-.059-.047-.119-.071-.178l-1.026.386c.024.059.048.119.071.178l1.026-.386M123.593,46.182c-.02-.054-.039-.108-.059-.161a4.631,4.631,0,0,0-.558.138,4.45,4.45,0,0,0-.507.262c.034.062.07.123.1.184l1.019-.423m37.336-13.339c.032.064.066.127.1.191l.934-.392-.077-.172-.957.373m19.851,79.087c-.021.085-.042.17-.064.255l1.058.313.07-.21-1.063-.358m-65.861-79.68.07.172,1-.38-.072-.177-1,.386m68.437,80.583-.131.237,1.107.352.067-.182-1.042-.407M169.594,50.407c-.017-.053-.032-.105-.048-.158a3.494,3.494,0,0,0-.56.109,4.41,4.41,0,0,0-.547.284l.1.175,1.057-.41m17.266,63.637c-.056.052-.11.105-.164.158a3.074,3.074,0,0,0,.522.272,2.985,2.985,0,0,0,.573.067l.02-.131-.951-.366M152.247,28.414l.033.383.767-.168c-.017-.089-.034-.18-.052-.269l-.748.053m.84-3c-.454-.532-.454-.532-.933,0ZM114.1,55.215c-.014-.05-.029-.1-.044-.15a3.171,3.171,0,0,0-.536.1,3.925,3.925,0,0,0-.519.28l.093.16,1.006-.393M128.67,44.388c-.02-.062-.04-.124-.061-.186-.344.112-.69.221-1.03.343-.029.011-.02.116-.04.269l1.131-.426m23.036,22.244.031.322.5-.124c-.01-.066-.023-.132-.036-.2ZM113.278,43.986c.02.059.041.119.063.18.342-.11.687-.217,1.026-.337.028-.01.018-.117.037-.273l-1.126.43m134.134-.5c-.024-.067-.05-.135-.076-.2l-1.121.4c.026.067.05.135.076.2l1.121-.4M153.047,22.455l-.1-.536-.748.119-.013.258.864.159m-.822-3.1c.331.567.623.672.889,0Zm-.18-2.136c.449.6.719.651,1.143,0Zm124.33,104.063-.167.186,1.047.357c.02-.05.04-.1.059-.152l-.939-.391M124.969,45.451c.029.081.059.161.089.241l1.069-.4-.063-.18-1.094.34M152.241,15.5c0,.125.007.25.011.375l.779-.1c-.01-.091-.019-.182-.028-.273ZM106.032,5.449v.084h.883c0-.028,0-.056,0-.084Zm46.973,63.517c-.007-.135-.012-.27-.019-.4l-.782.122.03.283ZM117,42.88c-.022-.061-.044-.12-.069-.181-.348.12-.7.238-1.04.366a1.441,1.441,0,0,0,.057.242L117,42.88m-5.033,1.842-.073-.215-1.148.368c.024.07.048.141.072.211l1.149-.364m4.689,9.595c-.016-.051-.031-.1-.046-.153a3.3,3.3,0,0,0-.539.107,4.062,4.062,0,0,0-.524.28c.031.053.061.107.092.16l1.017-.4m56.73,1.518-.167-.2-.95.408c.026.058.052.116.079.173l1.038-.382M118.329,42.183c.026.064.051.129.076.192l1.083-.4-.073-.188-1.086.394m127.62,12.036.06.172,1.073-.345-.073-.2-1.06.377m-13.054-.2c-.017-.05-.032-.1-.049-.152a4.135,4.135,0,0,0-.528.126,5.157,5.157,0,0,0-.528.262l.094.17,1.01-.407M152.2,71.261c.047.134.092.268.139.4l.737-.274c-.031-.1-.063-.193-.094-.291l-.781.164M122.01,41.086l-.078-.2-1.089.4c.026.067.052.133.078.2l1.089-.4m36.6-.725c.023.068.048.136.071.2L159.8,40.2c-.026-.071-.05-.142-.074-.214l-1.111.375m-35.222.031c.028.061.056.122.084.183l1.027-.407c-.03-.066-.06-.132-.089-.2l-1.022.423m119.619-.506-.146-.227-.994.43.083.187,1.057-.39M160.463,53.722c-.057-.067-.113-.133-.169-.2l-.962.411.078.176,1.053-.388M125.879,39.455l.148.227,1.03-.413c-.023-.062-.048-.122-.071-.184l-1.107.37M229.027,74.571c.291.443.411.853.991.5.036-.575-.344-.56-.991-.5" transform="translate(0 0)" fill="#12263f"/>
        <path id="Trazado_897985" data-name="Trazado 897985" d="M234.839,15.687c.156.36.29.526.29.691q0,28.141-.029,56.282c0,.105-.163.209-.428.528a7.151,7.151,0,0,1-.262-1.234c-.024-2.207-.022-4.414-.022-6.622q0-23.855.013-47.708a2.381,2.381,0,0,1,.438-1.937" transform="translate(26.042 0.976)" fill="#12263f"/>
        <path id="Trazado_897986" data-name="Trazado 897986" d="M234.275,15.94V73.081c-.7-.527-.5-1.1-.5-1.591-.016-3.512,0-7.023,0-10.535q0-21.672.006-43.344a3.722,3.722,0,0,1,.157-1.692l.346.021" transform="translate(25.972 0.99)" fill="#12263f"/>
      </g>
    </g>
    <path id="Trazado_899638" data-name="Trazado 899638" d="M6.781-4.6H2.468v3.527H7.479V0H1.155V-9.953H7.41V-8.88H2.468v3.206H6.781ZM10.22-7.4V.854q0,2.133-1.935,2.133a2.36,2.36,0,0,1-.772-.122V1.859a2.445,2.445,0,0,0,.574.055.859.859,0,0,0,.646-.229,1.133,1.133,0,0,0,.222-.8V-7.4ZM8.825-9.358a.758.758,0,0,1,.188-.516.691.691,0,0,1,.55-.215.717.717,0,0,1,.561.212.747.747,0,0,1,.191.52.722.722,0,0,1-.191.513.73.73,0,0,1-.561.205.707.707,0,0,1-.554-.205A.738.738,0,0,1,8.825-9.358Zm6.5,9.5a3.232,3.232,0,0,1-2.447-.988,3.666,3.666,0,0,1-.943-2.642v-.232a4.438,4.438,0,0,1,.42-1.965,3.28,3.28,0,0,1,1.176-1.354,2.956,2.956,0,0,1,1.637-.489,2.77,2.77,0,0,1,2.242.95,4.114,4.114,0,0,1,.8,2.721v.526H13.2a2.629,2.629,0,0,0,.639,1.767A2.009,2.009,0,0,0,15.395-.9a2.2,2.2,0,0,0,1.135-.273,2.851,2.851,0,0,0,.813-.725l.772.6A3.106,3.106,0,0,1,15.326.137Zm-.157-6.631a1.687,1.687,0,0,0-1.285.557,2.708,2.708,0,0,0-.643,1.562h3.705v-.1a2.409,2.409,0,0,0-.52-1.494A1.588,1.588,0,0,0,15.169-6.494ZM29.388-3.616A4.429,4.429,0,0,1,28.615-.9,2.476,2.476,0,0,1,26.523.137,2.713,2.713,0,0,1,24.4-.718V2.844H23.14V-7.4h1.155l.062.82A2.605,2.605,0,0,1,26.5-7.533a2.522,2.522,0,0,1,2.109,1,4.477,4.477,0,0,1,.776,2.8ZM28.123-3.76a3.268,3.268,0,0,0-.533-1.976,1.718,1.718,0,0,0-1.463-.725A1.859,1.859,0,0,0,24.4-5.441v3.534A1.863,1.863,0,0,0,26.141-.9a1.71,1.71,0,0,0,1.446-.721A3.567,3.567,0,0,0,28.123-3.76Zm6.446-2.5a3.79,3.79,0,0,0-.622-.048,1.667,1.667,0,0,0-1.688,1.06V0H30.994V-7.4h1.23l.021.854a1.969,1.969,0,0,1,1.764-.991,1.292,1.292,0,0,1,.561.1ZM37.105,0H35.841V-7.4h1.265ZM35.738-9.358a.755.755,0,0,1,.188-.52.706.706,0,0,1,.557-.212.717.717,0,0,1,.561.212.747.747,0,0,1,.191.52.722.722,0,0,1-.191.513.73.73,0,0,1-.561.205.718.718,0,0,1-.557-.205A.73.73,0,0,1,35.738-9.358ZM40.318-7.4l.034.82a2.732,2.732,0,0,1,2.194-.957,2.115,2.115,0,0,1,2.112,1.189,2.8,2.8,0,0,1,.96-.861,2.837,2.837,0,0,1,1.4-.328q2.434,0,2.475,2.577V0H48.228V-4.881a1.7,1.7,0,0,0-.362-1.186,1.6,1.6,0,0,0-1.217-.393,1.677,1.677,0,0,0-1.169.42,1.706,1.706,0,0,0-.54,1.131V0H43.668V-4.847A1.411,1.411,0,0,0,42.089-6.46a1.692,1.692,0,0,0-1.7,1.06V0H39.122V-7.4ZM55.966,0a2.657,2.657,0,0,1-.178-.779,2.822,2.822,0,0,1-2.105.916,2.611,2.611,0,0,1-1.794-.619,2,2,0,0,1-.7-1.569,2.091,2.091,0,0,1,.878-1.794,4.142,4.142,0,0,1,2.471-.639h1.23v-.581a1.42,1.42,0,0,0-.4-1.056A1.593,1.593,0,0,0,54.2-6.515a1.844,1.844,0,0,0-1.135.342,1.007,1.007,0,0,0-.458.827H51.338a1.745,1.745,0,0,1,.393-1.07A2.683,2.683,0,0,1,52.8-7.232a3.588,3.588,0,0,1,1.48-.3,2.924,2.924,0,0,1,2,.639,2.306,2.306,0,0,1,.752,1.76v3.4a4.162,4.162,0,0,0,.26,1.62V0Zm-2.1-.964A2.223,2.223,0,0,0,55-1.271a1.861,1.861,0,0,0,.772-.8V-3.589h-.991q-2.324,0-2.324,1.36a1.151,1.151,0,0,0,.4.93A1.524,1.524,0,0,0,53.867-.964Zm8.723-5.3a3.79,3.79,0,0,0-.622-.048,1.667,1.667,0,0,0-1.688,1.06V0H59.015V-7.4h1.23l.021.854a1.969,1.969,0,0,1,1.764-.991,1.292,1.292,0,0,1,.561.1ZM65.126,0H63.861V-7.4h1.265ZM63.759-9.358a.755.755,0,0,1,.188-.52.706.706,0,0,1,.557-.212.717.717,0,0,1,.561.212.747.747,0,0,1,.191.52.722.722,0,0,1-.191.513.73.73,0,0,1-.561.205.718.718,0,0,1-.557-.205A.73.73,0,0,1,63.759-9.358Zm3.056,5.592a4.369,4.369,0,0,1,.427-1.955,3.187,3.187,0,0,1,1.189-1.34,3.238,3.238,0,0,1,1.74-.472,3.119,3.119,0,0,1,2.444,1.046,4.024,4.024,0,0,1,.933,2.782v.089a4.407,4.407,0,0,1-.414,1.938A3.14,3.14,0,0,1,71.952-.342a3.275,3.275,0,0,1-1.767.479A3.111,3.111,0,0,1,67.748-.909a4,4,0,0,1-.933-2.769Zm1.271.15a3.164,3.164,0,0,0,.571,1.976A1.827,1.827,0,0,0,70.185-.9a1.816,1.816,0,0,0,1.531-.755,3.46,3.46,0,0,0,.567-2.116,3.159,3.159,0,0,0-.578-1.972,1.836,1.836,0,0,0-1.535-.755,1.816,1.816,0,0,0-1.511.745A3.434,3.434,0,0,0,68.086-3.616Z" transform="translate(346.949 1799.5)" fill="#12263f"/>
    <path id="Trazado_899640" data-name="Trazado 899640" d="M6.781-4.6H2.468v3.527H7.479V0H1.155V-9.953H7.41V-8.88H2.468v3.206H6.781ZM10.22-7.4V.854q0,2.133-1.935,2.133a2.36,2.36,0,0,1-.772-.122V1.859a2.445,2.445,0,0,0,.574.055.859.859,0,0,0,.646-.229,1.133,1.133,0,0,0,.222-.8V-7.4ZM8.825-9.358a.758.758,0,0,1,.188-.516.691.691,0,0,1,.55-.215.717.717,0,0,1,.561.212.747.747,0,0,1,.191.52.722.722,0,0,1-.191.513.73.73,0,0,1-.561.205.707.707,0,0,1-.554-.205A.738.738,0,0,1,8.825-9.358Zm6.5,9.5a3.232,3.232,0,0,1-2.447-.988,3.666,3.666,0,0,1-.943-2.642v-.232a4.438,4.438,0,0,1,.42-1.965,3.28,3.28,0,0,1,1.176-1.354,2.956,2.956,0,0,1,1.637-.489,2.77,2.77,0,0,1,2.242.95,4.114,4.114,0,0,1,.8,2.721v.526H13.2a2.629,2.629,0,0,0,.639,1.767A2.009,2.009,0,0,0,15.395-.9a2.2,2.2,0,0,0,1.135-.273,2.851,2.851,0,0,0,.813-.725l.772.6A3.106,3.106,0,0,1,15.326.137Zm-.157-6.631a1.687,1.687,0,0,0-1.285.557,2.708,2.708,0,0,0-.643,1.562h3.705v-.1a2.409,2.409,0,0,0-.52-1.494A1.588,1.588,0,0,0,15.169-6.494ZM24.514,0H23.249V-7.4h1.265ZM23.146-9.358a.755.755,0,0,1,.188-.52.706.706,0,0,1,.557-.212.717.717,0,0,1,.561.212.747.747,0,0,1,.191.52.722.722,0,0,1-.191.513.73.73,0,0,1-.561.205.718.718,0,0,1-.557-.205A.73.73,0,0,1,23.146-9.358ZM27.733-7.4l.041.93a2.7,2.7,0,0,1,2.215-1.066q2.345,0,2.365,2.646V0H31.09V-4.895a1.7,1.7,0,0,0-.366-1.183,1.466,1.466,0,0,0-1.118-.383,1.825,1.825,0,0,0-1.08.328,2.228,2.228,0,0,0-.725.861V0H26.537V-7.4Zm8.244-1.791V-7.4h1.381v.978H35.978v4.593a1.027,1.027,0,0,0,.185.667.777.777,0,0,0,.629.222,3.062,3.062,0,0,0,.6-.082V0a3.688,3.688,0,0,1-.971.136,1.575,1.575,0,0,1-1.278-.513,2.2,2.2,0,0,1-.431-1.456V-6.419H33.366V-7.4h1.347V-9.187ZM41.9.137a3.232,3.232,0,0,1-2.447-.988,3.666,3.666,0,0,1-.943-2.642v-.232a4.438,4.438,0,0,1,.42-1.965A3.28,3.28,0,0,1,40.11-7.044a2.956,2.956,0,0,1,1.637-.489,2.77,2.77,0,0,1,2.242.95,4.114,4.114,0,0,1,.8,2.721v.526H39.778a2.629,2.629,0,0,0,.639,1.767A2.009,2.009,0,0,0,41.973-.9a2.2,2.2,0,0,0,1.135-.273,2.851,2.851,0,0,0,.813-.725l.772.6A3.106,3.106,0,0,1,41.9.137Zm-.157-6.631a1.687,1.687,0,0,0-1.285.557,2.708,2.708,0,0,0-.643,1.562h3.705v-.1A2.409,2.409,0,0,0,43-5.964,1.588,1.588,0,0,0,41.747-6.494Zm8.08.232a3.79,3.79,0,0,0-.622-.048,1.667,1.667,0,0,0-1.688,1.06V0H46.252V-7.4h1.23l.021.854a1.969,1.969,0,0,1,1.764-.991,1.292,1.292,0,0,1,.561.1ZM52.179-7.4l.034.82a2.732,2.732,0,0,1,2.194-.957A2.115,2.115,0,0,1,56.52-6.344a2.8,2.8,0,0,1,.96-.861,2.837,2.837,0,0,1,1.4-.328q2.434,0,2.475,2.577V0H60.088V-4.881a1.7,1.7,0,0,0-.362-1.186,1.6,1.6,0,0,0-1.217-.393,1.677,1.677,0,0,0-1.169.42,1.706,1.706,0,0,0-.54,1.131V0H55.528V-4.847A1.411,1.411,0,0,0,53.949-6.46a1.692,1.692,0,0,0-1.7,1.06V0H50.982V-7.4ZM66.329.137a3.232,3.232,0,0,1-2.447-.988,3.666,3.666,0,0,1-.943-2.642v-.232a4.438,4.438,0,0,1,.42-1.965,3.28,3.28,0,0,1,1.176-1.354,2.956,2.956,0,0,1,1.637-.489,2.77,2.77,0,0,1,2.242.95,4.114,4.114,0,0,1,.8,2.721v.526H64.2a2.629,2.629,0,0,0,.639,1.767A2.009,2.009,0,0,0,66.4-.9a2.2,2.2,0,0,0,1.135-.273,2.851,2.851,0,0,0,.813-.725l.772.6A3.106,3.106,0,0,1,66.329.137Zm-.157-6.631a1.687,1.687,0,0,0-1.285.557,2.708,2.708,0,0,0-.643,1.562h3.705v-.1a2.409,2.409,0,0,0-.52-1.494A1.588,1.588,0,0,0,66.172-6.494Zm4.2,2.734A4.333,4.333,0,0,1,71.176-6.5a2.551,2.551,0,0,1,2.112-1.036,2.565,2.565,0,0,1,2.058.889V-10.5H76.61V0H75.448l-.062-.793a2.575,2.575,0,0,1-2.112.93,2.526,2.526,0,0,1-2.1-1.053,4.382,4.382,0,0,1-.81-2.748Zm1.265.144a3.281,3.281,0,0,0,.52,1.969,1.68,1.68,0,0,0,1.436.711,1.845,1.845,0,0,0,1.757-1.08v-3.4A1.859,1.859,0,0,0,73.6-6.46a1.687,1.687,0,0,0-1.449.718A3.612,3.612,0,0,0,71.634-3.616ZM79.946,0H78.682V-7.4h1.265ZM78.579-9.358a.755.755,0,0,1,.188-.52.706.706,0,0,1,.557-.212.717.717,0,0,1,.561.212.747.747,0,0,1,.191.52.722.722,0,0,1-.191.513.73.73,0,0,1-.561.205.718.718,0,0,1-.557-.205A.73.73,0,0,1,78.579-9.358Zm3.056,5.592a4.369,4.369,0,0,1,.427-1.955,3.187,3.187,0,0,1,1.189-1.34,3.238,3.238,0,0,1,1.74-.472,3.119,3.119,0,0,1,2.444,1.046,4.024,4.024,0,0,1,.933,2.782v.089a4.407,4.407,0,0,1-.414,1.938A3.14,3.14,0,0,1,86.772-.342,3.275,3.275,0,0,1,85,.137,3.111,3.111,0,0,1,82.568-.909a4,4,0,0,1-.933-2.769Zm1.271.15a3.164,3.164,0,0,0,.571,1.976A1.827,1.827,0,0,0,85-.9a1.816,1.816,0,0,0,1.531-.755A3.46,3.46,0,0,0,87.1-3.767a3.159,3.159,0,0,0-.578-1.972,1.836,1.836,0,0,0-1.535-.755,1.816,1.816,0,0,0-1.511.745A3.434,3.434,0,0,0,82.906-3.616Z" transform="translate(449.328 1988.263)" fill="#12263f"/>
    <path id="Trazado_899639" data-name="Trazado 899639" d="M6.781-4.6H2.468v3.527H7.479V0H1.155V-9.953H7.41V-8.88H2.468v3.206H6.781ZM10.22-7.4V.854q0,2.133-1.935,2.133a2.36,2.36,0,0,1-.772-.122V1.859a2.445,2.445,0,0,0,.574.055.859.859,0,0,0,.646-.229,1.133,1.133,0,0,0,.222-.8V-7.4ZM8.825-9.358a.758.758,0,0,1,.188-.516.691.691,0,0,1,.55-.215.717.717,0,0,1,.561.212.747.747,0,0,1,.191.52.722.722,0,0,1-.191.513.73.73,0,0,1-.561.205.707.707,0,0,1-.554-.205A.738.738,0,0,1,8.825-9.358Zm6.5,9.5a3.232,3.232,0,0,1-2.447-.988,3.666,3.666,0,0,1-.943-2.642v-.232a4.438,4.438,0,0,1,.42-1.965,3.28,3.28,0,0,1,1.176-1.354,2.956,2.956,0,0,1,1.637-.489,2.77,2.77,0,0,1,2.242.95,4.114,4.114,0,0,1,.8,2.721v.526H13.2a2.629,2.629,0,0,0,.639,1.767A2.009,2.009,0,0,0,15.395-.9a2.2,2.2,0,0,0,1.135-.273,2.851,2.851,0,0,0,.813-.725l.772.6A3.106,3.106,0,0,1,15.326.137Zm-.157-6.631a1.687,1.687,0,0,0-1.285.557,2.708,2.708,0,0,0-.643,1.562h3.705v-.1a2.409,2.409,0,0,0-.52-1.494A1.588,1.588,0,0,0,15.169-6.494ZM27.446-1.962a.931.931,0,0,0-.386-.8,3.718,3.718,0,0,0-1.347-.489,6.367,6.367,0,0,1-1.524-.492,2.169,2.169,0,0,1-.834-.684,1.635,1.635,0,0,1-.27-.943A1.919,1.919,0,0,1,23.854-6.9a3,3,0,0,1,1.965-.629,3.091,3.091,0,0,1,2.041.649,2.063,2.063,0,0,1,.783,1.661H27.371a1.142,1.142,0,0,0-.441-.9,1.652,1.652,0,0,0-1.111-.376,1.729,1.729,0,0,0-1.08.3.947.947,0,0,0-.39.786.767.767,0,0,0,.362.69,4.458,4.458,0,0,0,1.309.444,6.821,6.821,0,0,1,1.535.506,2.239,2.239,0,0,1,.872.708,1.74,1.74,0,0,1,.284,1.008,1.893,1.893,0,0,1-.793,1.589,3.326,3.326,0,0,1-2.058.6,3.725,3.725,0,0,1-1.572-.314,2.557,2.557,0,0,1-1.07-.878,2.117,2.117,0,0,1-.386-1.22H24.1a1.309,1.309,0,0,0,.509,1.008A1.976,1.976,0,0,0,25.86-.9a2.039,2.039,0,0,0,1.152-.291A.893.893,0,0,0,27.446-1.962Zm5.981,2.1A3.232,3.232,0,0,1,30.98-.851a3.666,3.666,0,0,1-.943-2.642v-.232a4.438,4.438,0,0,1,.42-1.965,3.28,3.28,0,0,1,1.176-1.354,2.956,2.956,0,0,1,1.637-.489,2.77,2.77,0,0,1,2.242.95,4.114,4.114,0,0,1,.8,2.721v.526H31.3a2.629,2.629,0,0,0,.639,1.767A2.009,2.009,0,0,0,33.5-.9a2.2,2.2,0,0,0,1.135-.273,2.851,2.851,0,0,0,.813-.725l.772.6A3.106,3.106,0,0,1,33.428.137Zm-.157-6.631a1.687,1.687,0,0,0-1.285.557,2.708,2.708,0,0,0-.643,1.562h3.705v-.1a2.409,2.409,0,0,0-.52-1.494A1.588,1.588,0,0,0,33.271-6.494ZM40.742-.9a1.822,1.822,0,0,0,1.183-.41,1.443,1.443,0,0,0,.561-1.025h1.2a2.293,2.293,0,0,1-.437,1.21,2.881,2.881,0,0,1-1.077.916,3.107,3.107,0,0,1-1.425.342,3.047,3.047,0,0,1-2.4-1.008,4.016,4.016,0,0,1-.892-2.758v-.212a4.453,4.453,0,0,1,.4-1.921,3.02,3.02,0,0,1,1.138-1.306,3.233,3.233,0,0,1,1.753-.465,2.966,2.966,0,0,1,2.068.745,2.663,2.663,0,0,1,.878,1.935h-1.2a1.743,1.743,0,0,0-.543-1.179,1.691,1.691,0,0,0-1.207-.461,1.77,1.77,0,0,0-1.494.694,3.259,3.259,0,0,0-.53,2.006v.239a3.194,3.194,0,0,0,.526,1.969A1.779,1.779,0,0,0,40.742-.9Zm8.928.164A2.686,2.686,0,0,1,47.5.137,2.3,2.3,0,0,1,45.7-.55a2.974,2.974,0,0,1-.625-2.034V-7.4h1.265v4.778q0,1.682,1.367,1.682a1.893,1.893,0,0,0,1.928-1.08V-7.4H50.9V0H49.7ZM54.018-7.4l.041.93a2.7,2.7,0,0,1,2.215-1.066q2.345,0,2.365,2.646V0H57.374V-4.895a1.7,1.7,0,0,0-.366-1.183,1.466,1.466,0,0,0-1.118-.383,1.825,1.825,0,0,0-1.08.328,2.228,2.228,0,0,0-.725.861V0H52.821V-7.4ZM60.238-3.76A4.333,4.333,0,0,1,61.045-6.5a2.551,2.551,0,0,1,2.112-1.036,2.565,2.565,0,0,1,2.058.889V-10.5h1.265V0H65.317l-.062-.793a2.575,2.575,0,0,1-2.112.93,2.526,2.526,0,0,1-2.1-1.053,4.382,4.382,0,0,1-.81-2.748Zm1.265.144a3.281,3.281,0,0,0,.52,1.969,1.68,1.68,0,0,0,1.436.711,1.845,1.845,0,0,0,1.757-1.08v-3.4A1.859,1.859,0,0,0,63.472-6.46a1.687,1.687,0,0,0-1.449.718A3.612,3.612,0,0,0,61.5-3.616ZM73.008,0a2.657,2.657,0,0,1-.178-.779,2.822,2.822,0,0,1-2.105.916A2.611,2.611,0,0,1,68.93-.482a2,2,0,0,1-.7-1.569,2.091,2.091,0,0,1,.878-1.794,4.141,4.141,0,0,1,2.471-.639h1.23v-.581a1.42,1.42,0,0,0-.4-1.056,1.593,1.593,0,0,0-1.169-.393,1.844,1.844,0,0,0-1.135.342,1.007,1.007,0,0,0-.458.827H68.38a1.745,1.745,0,0,1,.393-1.07,2.683,2.683,0,0,1,1.066-.817,3.588,3.588,0,0,1,1.48-.3,2.924,2.924,0,0,1,2,.639,2.306,2.306,0,0,1,.752,1.76v3.4a4.162,4.162,0,0,0,.26,1.62V0Zm-2.1-.964a2.223,2.223,0,0,0,1.128-.308,1.861,1.861,0,0,0,.772-.8V-3.589h-.991q-2.324,0-2.324,1.36a1.151,1.151,0,0,0,.4.93A1.524,1.524,0,0,0,70.909-.964Zm8.723-5.3a3.79,3.79,0,0,0-.622-.048,1.667,1.667,0,0,0-1.688,1.06V0H76.057V-7.4h1.23l.021.854a1.969,1.969,0,0,1,1.764-.991,1.292,1.292,0,0,1,.561.1ZM82.168,0H80.9V-7.4h1.265ZM80.8-9.358a.755.755,0,0,1,.188-.52.706.706,0,0,1,.557-.212.717.717,0,0,1,.561.212.747.747,0,0,1,.191.52.722.722,0,0,1-.191.513.73.73,0,0,1-.561.205.718.718,0,0,1-.557-.205A.73.73,0,0,1,80.8-9.358Zm3.056,5.592a4.369,4.369,0,0,1,.427-1.955,3.187,3.187,0,0,1,1.189-1.34,3.238,3.238,0,0,1,1.74-.472,3.119,3.119,0,0,1,2.444,1.046,4.024,4.024,0,0,1,.933,2.782v.089a4.407,4.407,0,0,1-.414,1.938A3.14,3.14,0,0,1,88.994-.342a3.275,3.275,0,0,1-1.767.479A3.111,3.111,0,0,1,84.79-.909a4,4,0,0,1-.933-2.769Zm1.271.15A3.164,3.164,0,0,0,85.7-1.641,1.827,1.827,0,0,0,87.227-.9a1.816,1.816,0,0,0,1.531-.755,3.46,3.46,0,0,0,.567-2.116,3.159,3.159,0,0,0-.578-1.972,1.836,1.836,0,0,0-1.535-.755,1.816,1.816,0,0,0-1.511.745A3.434,3.434,0,0,0,85.128-3.616Z" transform="translate(692.898 1815.5)" fill="#12263f"/>
    <g id="Grupo_1108220" data-name="Grupo 1108220" transform="translate(384.051 1803.737)">
      <circle id="Elipse_11492" data-name="Elipse 11492" cx="5.5" cy="5.5" r="5.5" transform="translate(0 35.263)" fill="#ff8c16"/>
      <line id="Línea_563" data-name="Línea 563" y1="42.263" transform="translate(5.5)" fill="none" stroke="#ff8c16" stroke-width="2"/>
    </g>
    <g id="Grupo_1108221" data-name="Grupo 1108221" transform="translate(489.267 1926)">
      <circle id="Elipse_11492-2" data-name="Elipse 11492" cx="5.5" cy="5.5" r="5.5" fill="#ff8c16"/>
      <line id="Línea_563-2" data-name="Línea 563" y2="42.263" transform="translate(5.5 4)" fill="none" stroke="#ff8c16" stroke-width="2"/>
    </g>
    <g id="Grupo_1108222" data-name="Grupo 1108222" transform="translate(733.398 1819)">
      <circle id="Elipse_11492-3" data-name="Elipse 11492" cx="5.5" cy="5.5" r="5.5" transform="translate(0 35.263)" fill="#ff8c16"/>
      <line id="Línea_563-3" data-name="Línea 563" y1="42.263" transform="translate(5.5)" fill="none" stroke="#ff8c16" stroke-width="2"/>
    </g>
  </g>
</svg>
