<svg xmlns="http://www.w3.org/2000/svg" width="85" height="85" viewBox="0 0 85 85">
  <g id="Grupo_1108210" data-name="Grupo 1108210" transform="translate(-180.051 -744)">
    <circle id="Elipse_11491" data-name="Elipse 11491" cx="42.5" cy="42.5" r="42.5" transform="translate(180.051 744)" fill="#f3d913"/>
    <g id="garaje" transform="translate(196.051 760)">
      <path id="Trazado_897924" data-name="Trazado 897924" d="M25.393,153.619H73.975v33.8H25.393Z" transform="translate(-22.719 -137.437)" fill="#f6f9f9"/>
      <path id="Trazado_897925" data-name="Trazado 897925" d="M69.762,153.619v18.013a13.68,13.68,0,0,1-13.68,13.68H25.393v2.107H73.975v-33.8Z" transform="translate(-22.719 -137.437)" fill="#e7ecf1"/>
      <path id="Trazado_897926" data-name="Trazado 897926" d="M0,0H30.275V40.078H0Z" transform="translate(47.005 19.707) rotate(90)" fill="#707dd3"/>
      <path id="Trazado_897927" data-name="Trazado 897927" d="M101.625,187.087V203.02A12.235,12.235,0,0,1,89.39,215.255H65.76v2.107h40.078V187.087Z" transform="translate(-58.833 -167.38)" fill="#5766cb"/>
      <path id="Trazado_897928" data-name="Trazado 897928" d="M59.852,22.892H7.5L15.021,7.5H52.331Z" transform="translate(-6.71 -6.71)" fill="#e4936b"/>
      <path id="Trazado_897929" data-name="Trazado 897929" d="M52.331,7.5H49.147l3.378,6.912a4.428,4.428,0,0,1-3.979,6.372H8.529L7.5,22.892H59.852Z" transform="translate(-6.71 -6.71)" fill="#e27d47"/>
      <path id="Trazado_897930" data-name="Trazado 897930" d="M130.739,417.64H98.967a.732.732,0,0,1-.733-.733v-1.995a.732.732,0,0,1,.733-.733h31.772a.732.732,0,0,1,.733.733v1.995A.733.733,0,0,1,130.739,417.64Z" transform="translate(-87.888 -370.552)" fill="#dae4ea"/>
      <path id="Trazado_897931" data-name="Trazado 897931" d="M370.807,303.834a1.381,1.381,0,0,1-1.381,1.381h-3.037v-1.307a1.456,1.456,0,0,1,1.456-1.456h1.582A1.381,1.381,0,0,1,370.807,303.834Z" transform="translate(-327.795 -270.594)" fill="#e28086"/>
      <path id="Trazado_897932" data-name="Trazado 897932" d="M105.046,305.215h3.037v-1.307a1.456,1.456,0,0,0-1.456-1.456h-1.582a1.381,1.381,0,0,0,0,2.762Z" transform="translate(-92.746 -270.594)" fill="#e28086"/>
      <path id="Trazado_897933" data-name="Trazado 897933" d="M211.31,414.18h9.415v3.46H211.31Z" transform="translate(-189.052 -370.552)" fill="#808b95"/>
      <path id="Trazado_897934" data-name="Trazado 897934" d="M120.689,449.918h-3.747a1.045,1.045,0,0,1-1.045-1.045v-1.849h5.837v1.849A1.045,1.045,0,0,1,120.689,449.918Z" transform="translate(-103.689 -399.936)" fill="#808b95"/>
      <path id="Trazado_897935" data-name="Trazado 897935" d="M168.869,254.859l-1.724-6.085a3.583,3.583,0,0,0-3.448-2.607H150.785a3.583,3.583,0,0,0-3.448,2.607l-1.724,6.085Z" transform="translate(-130.275 -220.238)" fill="#e28086"/>
      <path id="Trazado_897936" data-name="Trazado 897936" d="M167.144,248.775a3.583,3.583,0,0,0-3.448-2.607h-.949a3.586,3.586,0,0,1,.183.5l.564,1.992a3.216,3.216,0,0,1-3.094,4.093H146.21l-.6,2.107h23.256Z" transform="translate(-130.275 -220.238)" fill="#dd636e"/>
      <path id="Trazado_897937" data-name="Trazado 897937" d="M172.686,278.163l1.512-5.337a.843.843,0,0,1,.808-.611h12.912a.843.843,0,0,1,.808.611l1.512,5.337Z" transform="translate(-154.496 -243.542)" fill="#d5d8f1"/>
      <path id="Trazado_897938" data-name="Trazado 897938" d="M172.686,278.163h17.552l-1.512-5.337a.843.843,0,0,0-.808-.611h-.142a3.216,3.216,0,0,1-3.154,3.841H173.283Z" transform="translate(-154.496 -243.542)" fill="#bec3ea"/>
      <path id="Trazado_897939" data-name="Trazado 897939" d="M133.187,328.677h-23.8a3.679,3.679,0,0,0-3.674,3.487l-.288,5.519h31.721l-.288-5.519A3.679,3.679,0,0,0,133.187,328.677Z" transform="translate(-94.322 -294.056)" fill="#e28086"/>
      <path id="Trazado_897940" data-name="Trazado 897940" d="M136.861,332.164a3.679,3.679,0,0,0-3.674-3.487H132.3a3.671,3.671,0,0,1,.347,1.381l.117,2.238a3.119,3.119,0,0,1-3.115,3.281H105.537l-.11,2.107h31.721Z" transform="translate(-94.322 -294.056)" fill="#dd636e"/>
      <path id="Trazado_897941" data-name="Trazado 897941" d="M140.237,355.322h-2.295v1.847a1.628,1.628,0,0,0,1.628,1.628H143.6v-3.475Z" transform="translate(-123.412 -317.894)" fill="#f6f9f9"/>
      <path id="Trazado_897942" data-name="Trazado 897942" d="M325.977,355.322h-5.661V358.8h4.033a1.628,1.628,0,0,0,1.628-1.628Z" transform="translate(-286.576 -317.894)" fill="#f6f9f9"/>
      <path id="Trazado_897943" data-name="Trazado 897943" d="M222.37,358.968h-3.089a2.6,2.6,0,0,1-2.6-2.6v-1.088h8.283v1.088A2.6,2.6,0,0,1,222.37,358.968Z" transform="translate(-193.86 -317.859)" fill="#808b95"/>
      <path id="Trazado_897944" data-name="Trazado 897944" d="M345.48,449.918h-3.747a1.045,1.045,0,0,1-1.045-1.045v-1.849h5.837v1.849A1.045,1.045,0,0,1,345.48,449.918Z" transform="translate(-304.802 -399.936)" fill="#808b95"/>
      <g id="Grupo_1108197" data-name="Grupo 1108197" transform="translate(0.79 3.534)">
        <path id="Trazado_897945" data-name="Trazado 897945" d="M0,0H3.063V40.078H0Z" transform="translate(46.215 16.173) rotate(90)" fill="#dae4ea"/>
        <path id="Trazado_897946" data-name="Trazado 897946" d="M144.344,38.5l1.015-1.759h4.629a4.953,4.953,0,0,0-8.7-1.061,2.139,2.139,0,0,1-1.762.9h-7.368a2.139,2.139,0,0,1-1.762-.9,4.953,4.953,0,0,0-8.7,1.061h4.629l1.015,1.759-1.015,1.759h-4.629a4.953,4.953,0,0,0,8.7,1.061,2.139,2.139,0,0,1,1.762-.9h7.368a2.139,2.139,0,0,1,1.762.9,4.953,4.953,0,0,0,8.7-1.061h-4.629Z" transform="translate(-109.665 -33.548)" fill="#dae4ea"/>
        <path id="Trazado_897947" data-name="Trazado 897947" d="M7.5,474.5H59.852v3.16H7.5Z" transform="translate(-7.5 -428.052)" fill="#dae4ea"/>
      </g>
      <path id="Trazado_897948" data-name="Trazado 897948" d="M136.894,347.822h-5.661a.79.79,0,0,0-.79.79v1.847a2.42,2.42,0,0,0,2.418,2.418h4.033a.79.79,0,0,0,.79-.79v-3.475A.79.79,0,0,0,136.894,347.822Zm-.79,3.475H132.86a.839.839,0,0,1-.838-.838V349.4H136.1V351.3Z" transform="translate(-116.703 -311.184)"/>
      <path id="Trazado_897949" data-name="Trazado 897949" d="M313.606,352.877h4.034a2.42,2.42,0,0,0,2.417-2.418v-1.847a.79.79,0,0,0-.79-.79h-5.661a.79.79,0,0,0-.79.79v3.475A.79.79,0,0,0,313.606,352.877Zm.79-3.475h4.081v1.057a.838.838,0,0,1-.837.838H314.4Z" transform="translate(-279.866 -311.184)"/>
      <path id="Trazado_897950" data-name="Trazado 897950" d="M212.57,353.047h3.089a3.391,3.391,0,0,0,3.387-3.387v-1.088a.79.79,0,0,0-.79-.79h-8.283a.79.79,0,0,0-.79.79v1.088A3.391,3.391,0,0,0,212.57,353.047Zm-1.807-3.685h6.7v.3a1.809,1.809,0,0,1-1.807,1.807H212.57a1.809,1.809,0,0,1-1.807-1.807Z" transform="translate(-187.149 -311.148)"/>
      <path id="Trazado_897951" data-name="Trazado 897951" d="M114.984,32.757a.79.79,0,0,0-.738,1.071,5.743,5.743,0,0,0,10.088,1.231,1.345,1.345,0,0,1,1.113-.56h7.368a1.345,1.345,0,0,1,1.113.56,5.743,5.743,0,0,0,10.088-1.231.79.79,0,0,0-.739-1.071h-4.173l-.559-.969.559-.969h4.173a.79.79,0,0,0,.739-1.071,5.742,5.742,0,0,0-10.088-1.231,1.346,1.346,0,0,1-1.114.56H130.8a.79.79,0,0,0,0,1.58h2.017a2.925,2.925,0,0,0,2.412-1.239,4.159,4.159,0,0,1,6.709-.179h-3.287a.79.79,0,0,0-.684.4l-1.015,1.759a.79.79,0,0,0,0,.79l1.015,1.759a.79.79,0,0,0,.684.4h3.287a4.159,4.159,0,0,1-6.709-.179,2.926,2.926,0,0,0-2.412-1.239h-7.368a2.925,2.925,0,0,0-2.412,1.239,4.159,4.159,0,0,1-6.709.179h3.287a.79.79,0,0,0,.684-.4l1.015-1.759a.79.79,0,0,0,0-.79L120.3,29.634a.79.79,0,0,0-.684-.4h-3.287a4.159,4.159,0,0,1,6.709.179,2.925,2.925,0,0,0,2.412,1.239h1.664a.79.79,0,1,0,0-1.58h-1.664a1.345,1.345,0,0,1-1.113-.56,5.742,5.742,0,0,0-10.088,1.231.79.79,0,0,0,.738,1.071h4.173l.559.969-.559.969h-4.173Z" transform="translate(-102.166 -23.302)"/>
      <path id="Trazado_897952" data-name="Trazado 897952" d="M53.142,49.192H52.047V16.972h1.095a.79.79,0,0,0,.71-1.137L46.331.443A.79.79,0,0,0,45.621,0H8.31A.79.79,0,0,0,7.6.443L.08,15.835a.79.79,0,0,0,.71,1.137H1.885v32.22H.79a.79.79,0,0,0-.79.79v3.16a.79.79,0,0,0,.79.79H53.142a.79.79,0,0,0,.79-.79v-3.16A.79.79,0,0,0,53.142,49.192ZM8.8,1.58H45.128l6.749,13.812H2.055ZM3.465,16.972h47v32.22H47.795V19.707a.79.79,0,0,0-.79-.79H43.584a.79.79,0,0,0,0,1.58h2.631V21.98H7.717V20.5H39.9a.79.79,0,0,0,0-1.58H6.927a.79.79,0,0,0-.79.79V49.192H3.465ZM13,48.937V47.878h4.257v1.059a.256.256,0,0,1-.255.255H13.253A.256.256,0,0,1,13,48.937ZM39.383,33.831v-.517a.666.666,0,0,1,.666-.666h1.582a.591.591,0,0,1,0,1.182Zm-3.045,0L34.99,29.069a1.636,1.636,0,0,0-1.568-1.185H20.51a1.636,1.636,0,0,0-1.568,1.185l-1.349,4.762h-1.21l1.439-5.079A2.8,2.8,0,0,1,20.51,26.72H33.421a2.8,2.8,0,0,1,2.688,2.032l1.439,5.079Zm-21.791,0H12.3a.591.591,0,0,1,0-1.182h1.582a.666.666,0,0,1,.666.666ZM12.182,38.15a2.888,2.888,0,0,1,2.885-2.739h5.124a.79.79,0,1,0,0-1.58h-.956L20.462,29.5a.053.053,0,0,1,.048-.036H33.422a.053.053,0,0,1,.048.036L34.7,33.831H23.878a.79.79,0,1,0,0,1.58H38.865A2.888,2.888,0,0,1,41.75,38.15l.244,4.688H11.937ZM32.463,46.3v-1.88H42.794V46.3Zm-9.415-1.88h7.835V46.3H23.048Zm-11.911,0H21.468V46.3H11.137Zm7.7,4.518V47.878H35.1v1.059a1.839,1.839,0,0,0,.018.255h-16.3a1.84,1.84,0,0,0,.018-.255Zm17.841,0V47.878h4.257v1.059a.256.256,0,0,1-.255.255H36.932A.256.256,0,0,1,36.676,48.937Zm5.837,0V47.878h.338a1.524,1.524,0,0,0,1.522-1.523V44.36a1.524,1.524,0,0,0-.788-1.333l-.258-4.959a4.454,4.454,0,0,0-1.12-2.734,2.171,2.171,0,0,0-.577-4.265H40.049a2.236,2.236,0,0,0-1.482.56l-.937-3.308a4.39,4.39,0,0,0-4.208-3.181H20.51A4.39,4.39,0,0,0,16.3,28.322l-.937,3.308a2.236,2.236,0,0,0-1.482-.56H12.3a2.171,2.171,0,0,0-.577,4.265,4.453,4.453,0,0,0-1.12,2.734l-.258,4.959a1.524,1.524,0,0,0-.788,1.333v1.995a1.524,1.524,0,0,0,1.523,1.523h.338v1.059a1.839,1.839,0,0,0,.018.255H7.717V23.56h38.5V49.192H42.5a1.84,1.84,0,0,0,.018-.255Zm9.838,3.415H1.58v-1.58H52.352Z" transform="translate(0 0)"/>
    </g>
  </g>
</svg>
