<svg xmlns="http://www.w3.org/2000/svg" xmlns:xlink="http://www.w3.org/1999/xlink" width="108.914" height="108.914" viewBox="0 0 108.914 108.914">
  <defs>
    <filter id="Trazado_874925" x="0" y="0" width="108.914" height="108.914" filterUnits="userSpaceOnUse">
      <feOffset dy="3" input="SourceAlpha"/>
      <feGaussianBlur stdDeviation="3" result="blur"/>
      <feFlood flood-opacity="0.161"/>
      <feComposite operator="in" in2="blur"/>
      <feComposite in="SourceGraphic"/>
    </filter>
  </defs>
  <g id="Grupo_1108129" data-name="Grupo 1108129" transform="translate(9 6)">
    <g transform="matrix(1, 0, 0, 1, -9, -6)" filter="url(#Trazado_874925)">
      <g id="Trazado_874925-2" data-name="Trazado 874925" transform="translate(9 6)" fill="#ddd3c2" opacity="0.859">
        <path d="M 45.45676803588867 89.41407012939453 C 39.52198028564453 89.41407012939453 33.76551818847656 88.25206756591797 28.34726715087891 85.96034240722656 C 23.11311721801758 83.74648284912109 18.41204261779785 80.57682800292969 14.37464332580566 76.5394287109375 C 10.33724308013916 72.50202941894531 7.167593002319336 67.80095672607422 4.953730583190918 62.56679534912109 C 2.662005424499512 57.14855575561523 1.500005483627319 51.39208221435547 1.500005483627319 45.45729446411133 C 1.500005483627319 39.52198028564453 2.662005424499512 33.76551818847656 4.953730583190918 28.34726905822754 C 7.167593002319336 23.11310577392578 10.33724308013916 18.41203117370605 14.37464332580566 14.37464332580566 C 18.41204261779785 10.33724403381348 23.11311721801758 7.167593955993652 28.34726715087891 4.953731060028076 C 33.76551818847656 2.662006139755249 39.52198028564453 1.500006198883057 45.45676803588867 1.500006198883057 C 51.39155578613281 1.500006198883057 57.14802932739258 2.662006139755249 62.56626892089844 4.953731060028076 C 67.80043029785156 7.167593955993652 72.50150299072266 10.33724403381348 76.53890228271484 14.37464332580566 C 80.57630920410156 18.41203117370605 83.74595642089844 23.11310577392578 85.95981597900391 28.34726905822754 C 88.25154113769531 33.76551818847656 89.41354370117188 39.52198028564453 89.41354370117188 45.45676803588867 C 89.41354370117188 51.39208221435547 88.25154113769531 57.14855575561523 85.95981597900391 62.56679534912109 C 83.74595642089844 67.80095672607422 80.57630920410156 72.50202941894531 76.53890228271484 76.5394287109375 C 72.50150299072266 80.57682800292969 67.80043029785156 83.74648284912109 62.56626892089844 85.96034240722656 C 57.14802932739258 88.25206756591797 51.39155578613281 89.41407012939453 45.45676803588867 89.41407012939453 Z" stroke="none"/>
        <path d="M 45.45676803588867 3 C 39.72381210327148 3 34.1639404296875 4.12213134765625 28.93159484863281 6.335227966308594 C 23.87622833251953 8.473472595214844 19.33542633056641 11.53517150878906 15.43529510498047 15.435302734375 C 11.53517150878906 19.33543395996094 8.473464965820312 23.87622833251953 6.335227966308594 28.93160247802734 C 4.122123718261719 34.16394424438477 3 39.72381591796875 3 45.4572868347168 C 3 51.19024658203125 4.122123718261719 56.75011825561523 6.335227966308594 61.98246002197266 C 8.473464965820312 67.03782653808594 11.53517150878906 71.57862854003906 15.43529510498047 75.478759765625 C 19.33542633056641 79.37889099121094 23.87622833251953 82.44058990478516 28.93159484863281 84.57883453369141 C 34.1639404296875 86.79193115234375 39.72381210327148 87.9140625 45.45676803588867 87.9140625 C 51.18972396850586 87.9140625 56.74959564208984 86.79193115234375 61.98194122314453 84.57883453369141 C 67.03730773925781 82.44058990478516 71.57810974121094 79.37889099121094 75.47824096679688 75.478759765625 C 79.37837219238281 71.57862854003906 82.44007110595703 67.03782653808594 84.57830810546875 61.98246002197266 C 86.79141235351562 56.75011825561523 87.91353607177734 51.19024658203125 87.91353607177734 45.4567756652832 C 87.91353607177734 39.72381591796875 86.79141235351562 34.16394424438477 84.57830810546875 28.93160247802734 C 82.44007110595703 23.87622833251953 79.37837219238281 19.33543395996094 75.47824096679688 15.435302734375 C 71.57810974121094 11.53517150878906 67.03730773925781 8.473472595214844 61.98194122314453 6.335227966308594 C 56.74959564208984 4.12213134765625 51.18972396850586 3 45.45676803588867 3 M 45.45676803588867 0 C 70.56185150146484 0 90.91353607177734 20.35169219970703 90.91353607177734 45.4567756652832 L 90.91353607177734 45.4572868347168 C 90.91353607177734 70.5623779296875 70.56185150146484 90.9140625 45.45676803588867 90.9140625 C 20.3516845703125 90.9140625 0 70.5623779296875 0 45.4572868347168 L 0 45.4567756652832 C 0 20.35169219970703 20.3516845703125 0 45.45676803588867 0 Z" stroke="none" fill="#fff"/>
      </g>
    </g>
    <g id="Trazado_874923" data-name="Trazado 874923" transform="translate(0 0)" fill="none">
      <path d="M45.457,0A45.457,45.457,0,0,1,90.914,45.457h0A45.457,45.457,0,0,1,0,45.457H0A45.457,45.457,0,0,1,45.457,0Z" stroke="none"/>
      <path d="M 45.45676803588867 3 C 39.72381210327148 3 34.1639404296875 4.12213134765625 28.93159484863281 6.335227966308594 C 23.87622833251953 8.473472595214844 19.33542633056641 11.53517150878906 15.43529510498047 15.435302734375 C 11.53517150878906 19.33543395996094 8.473464965820312 23.87622833251953 6.335227966308594 28.93160247802734 C 4.122123718261719 34.16394424438477 3 39.72381591796875 3 45.4572868347168 C 3 51.19024658203125 4.122123718261719 56.75011825561523 6.335227966308594 61.98246002197266 C 8.473464965820312 67.03782653808594 11.53517150878906 71.57862854003906 15.43529510498047 75.478759765625 C 19.33542633056641 79.37889099121094 23.87622833251953 82.44058990478516 28.93159484863281 84.57883453369141 C 34.1639404296875 86.79193115234375 39.72381210327148 87.9140625 45.45676803588867 87.9140625 C 51.18972396850586 87.9140625 56.74959564208984 86.79193115234375 61.98194122314453 84.57883453369141 C 67.03730773925781 82.44058990478516 71.57810974121094 79.37889099121094 75.47824096679688 75.478759765625 C 79.37837219238281 71.57862854003906 82.44007110595703 67.03782653808594 84.57830810546875 61.98246002197266 C 86.79141235351562 56.75011825561523 87.91353607177734 51.19024658203125 87.91353607177734 45.4567756652832 C 87.91353607177734 39.72381591796875 86.79141235351562 34.16394424438477 84.57830810546875 28.93160247802734 C 82.44007110595703 23.87622833251953 79.37837219238281 19.33543395996094 75.47824096679688 15.435302734375 C 71.57810974121094 11.53517150878906 67.03730773925781 8.473472595214844 61.98194122314453 6.335227966308594 C 56.74959564208984 4.12213134765625 51.18972396850586 3 45.45676803588867 3 M 45.45676803588867 0 C 70.56185150146484 0 90.91353607177734 20.35169219970703 90.91353607177734 45.4567756652832 L 90.91353607177734 45.4572868347168 C 90.91353607177734 70.5623779296875 70.56185150146484 90.9140625 45.45676803588867 90.9140625 C 20.3516845703125 90.9140625 0 70.5623779296875 0 45.4572868347168 L 0 45.4567756652832 C 0 20.35169219970703 20.3516845703125 0 45.45676803588867 0 Z" stroke="none" fill="#fff"/>
    </g>
    <g id="Layer_x0020_1" transform="translate(17.61 14.657)">
      <path id="Trazado_897787" data-name="Trazado 897787" d="M14.838,20.151c-5.514,0-9.781-5.572-11.5-10.87a4.846,4.846,0,0,1-2.9-4.352A5.235,5.235,0,0,1,3.037.472a.7.7,0,0,1,.34-.089H26.3a.7.7,0,0,1,.34.089,5.237,5.237,0,0,1,2.595,4.458,4.846,4.846,0,0,1-2.9,4.352c-1.715,5.3-5.983,10.87-11.5,10.87ZM3.569,1.779a3.873,3.873,0,0,0-1.73,3.15A3.448,3.448,0,0,0,4.123,8.086a.7.7,0,0,1,.45.46c1.5,4.917,5.347,10.209,10.264,10.209S23.6,13.462,25.1,8.545a.7.7,0,0,1,.45-.46,3.448,3.448,0,0,0,2.284-3.156,3.872,3.872,0,0,0-1.73-3.15H3.569Z" transform="translate(13.081 13.001)" fill-rule="evenodd"/>
      <path id="Trazado_897788" data-name="Trazado 897788" d="M24.134,14.78H1.205a.7.7,0,0,1-.7-.718l.02-.682a.6.6,0,0,1,0-.063l.746-6.257C1.86,2.183,7.415,0,12.66,0c5.081,0,10.813,2.21,11.392,7.061l.746,6.257c0,.021,0,.042,0,.063l.016.566a.7.7,0,0,1-.685.835Zm-22.2-1.4H23.4l-.735-6.158C22.189,3.22,17.144,1.395,12.66,1.395s-9.518,1.825-10,5.831L1.93,13.384Z" transform="translate(15.253)" fill-rule="evenodd"/>
      <path id="Trazado_897789" data-name="Trazado 897789" d="M20.026,6.221a6.8,6.8,0,0,1-1.446-.234,23.916,23.916,0,0,0-5.942-.648,23.954,23.954,0,0,0-5.943.648,6.767,6.767,0,0,1-1.446.234C3.913,6.221,3.3,5.336,1.273,2.4L.632,1.479a.7.7,0,0,1,.573-1.1H24.068a.7.7,0,0,1,.573,1.1L24,2.4c-2.03,2.934-2.642,3.819-3.977,3.819ZM12.637,3.943a25.168,25.168,0,0,1,6.254.684,5.967,5.967,0,0,0,1.135.2c.569,0,1.009-.587,2.71-3.047H2.537c1.7,2.46,2.142,3.047,2.71,3.047a5.975,5.975,0,0,0,1.135-.2,25.186,25.186,0,0,1,6.254-.684Z" transform="translate(15.253 13.002)" fill-rule="evenodd"/>
      <path id="Trazado_897790" data-name="Trazado 897790" d="M1.172,15.206a.7.7,0,0,1-.7-.7V2.447a.7.7,0,0,1,.458-.656A12.883,12.883,0,0,1,5.359,1h.749a.7.7,0,0,1,.7.7V14.324a.7.7,0,0,1-.672.7.711.711,0,0,1-.722-.647,1.774,1.774,0,0,0-3.543.132.7.7,0,0,1-.7.7Zm.7-12.261v8.937a3.155,3.155,0,0,1,3.541,0V2.4H5.359a11.437,11.437,0,0,0-3.489.549Z" transform="translate(14.148 33.903)" fill-rule="evenodd"/>
      <path id="Trazado_897791" data-name="Trazado 897791" d="M1.748,15.205a.7.7,0,0,1-.7-.7V1.7a.7.7,0,0,1,.7-.7h.757a12.894,12.894,0,0,1,4.419.789.7.7,0,0,1,.459.656v11.88a.7.7,0,0,1-.673.7.711.711,0,0,1-.722-.647,1.774,1.774,0,0,0-3.542.132.7.7,0,0,1-.7.7Zm.7-12.81v9.487a3.155,3.155,0,0,1,3.541,0V2.942A11.434,11.434,0,0,0,2.505,2.4H2.446Z" transform="translate(33.679 33.904)" fill-rule="evenodd"/>
      <path id="Trazado_897792" data-name="Trazado 897792" d="M1.373,7.6a.7.7,0,0,1-.7-.7V1.544a.7.7,0,0,1,1.4,0V6.907A.7.7,0,0,1,1.373,7.6Z" transform="translate(20.951 28.694)" fill-rule="evenodd"/>
      <path id="Trazado_897793" data-name="Trazado 897793" d="M1.694,7.6a.7.7,0,0,1-.7-.7V1.544a.7.7,0,1,1,1.4,0V6.907A.7.7,0,0,1,1.694,7.6Z" transform="translate(31.82 28.694)" fill-rule="evenodd"/>
      <path id="Trazado_897794" data-name="Trazado 897794" d="M31.062,13.253H1.1a.7.7,0,0,1-.7-.7V2.064a.7.7,0,0,1,.7-.7H3.557a.7.7,0,0,1,.7.7,1.774,1.774,0,1,0,3.548,0,.7.7,0,0,1,.7-.7H23.664a.7.7,0,0,1,.7.7,1.773,1.773,0,1,0,3.547,0,.7.7,0,0,1,.7-.7h2.455a.7.7,0,0,1,.7.7V12.556a.7.7,0,0,1-.7.7ZM1.8,11.857H30.364v-9.1H29.227a3.17,3.17,0,0,1-6.184,0H9.12a3.17,3.17,0,0,1-6.184,0H1.8v9.1Z" transform="translate(11.764 46.347)" fill-rule="evenodd"/>
      <path id="Trazado_897795" data-name="Trazado 897795" d="M4.22,7.635a3.17,3.17,0,1,1,3.17-3.17A3.174,3.174,0,0,1,4.22,7.635Zm0-4.943A1.774,1.774,0,1,0,5.994,4.465,1.775,1.775,0,0,0,4.22,2.692Z" transform="translate(33.679 43.945)" fill-rule="evenodd"/>
      <path id="Trazado_897796" data-name="Trazado 897796" d="M3.644,7.635a3.17,3.17,0,1,1,3.17-3.17A3.174,3.174,0,0,1,3.644,7.635Zm0-4.943A1.774,1.774,0,1,0,5.418,4.465,1.776,1.776,0,0,0,3.644,2.692Z" transform="translate(14.148 43.945)" fill-rule="evenodd"/>
      <path id="Trazado_897797" data-name="Trazado 897797" d="M49.918,2.911H40.386a.7.7,0,0,1,0-1.4h9.532a.7.7,0,0,1,0,1.4Zm-39.492,0H.827a.7.7,0,0,1,0-1.4h9.6a.7.7,0,0,1,0,1.4Z" transform="translate(2.44 51.399)" fill-rule="evenodd"/>
      <path id="Trazado_897798" data-name="Trazado 897798" d="M13.428,5.2H1.36a.7.7,0,0,1-.7-.7V.837a.7.7,0,0,1,.7-.7H13.428a.7.7,0,0,1,.7.7V4.5a.7.7,0,0,1-.7.7ZM2.058,3.806H12.729V1.535H2.058Z" transform="translate(20.525 4.72)" fill-rule="evenodd"/>
      <path id="Trazado_897799" data-name="Trazado 897799" d="M8.095,10.7a.7.7,0,0,1-.489-.2A13.944,13.944,0,0,0,1.674,6.916.7.7,0,0,1,1.261,5.9L3.956,1.228A.7.7,0,0,1,4.909.973l6.3,3.637a.7.7,0,0,1,.255.953L8.7,10.35a.7.7,0,0,1-.51.343.676.676,0,0,1-.094.007ZM2.9,5.845A15.272,15.272,0,0,1,7.93,8.892L9.906,5.469,4.816,2.531,2.9,5.845Z" transform="translate(37.633 29.821)" fill-rule="evenodd"/>
      <path id="Trazado_897800" data-name="Trazado 897800" d="M2.032,9.552a.7.7,0,0,1-.6-1.047L5.723,1.066a.7.7,0,0,1,1.209.7L2.637,9.2a.7.7,0,0,1-.6.35Z" transform="translate(43.31 24.363)" fill-rule="evenodd"/>
      <path id="Trazado_897801" data-name="Trazado 897801" d="M2.624,8.977a.7.7,0,0,1-.691-.6L1.45,5a.7.7,0,0,1,.087-.448L3.666.865A.7.7,0,0,1,4.619.609l3.688,2.13a.7.7,0,0,1,.255.954L6.433,7.38a.7.7,0,0,1-.351.3L2.876,8.93a.7.7,0,0,1-.253.047Zm.242-3.935L3.19,7.31l2.157-.84L7,3.6,4.526,2.168,2.866,5.042Z" transform="translate(46.98 17.512)" fill-rule="evenodd"/>
      <path id="Trazado_897802" data-name="Trazado 897802" d="M6.177,12.751A6.116,6.116,0,0,1,1.251,3a.686.686,0,0,1,.6-.283.7.7,0,0,1,.566.348l2.194,3.8L7.155,5.4,4.961,1.6A.7.7,0,0,1,5.488.558a6.116,6.116,0,1,1,.689,12.193ZM1.816,4.819A4.72,4.72,0,1,0,6.779,1.955L8.713,5.306a.7.7,0,0,1-.255.953L4.705,8.426a.7.7,0,0,1-.954-.255L1.816,4.819Z" transform="translate(0 17.645)" fill-rule="evenodd"/>
      <path id="Trazado_897803" data-name="Trazado 897803" d="M5.707,10.379a.7.7,0,0,1-.605-.349L.383,1.856a.7.7,0,1,1,1.209-.7L6.31,9.332a.7.7,0,0,1-.6,1.047Z" transform="translate(7.883 27.446)" fill-rule="evenodd"/>
      <path id="Trazado_897804" data-name="Trazado 897804" d="M1.243,10.853a.7.7,0,0,1-.7-.7V2.135a.7.7,0,0,1,1.4,0v8.02A.7.7,0,0,1,1.243,10.853Z" transform="translate(16.549 48.747)" fill-rule="evenodd"/>
      <path id="Trazado_897805" data-name="Trazado 897805" d="M1.819,10.853a.7.7,0,0,1-.7-.7V2.135a.7.7,0,0,1,1.4,0v8.02A.7.7,0,0,1,1.819,10.853Z" transform="translate(36.08 48.747)" fill-rule="evenodd"/>
      <path id="Trazado_897806" data-name="Trazado 897806" d="M13.481,17.164a8.014,8.014,0,0,0,5.078-1.986.7.7,0,0,1,.151-.126,17.65,17.65,0,0,0,5.035-8.1.7.7,0,0,1,.45-.46A3.448,3.448,0,0,0,26.48,3.338,3.9,3.9,0,0,0,25.083.43l-.264.381C22.79,3.745,22.177,4.63,20.842,4.63A6.8,6.8,0,0,1,19.4,4.4a23.916,23.916,0,0,0-5.942-.648A23.954,23.954,0,0,0,7.511,4.4a6.767,6.767,0,0,1-1.446.234C4.73,4.63,4.118,3.745,2.09.813L1.844.459A3.9,3.9,0,0,0,.483,3.338,3.448,3.448,0,0,0,2.767,6.495a.7.7,0,0,1,.45.46,17.653,17.653,0,0,0,5.031,8.095.7.7,0,0,1,.159.133,8.012,8.012,0,0,0,5.073,1.982Z" transform="translate(14.437 14.592)" fill="#fec9a3" fill-rule="evenodd"/>
      <path id="Trazado_897807" data-name="Trazado 897807" d="M10.665,2.587a25.168,25.168,0,0,1,6.254.684,5.967,5.967,0,0,0,1.135.2c.569,0,1.009-.587,2.71-3.047H.565c1.7,2.46,2.142,3.047,2.71,3.047a5.975,5.975,0,0,0,1.135-.2,25.186,25.186,0,0,1,6.254-.684Z" transform="translate(17.226 14.357)" fill="#49648e" fill-rule="evenodd"/>
      <path id="Trazado_897808" data-name="Trazado 897808" d="M.548,12.029H22.019l-.735-6.158C20.807,1.864,15.762.039,11.278.039s-9.518,1.825-10,5.831L.548,12.029ZM17.317,8.565H5.25a.7.7,0,0,1-.7-.7V4.2a.7.7,0,0,1,.7-.7H17.317a.7.7,0,0,1,.7.7V7.867a.7.7,0,0,1-.7.7Z" transform="translate(16.635 1.355)" fill="#3c5174" fill-rule="evenodd"/>
      <path id="Trazado_897809" data-name="Trazado 897809" d="M.7,2.45H11.374V.179H.7Z" transform="translate(21.88 6.076)" fill="#d6d6d4" fill-rule="evenodd"/>
      <path id="Trazado_897810" data-name="Trazado 897810" d="M9.375,6.462A4.686,4.686,0,0,0,8.9,2.881,4.739,4.739,0,0,0,5.423.561L7.357,3.912a.7.7,0,0,1-.255.953L3.349,7.032A.7.7,0,0,1,2.4,6.777L.46,3.425a4.719,4.719,0,0,0,6.577,5.98.7.7,0,0,1,.274-.158A4.688,4.688,0,0,0,9.375,6.462Z" transform="translate(1.356 19.039)" fill="#e6e6e6" fill-rule="evenodd"/>
      <path id="Trazado_897811" data-name="Trazado 897811" d="M.715.905V4.67l4.9,6.842,4.9-6.841V.906a8.907,8.907,0,0,1-4.9,1.539A8.907,8.907,0,0,1,.715.905Z" transform="translate(22.306 30.707)" fill="#fec9a3" fill-rule="evenodd"/>
      <path id="Trazado_897812" data-name="Trazado 897812" d="M1.484,3.438l.324,2.268,2.157-.84L5.622,1.994,3.144.563Z" transform="translate(48.362 19.116)" fill="#e6e6e6" fill-rule="evenodd"/>
      <path id="Trazado_897813" data-name="Trazado 897813" d="M19.3,3.8A3.18,3.18,0,0,1,16.9,1.407H2.979A3.179,3.179,0,0,1,.585,3.8v6.7H19.3V3.8Z" transform="translate(17.905 47.702)" fill="#808da4" fill-rule="evenodd"/>
      <path id="Trazado_897814" data-name="Trazado 897814" d="M3.975,10.5V3.8A3.18,3.18,0,0,1,1.581,1.407H.444v9.1H3.975Z" transform="translate(13.12 47.702)" fill="#808da4" fill-rule="evenodd"/>
      <path id="Trazado_897815" data-name="Trazado 897815" d="M1.161,3.8v6.7h3.53v-9.1H3.555A3.18,3.18,0,0,1,1.161,3.8Z" transform="translate(37.436 47.702)" fill="#808da4" fill-rule="evenodd"/>
      <path id="Trazado_897816" data-name="Trazado 897816" d="M1.3,1.556V5.449H9.936a31.587,31.587,0,0,0-.324-3.893H1.3Z" transform="translate(42.221 52.755)" fill="#fec9a3" fill-rule="evenodd"/>
      <path id="Trazado_897817" data-name="Trazado 897817" d="M8.789,5.449V1.556H.481A31.56,31.56,0,0,0,.157,5.449H8.789Z" transform="translate(3.379 52.755)" fill="#fec9a3" fill-rule="evenodd"/>
      <g id="Grupo_1108032" data-name="Grupo 1108032" transform="translate(4.097 36.299)">
        <path id="Trazado_897818" data-name="Trazado 897818" d="M.173,16.607H8.244V12.1a.7.7,0,0,1,.7-.7H10.7V1.07q-.3.135-.588.286a.7.7,0,0,1-.25.133C5.159,4.049,1.522,9.665.173,16.607Z" transform="translate(-0.173 0.01)" fill="#3c5174" fill-rule="evenodd"/>
        <path id="Trazado_897819" data-name="Trazado 897819" d="M.656,12.454H14.431V1.04h-.858L8.187,8.565a.7.7,0,0,1-1.135,0L1.666,1.04H.656V12.454Z" transform="translate(16.201 -1.04)" fill="#3c5174" fill-rule="evenodd"/>
        <path id="Trazado_897820" data-name="Trazado 897820" d="M1.232,1.071V11.4H2.994a.7.7,0,0,1,.7.7v4.5h8.072A24.186,24.186,0,0,0,5.555,4.116.7.7,0,0,1,5.407,4,14.769,14.769,0,0,0,1.232,1.071Z" transform="translate(35.734 0.017)" fill="#3c5174" fill-rule="evenodd"/>
      </g>
      <path id="Trazado_897821" data-name="Trazado 897821" d="M4.631,10.522V1.587q-.18-.057-.36-.109l-.012,0a11.4,11.4,0,0,0-3.11-.435H1.091v9.487a3.155,3.155,0,0,1,3.541,0v0Z" transform="translate(35.035 35.259)" fill="#6b809b" fill-rule="evenodd"/>
      <path id="Trazado_897822" data-name="Trazado 897822" d="M4.057,2.976a1.767,1.767,0,1,0,.005.133q0-.055,0-.109c0-.008,0-.016,0-.024Z" transform="translate(15.504 45.302)" fill="#334562" fill-rule="evenodd"/>
      <path id="Trazado_897823" data-name="Trazado 897823" d="M1.091,3.132a1.773,1.773,0,0,0,3.547-.023c0-.044,0-.088,0-.132a1.774,1.774,0,0,0-3.543.132c0,.008,0,.015,0,.023Z" transform="translate(35.035 45.302)" fill="#334562" fill-rule="evenodd"/>
      <path id="Trazado_897824" data-name="Trazado 897824" d="M4.055,10.522V1.04H4a11.437,11.437,0,0,0-3.489.549v8.937a3.155,3.155,0,0,1,3.541,0v0Z" transform="translate(15.504 35.259)" fill="#6b809b" fill-rule="evenodd"/>
      <path id="Trazado_897825" data-name="Trazado 897825" d="M50.855,25.7H.814a.7.7,0,0,1-.7-.7c0-13.233,7.794-24,17.375-24h2.816a.7.7,0,0,1,.567.292L25.9,8.316l5.028-7.024A.7.7,0,0,1,31.5,1h2.671C43.721,1,51.5,11.7,51.544,24.881a.666.666,0,0,1,.01.118.7.7,0,0,1-.7.7ZM1.52,24.3H50.141C49.879,12.159,42.815,2.4,34.169,2.4H31.857L26.47,9.921a.7.7,0,0,1-1.135,0L19.949,2.4H17.492C8.846,2.4,1.782,12.159,1.52,24.3Z" transform="translate(2.016 33.903)" fill-rule="evenodd"/>
      <path id="Trazado_897826" data-name="Trazado 897826" d="M6.247,7.284,8.221,3.865,5.69,2.4,5.676,2.4l-.016-.01L3.13.926,1.217,4.241l.069.025A15.3,15.3,0,0,1,6.244,7.288l0,0Z" transform="translate(39.318 31.425)" fill="#ff5959" fill-rule="evenodd"/>
    </g>
  </g>
</svg>
