<svg xmlns="http://www.w3.org/2000/svg" xmlns:xlink="http://www.w3.org/1999/xlink" width="87.73" height="87.731" viewBox="0 0 87.73 87.731">
  <defs>
    <filter id="Trazado_874925" x="0" y="0" width="87.73" height="87.731" filterUnits="userSpaceOnUse">
      <feOffset dy="3" input="SourceAlpha"/>
      <feGaussianBlur stdDeviation="3" result="blur"/>
      <feFlood flood-opacity="0.161"/>
      <feComposite operator="in" in2="blur"/>
      <feComposite in="SourceGraphic"/>
    </filter>
  </defs>
  <g id="Grupo_1108203" data-name="Grupo 1108203" transform="translate(-441.051 -3588)">
    <g transform="matrix(1, 0, 0, 1, 441.05, 3588)" filter="url(#Trazado_874925)">
      <g id="Trazado_874925-2" data-name="Trazado 874925" transform="translate(9 6)" fill="#f3d913" opacity="0.859">
        <path d="M 34.86513519287109 68.23066711425781 C 30.36020469665527 68.23066711425781 25.99083518981934 67.34870147705078 21.87838554382324 65.60928344726562 C 17.90546607971191 63.92888259887695 14.33710479736328 61.52292251586914 11.27242565155029 58.45824432373047 C 8.207745552062988 55.39356231689453 5.801784992218018 51.82521438598633 4.121385097503662 47.852294921875 C 2.381965160369873 43.73983383178711 1.50000524520874 39.37046432495117 1.50000524520874 34.86553192138672 C 1.50000524520874 30.36020278930664 2.381965160369873 25.9908332824707 4.121385097503662 21.87838363647461 C 5.801784992218018 17.90546417236328 8.207745552062988 14.33710384368896 11.27242565155029 11.27242374420166 C 14.33710479736328 8.207743644714355 17.90546607971191 5.801783561706543 21.87838554382324 4.121383666992188 C 25.99083518981934 2.381963491439819 30.36020469665527 1.500003576278687 34.86513519287109 1.500003576278687 C 39.37006378173828 1.500003576278687 43.73943328857422 2.381963491439819 47.85189437866211 4.121383666992188 C 51.82480621337891 5.801783561706543 55.39316558837891 8.207743644714355 58.45785522460938 11.27242374420166 C 61.52253341674805 14.33710384368896 63.92848587036133 17.90546417236328 65.60889434814453 21.87838363647461 C 67.34831237792969 25.9908332824707 68.23027801513672 30.36021423339844 68.23027801513672 34.86513519287109 C 68.23027801513672 39.37046432495117 67.34831237792969 43.73983383178711 65.60889434814453 47.852294921875 C 63.92848587036133 51.82521438598633 61.52253341674805 55.39356231689453 58.45785522460938 58.45824432373047 C 55.39316558837891 61.52292251586914 51.82480621337891 63.92888259887695 47.85189437866211 65.60928344726562 C 43.73943328857422 67.34870147705078 39.37006378173828 68.23066711425781 34.86513519287109 68.23066711425781 Z" stroke="none"/>
        <path d="M 34.86513519287109 3.000007629394531 C 30.56205368041992 3.000007629394531 26.38926315307617 3.84210205078125 22.46271133422852 5.502883911132812 C 18.66858291625977 7.107673645019531 15.2604866027832 9.405673980712891 12.33307647705078 12.33308792114258 C 9.405677795410156 15.2604866027832 7.107666015625 18.6685905456543 5.502891540527344 22.46271133422852 C 3.842086791992188 26.38926315307617 2.999992370605469 30.56204986572266 2.999992370605469 34.86553192138672 C 2.999992370605469 39.16861724853516 3.842086791992188 43.34140396118164 5.502891540527344 47.26795959472656 C 7.107666015625 51.06207275390625 9.405677795410156 54.47018051147461 12.33307647705078 57.39757919311523 C 15.2604866027832 60.32499313354492 18.66858291625977 62.62299346923828 22.46271133422852 64.227783203125 C 26.38926315307617 65.88856506347656 30.56205368041992 66.73065948486328 34.86513519287109 66.73065948486328 C 39.16821670532227 66.73065948486328 43.34100341796875 65.88856506347656 47.26755905151367 64.227783203125 C 51.06167602539062 62.62300491333008 54.46977996826172 60.32499313354492 57.39718246459961 57.39757919311523 C 60.32459259033203 54.47018051147461 62.62260437011719 51.06207275390625 64.22737884521484 47.26795959472656 C 65.88816833496094 43.34140396118164 66.73026275634766 39.16861724853516 66.73026275634766 34.86513519287109 C 66.73026275634766 30.56204986572266 65.88816833496094 26.38926315307617 64.22737884521484 22.46271133422852 C 62.62260437011719 18.6685905456543 60.32459259033203 15.2604866027832 57.39718246459961 12.33308792114258 C 54.46977996826172 9.405673980712891 51.06167602539062 7.107662200927734 47.26755905151367 5.502883911132812 C 43.34100341796875 3.84210205078125 39.16821670532227 3.000007629394531 34.86513519287109 3.000007629394531 M 34.86513519287109 7.62939453125e-06 C 54.1206169128418 7.62939453125e-06 69.73026275634766 15.60964965820312 69.73026275634766 34.86513519287109 L 69.73026275634766 34.86553192138672 C 69.73026275634766 54.12101745605469 54.1206169128418 69.73065948486328 34.86513519287109 69.73065948486328 C 15.60965347290039 69.73065948486328 -7.62939453125e-06 54.12101745605469 -7.62939453125e-06 34.86553192138672 L -7.62939453125e-06 34.86513519287109 C -7.62939453125e-06 15.60964965820312 15.60965347290039 7.62939453125e-06 34.86513519287109 7.62939453125e-06 Z" stroke="none" fill="#fff"/>
      </g>
    </g>
    <g id="ingenieria-" transform="translate(462.051 3606)">
      <path id="Trazado_897953" data-name="Trazado 897953" d="M26.986,38.208a10.607,10.607,0,0,1-.547,2.047l2.223,2.014a13.4,13.4,0,0,1-1.076,1.878l-2.854-.92a10.679,10.679,0,0,1-1.5,1.5l.92,2.854a13.472,13.472,0,0,1-1.878,1.076l-2.014-2.223a10.593,10.593,0,0,1-2.047.547l-.634,2.936c-.359.028-.718.055-1.085.055s-.726-.026-1.085-.055l-.634-2.936a10.607,10.607,0,0,1-2.047-.547l-2.014,2.223a13.4,13.4,0,0,1-1.878-1.076l.92-2.854a10.712,10.712,0,0,1-1.5-1.5l-2.854.92A13.472,13.472,0,0,1,4.315,42.27l2.223-2.014a10.593,10.593,0,0,1-.547-2.047l-2.936-.634C3.026,37.215,3,36.855,3,36.489s.026-.726.055-1.085l2.936-.634a10.607,10.607,0,0,1,.547-2.047L4.315,30.708a13.4,13.4,0,0,1,1.076-1.878l2.854.92a10.679,10.679,0,0,1,1.5-1.5l-.92-2.854a13.472,13.472,0,0,1,1.878-1.076l2.014,2.223a10.593,10.593,0,0,1,2.047-.547l.634-2.936c.359-.028.718-.055,1.085-.055s.726.026,1.085.055l.634,2.936a10.607,10.607,0,0,1,2.047.547l2.014-2.223a13.4,13.4,0,0,1,1.878,1.076l-.92,2.854a10.679,10.679,0,0,1,1.5,1.5l2.854-.92a13.472,13.472,0,0,1,1.076,1.878l-2.223,2.014a10.593,10.593,0,0,1,.547,2.047l2.936.634c.028.359.055.718.055,1.085s-.026.726-.055,1.085Zm-10.5-8.819a7.1,7.1,0,1,0,7.1,7.1A7.1,7.1,0,0,0,16.489,29.389Z" transform="translate(-0.29 -6.091)" fill="#454a6d"/>
      <path id="Trazado_897954" data-name="Trazado 897954" d="M45.247,12.446a5.69,5.69,0,0,1-.434,1.051l1.121,2.148a7.845,7.845,0,0,1-1.289,1.289L42.5,15.812a5.594,5.594,0,0,1-1.051.434l-.727,2.314a7.715,7.715,0,0,1-.91.058,7.847,7.847,0,0,1-.909-.058l-.727-2.314a5.641,5.641,0,0,1-1.051-.434l-2.148,1.121a7.845,7.845,0,0,1-1.289-1.289L34.806,13.5a5.594,5.594,0,0,1-.434-1.051l-2.314-.727a7.715,7.715,0,0,1-.058-.91,7.847,7.847,0,0,1,.058-.909l2.314-.727a5.641,5.641,0,0,1,.434-1.051L33.685,5.974a7.845,7.845,0,0,1,1.289-1.289l2.148,1.121a5.594,5.594,0,0,1,1.051-.434L38.9,3.058A7.714,7.714,0,0,1,39.809,3a7.847,7.847,0,0,1,.909.058l.727,2.314a5.641,5.641,0,0,1,1.051.434l2.148-1.121a7.845,7.845,0,0,1,1.289,1.289L44.812,8.121a5.594,5.594,0,0,1,.434,1.051L47.56,9.9a7.715,7.715,0,0,1,.058.91,7.847,7.847,0,0,1-.058.909ZM39.809,7.969a2.84,2.84,0,1,0,2.84,2.84A2.84,2.84,0,0,0,39.809,7.969Z" transform="translate(-8.702 -0.29)" fill="#e89d43"/>
      <path id="Trazado_897955" data-name="Trazado 897955" d="M54.174,35.718a4.941,4.941,0,0,1-.461,1.116l.706,1.487a6.439,6.439,0,0,1-1.1,1.1l-1.487-.706a4.928,4.928,0,0,1-1.116.461l-.552,1.553a5.835,5.835,0,0,1-1.552,0l-.552-1.553a4.941,4.941,0,0,1-1.116-.461l-1.487.706a6.439,6.439,0,0,1-1.1-1.1l.706-1.487a4.936,4.936,0,0,1-.461-1.115l-1.553-.552a5.84,5.84,0,0,1,0-1.553l1.553-.552a4.922,4.922,0,0,1,.461-1.115l-.706-1.487a6.439,6.439,0,0,1,1.1-1.1l1.487.706a4.928,4.928,0,0,1,1.116-.461l.552-1.553A6.219,6.219,0,0,1,49.389,28a6.358,6.358,0,0,1,.776.052l.552,1.553a4.941,4.941,0,0,1,1.116.461l1.487-.706a6.439,6.439,0,0,1,1.1,1.1l-.706,1.487a4.928,4.928,0,0,1,.461,1.116l1.553.552a5.835,5.835,0,0,1,0,1.552ZM49.389,32.26a2.13,2.13,0,1,0,2.13,2.13A2.13,2.13,0,0,0,49.389,32.26Z" transform="translate(-11.893 -7.542)" fill="#4ac3ed"/>
      <g id="Grupo_1108202" data-name="Grupo 1108202" transform="translate(2 2.001)">
        <path id="Trazado_897956" data-name="Trazado 897956" d="M2.057,37.345a.709.709,0,0,0,.558.638l2.474.534a11.215,11.215,0,0,0,.332,1.244l-1.873,1.7a.71.71,0,0,0-.164.831,14.2,14.2,0,0,0,1.133,1.977.71.71,0,0,0,.8.272l2.4-.775a11.376,11.376,0,0,0,.916.916l-.775,2.4a.71.71,0,0,0,.272.8,14.2,14.2,0,0,0,1.977,1.133.711.711,0,0,0,.831-.164l1.7-1.873a11.43,11.43,0,0,0,1.245.332l.534,2.474a.711.711,0,0,0,.637.558c.378.03.756.057,1.142.057s.764-.027,1.142-.057a.709.709,0,0,0,.638-.558l.534-2.474a11.229,11.229,0,0,0,1.245-.332l1.7,1.873a.709.709,0,0,0,.831.164,14.268,14.268,0,0,0,1.977-1.133.71.71,0,0,0,.272-.8l-.775-2.4a11.483,11.483,0,0,0,.916-.915l2.4.775a.709.709,0,0,0,.8-.272,14.2,14.2,0,0,0,1.133-1.977.71.71,0,0,0-.164-.831l-1.873-1.7a11.429,11.429,0,0,0,.332-1.244l2.474-.534a.711.711,0,0,0,.558-.637c.029-.378.056-.757.056-1.142s-.027-.764-.057-1.142a.709.709,0,0,0-.558-.638l-2.474-.534a11.228,11.228,0,0,0-.332-1.244l1.873-1.7a.71.71,0,0,0,.164-.831A14.267,14.267,0,0,0,27.88,28.14a.709.709,0,0,0-.8-.272l-2.4.775a11.374,11.374,0,0,0-.916-.916l.775-2.4a.71.71,0,0,0-.272-.8,14.2,14.2,0,0,0-1.977-1.133.708.708,0,0,0-.831.164l-1.7,1.873a11.428,11.428,0,0,0-1.244-.332l-.534-2.474a.711.711,0,0,0-.637-.558,14.429,14.429,0,0,0-2.284,0,.709.709,0,0,0-.638.558l-.534,2.474a11.215,11.215,0,0,0-1.244.332l-1.7-1.873a.709.709,0,0,0-.831-.164,14.2,14.2,0,0,0-1.977,1.133.71.71,0,0,0-.272.8l.775,2.4a11.375,11.375,0,0,0-.916.916l-2.4-.775a.708.708,0,0,0-.8.272,14.2,14.2,0,0,0-1.133,1.977.71.71,0,0,0,.164.831l1.873,1.7a11.429,11.429,0,0,0-.332,1.244l-2.474.534a.711.711,0,0,0-.558.637C2.027,35.439,2,35.817,2,36.2s.027.764.057,1.142ZM3.435,35.7l2.415-.522A.71.71,0,0,0,6.4,34.6a9.9,9.9,0,0,1,.51-1.91.709.709,0,0,0-.187-.777L4.9,30.257c.159-.3.325-.6.5-.873l2.34.754a.713.713,0,0,0,.767-.226,9.982,9.982,0,0,1,1.4-1.4.709.709,0,0,0,.226-.767L9.38,25.4q.414-.259.872-.5l1.653,1.825a.711.711,0,0,0,.778.187,9.849,9.849,0,0,1,1.91-.51.71.71,0,0,0,.58-.551l.521-2.415a9.351,9.351,0,0,1,1.007,0l.522,2.415a.71.71,0,0,0,.58.551,9.9,9.9,0,0,1,1.91.51.709.709,0,0,0,.777-.187l1.653-1.824c.3.159.6.325.872.5l-.754,2.34a.711.711,0,0,0,.226.767,9.982,9.982,0,0,1,1.4,1.4.707.707,0,0,0,.767.226L27,29.386q.259.414.5.872L25.672,31.91a.71.71,0,0,0-.187.778A9.849,9.849,0,0,1,26,34.6a.71.71,0,0,0,.551.58l2.415.521c.009.167.016.335.016.5s-.006.337-.015.5l-2.415.522a.71.71,0,0,0-.551.58,9.9,9.9,0,0,1-.51,1.91.709.709,0,0,0,.187.777L27.5,42.149c-.159.3-.325.6-.5.872l-2.34-.754a.707.707,0,0,0-.767.226,10.02,10.02,0,0,1-1.4,1.4.71.71,0,0,0-.226.767L23.017,47q-.414.259-.872.5l-1.653-1.825a.712.712,0,0,0-.778-.187A9.849,9.849,0,0,1,17.8,46a.71.71,0,0,0-.58.551L16.7,48.965a9.349,9.349,0,0,1-1.007,0l-.522-2.415a.71.71,0,0,0-.58-.551,9.9,9.9,0,0,1-1.91-.51.708.708,0,0,0-.777.187L10.254,47.5c-.3-.159-.6-.325-.872-.5l.754-2.34a.711.711,0,0,0-.226-.767,9.982,9.982,0,0,1-1.4-1.4.709.709,0,0,0-.767-.226L5.4,43.02q-.259-.414-.5-.872l1.825-1.653a.71.71,0,0,0,.187-.778,9.849,9.849,0,0,1-.51-1.91.71.71,0,0,0-.551-.58l-2.417-.52c-.009-.167-.015-.335-.015-.5S3.426,35.866,3.435,35.7Z" transform="translate(-2 -7.806)" fill="#0d1030"/>
        <path id="Trazado_897957" data-name="Trazado 897957" d="M47.484,12.106a.709.709,0,0,0,.492-.6,8.349,8.349,0,0,0,.062-.991,8.492,8.492,0,0,0-.062-.991.709.709,0,0,0-.492-.6l-1.969-.618q-.088-.242-.2-.474l.954-1.828a.712.712,0,0,0-.072-.769,8.6,8.6,0,0,0-1.4-1.4.712.712,0,0,0-.769-.073L42.2,4.719q-.232-.106-.474-.2l-.618-1.969a.709.709,0,0,0-.6-.492,7.853,7.853,0,0,0-1.983,0,.709.709,0,0,0-.6.492l-.618,1.969q-.242.088-.474.2l-1.828-.954a.713.713,0,0,0-.769.072,8.6,8.6,0,0,0-1.4,1.4.71.71,0,0,0-.073.769l.953,1.828q-.106.232-.2.474l-1.969.618a.709.709,0,0,0-.492.6,7.982,7.982,0,0,0,0,1.982.709.709,0,0,0,.492.6l1.969.618q.088.242.2.474l-.954,1.828a.712.712,0,0,0,.072.769,8.6,8.6,0,0,0,1.4,1.4.712.712,0,0,0,.769.073l1.828-.953q.232.106.474.2l.618,1.969a.709.709,0,0,0,.6.492,8.391,8.391,0,0,0,.992.062,8.493,8.493,0,0,0,.991-.062.709.709,0,0,0,.6-.492l.618-1.969q.242-.088.474-.2l1.828.954A.71.71,0,0,0,44.8,17.2a8.6,8.6,0,0,0,1.4-1.4.71.71,0,0,0,.073-.769L45.319,13.2q.108-.232.2-.474Zm-2.74-.628a.712.712,0,0,0-.467.474,5,5,0,0,1-.379.919.708.708,0,0,0,0,.664l.9,1.727a7.245,7.245,0,0,1-.532.532l-1.727-.9a.71.71,0,0,0-.664,0,5,5,0,0,1-.919.379.712.712,0,0,0-.474.467l-.585,1.863a5.981,5.981,0,0,1-.748,0l-.585-1.863a.712.712,0,0,0-.474-.467,4.933,4.933,0,0,1-.918-.379.709.709,0,0,0-.665,0l-1.727.9a7.245,7.245,0,0,1-.532-.532l.9-1.727a.71.71,0,0,0,0-.664,5,5,0,0,1-.379-.919.712.712,0,0,0-.467-.474l-1.863-.585c-.009-.13-.012-.254-.012-.374s0-.244.012-.374l1.863-.585a.712.712,0,0,0,.467-.474,4.933,4.933,0,0,1,.379-.918.709.709,0,0,0,0-.665l-.9-1.727a7.245,7.245,0,0,1,.532-.532l1.727.9a.712.712,0,0,0,.664,0,5,5,0,0,1,.919-.379.712.712,0,0,0,.474-.467l.585-1.863a5.981,5.981,0,0,1,.748,0l.585,1.863a.712.712,0,0,0,.474.467,4.933,4.933,0,0,1,.918.379.709.709,0,0,0,.665,0l1.727-.9a7.245,7.245,0,0,1,.532.532l-.9,1.727a.71.71,0,0,0,0,.664,5,5,0,0,1,.379.919.712.712,0,0,0,.467.474l1.863.585c.009.13.012.254.012.374s0,.244-.012.374Z" transform="translate(-10.412 -2.001)" fill="#0d1030"/>
        <path id="Trazado_897958" data-name="Trazado 897958" d="M55.675,32.654l-1.22-.433a5.753,5.753,0,0,0-.239-.58l.554-1.168a.707.707,0,0,0-.082-.741,7.145,7.145,0,0,0-1.22-1.221.71.71,0,0,0-.742-.082l-1.169.554a5.67,5.67,0,0,0-.579-.239l-.434-1.22a.712.712,0,0,0-.584-.467,6.542,6.542,0,0,0-1.723,0,.709.709,0,0,0-.584.467l-.433,1.22a5.754,5.754,0,0,0-.58.239l-1.168-.554a.71.71,0,0,0-.741.082,7.145,7.145,0,0,0-1.221,1.22.711.711,0,0,0-.082.742l.554,1.169a5.67,5.67,0,0,0-.239.579l-1.22.434a.712.712,0,0,0-.467.584A6.956,6.956,0,0,0,42,34.1a7.116,7.116,0,0,0,.057.861.709.709,0,0,0,.467.584l1.22.433a5.754,5.754,0,0,0,.239.58l-.554,1.168a.707.707,0,0,0,.082.741,7.145,7.145,0,0,0,1.22,1.221.711.711,0,0,0,.742.082l1.169-.554a5.67,5.67,0,0,0,.579.239l.434,1.22a.712.712,0,0,0,.584.467,6.857,6.857,0,0,0,.861.058,7.116,7.116,0,0,0,.861-.057.709.709,0,0,0,.584-.467l.433-1.22a5.753,5.753,0,0,0,.58-.239l1.168.554a.705.705,0,0,0,.741-.082,7.145,7.145,0,0,0,1.221-1.22.711.711,0,0,0,.082-.742l-.554-1.169a5.67,5.67,0,0,0,.239-.579l1.22-.434a.712.712,0,0,0,.467-.584A6.857,6.857,0,0,0,56.2,34.1a7.116,7.116,0,0,0-.057-.861.71.71,0,0,0-.467-.584Zm-.9,1.7-1.125.4a.71.71,0,0,0-.447.479,4.224,4.224,0,0,1-.394.956.712.712,0,0,0-.023.654l.51,1.074q-.177.194-.37.37l-1.074-.51a.712.712,0,0,0-.654.023,4.227,4.227,0,0,1-.956.394.712.712,0,0,0-.48.447l-.4,1.125a4.852,4.852,0,0,1-.518,0l-.4-1.125a.71.71,0,0,0-.479-.447,4.224,4.224,0,0,1-.956-.394.716.716,0,0,0-.654-.023l-1.074.51q-.194-.177-.37-.37l.51-1.074a.709.709,0,0,0-.023-.654A4.227,4.227,0,0,1,45,35.238a.712.712,0,0,0-.447-.48l-1.125-.4c-.006-.086-.009-.172-.009-.259s0-.174.007-.259l1.125-.4A.707.707,0,0,0,45,32.961,4.246,4.246,0,0,1,45.393,32a.712.712,0,0,0,.023-.654l-.51-1.074q.177-.194.37-.37l1.074.51A.707.707,0,0,0,47,30.393,4.227,4.227,0,0,1,47.96,30a.712.712,0,0,0,.48-.447l.4-1.125a4.854,4.854,0,0,1,.518,0l.4,1.125a.71.71,0,0,0,.479.447,4.224,4.224,0,0,1,.956.394.707.707,0,0,0,.654.023l1.074-.51q.194.177.37.37l-.51,1.074A.709.709,0,0,0,52.8,32a4.227,4.227,0,0,1,.394.956.712.712,0,0,0,.447.48l1.125.4c.006.087.009.173.009.26s0,.173-.007.259Z" transform="translate(-13.603 -9.252)" fill="#0d1030"/>
        <path id="Trazado_897959" data-name="Trazado 897959" d="M18.809,46.618A7.809,7.809,0,1,0,11,38.809,7.818,7.818,0,0,0,18.809,46.618Zm0-14.2a6.389,6.389,0,1,1-6.389,6.389A6.4,6.4,0,0,1,18.809,32.42Z" transform="translate(-4.611 -10.413)" fill="#0d1030"/>
        <path id="Trazado_897960" data-name="Trazado 897960" d="M2.022,21.859l1.09.909A17,17,0,0,1,16.2,16.635c.361,0,.722.021,1.083.043l-.875.875,1,1,2.13-2.13a.709.709,0,0,0,0-1l-2.13-2.13-1,1,.965.965c-.39-.025-.782-.047-1.173-.047A18.421,18.421,0,0,0,2.022,21.859Z" transform="translate(-2.006 -5.276)" fill="#0d1030"/>
        <path id="Trazado_897961" data-name="Trazado 897961" d="M41.55,9a3.55,3.55,0,1,0,3.55,3.55A3.554,3.554,0,0,0,41.55,9Zm0,5.679a2.13,2.13,0,1,1,2.13-2.13A2.132,2.132,0,0,1,41.55,14.679Z" transform="translate(-12.443 -4.031)" fill="#0d1030"/>
        <path id="Trazado_897962" data-name="Trazado 897962" d="M50.84,33a2.84,2.84,0,1,0,2.84,2.84A2.843,2.843,0,0,0,50.84,33Zm0,4.26a1.42,1.42,0,1,1,1.42-1.42A1.421,1.421,0,0,1,50.84,37.26Z" transform="translate(-15.343 -10.993)" fill="#0d1030"/>
        <path id="Trazado_897963" data-name="Trazado 897963" d="M59.114,4.724l-3.55-.71a.708.708,0,0,0-.836.557l-.71,3.55,1.392.279.383-1.911A10.652,10.652,0,0,1,56.845,11.1a10.535,10.535,0,0,1-2.336,6.656l1.108.888a12.078,12.078,0,0,0,1.4-12.89l1.817.363Z" transform="translate(-17.089 -2.58)" fill="#0d1030"/>
      </g>
    </g>
  </g>
</svg>
