<svg xmlns="http://www.w3.org/2000/svg" xmlns:xlink="http://www.w3.org/1999/xlink" width="87.73" height="87.731" viewBox="0 0 87.73 87.731">
  <defs>
    <filter id="Trazado_874925" x="0" y="0" width="87.73" height="87.731" filterUnits="userSpaceOnUse">
      <feOffset dy="3" input="SourceAlpha"/>
      <feGaussianBlur stdDeviation="3" result="blur"/>
      <feFlood flood-opacity="0.161"/>
      <feComposite operator="in" in2="blur"/>
      <feComposite in="SourceGraphic"/>
    </filter>
  </defs>
  <g id="Grupo_1108207" data-name="Grupo 1108207" transform="translate(-1066.051 -3587.981)">
    <g transform="matrix(1, 0, 0, 1, 1066.05, 3587.98)" filter="url(#Trazado_874925)">
      <g id="Trazado_874925-2" data-name="Trazado 874925" transform="translate(9 6)" fill="#f3d913" opacity="0.859">
        <path d="M 34.86513519287109 68.23066711425781 C 30.36020469665527 68.23066711425781 25.99083518981934 67.34870147705078 21.87838554382324 65.60928344726562 C 17.90546607971191 63.92888259887695 14.33710479736328 61.52292251586914 11.27242565155029 58.45824432373047 C 8.207745552062988 55.39356231689453 5.801784992218018 51.82521438598633 4.121385097503662 47.852294921875 C 2.381965160369873 43.73983383178711 1.50000524520874 39.37046432495117 1.50000524520874 34.86553192138672 C 1.50000524520874 30.36020278930664 2.381965160369873 25.9908332824707 4.121385097503662 21.87838363647461 C 5.801784992218018 17.90546417236328 8.207745552062988 14.33710384368896 11.27242565155029 11.27242374420166 C 14.33710479736328 8.207743644714355 17.90546607971191 5.801783561706543 21.87838554382324 4.121383666992188 C 25.99083518981934 2.381963491439819 30.36020469665527 1.500003576278687 34.86513519287109 1.500003576278687 C 39.37006378173828 1.500003576278687 43.73943328857422 2.381963491439819 47.85189437866211 4.121383666992188 C 51.82480621337891 5.801783561706543 55.39316558837891 8.207743644714355 58.45785522460938 11.27242374420166 C 61.52253341674805 14.33710384368896 63.92848587036133 17.90546417236328 65.60889434814453 21.87838363647461 C 67.34831237792969 25.9908332824707 68.23027801513672 30.36021423339844 68.23027801513672 34.86513519287109 C 68.23027801513672 39.37046432495117 67.34831237792969 43.73983383178711 65.60889434814453 47.852294921875 C 63.92848587036133 51.82521438598633 61.52253341674805 55.39356231689453 58.45785522460938 58.45824432373047 C 55.39316558837891 61.52292251586914 51.82480621337891 63.92888259887695 47.85189437866211 65.60928344726562 C 43.73943328857422 67.34870147705078 39.37006378173828 68.23066711425781 34.86513519287109 68.23066711425781 Z" stroke="none"/>
        <path d="M 34.86513519287109 3.000007629394531 C 30.56205368041992 3.000007629394531 26.38926315307617 3.84210205078125 22.46271133422852 5.502883911132812 C 18.66858291625977 7.107673645019531 15.2604866027832 9.405673980712891 12.33307647705078 12.33308792114258 C 9.405677795410156 15.2604866027832 7.107666015625 18.6685905456543 5.502891540527344 22.46271133422852 C 3.842086791992188 26.38926315307617 2.999992370605469 30.56204986572266 2.999992370605469 34.86553192138672 C 2.999992370605469 39.16861724853516 3.842086791992188 43.34140396118164 5.502891540527344 47.26795959472656 C 7.107666015625 51.06207275390625 9.405677795410156 54.47018051147461 12.33307647705078 57.39757919311523 C 15.2604866027832 60.32499313354492 18.66858291625977 62.62299346923828 22.46271133422852 64.227783203125 C 26.38926315307617 65.88856506347656 30.56205368041992 66.73065948486328 34.86513519287109 66.73065948486328 C 39.16821670532227 66.73065948486328 43.34100341796875 65.88856506347656 47.26755905151367 64.227783203125 C 51.06167602539062 62.62300491333008 54.46977996826172 60.32499313354492 57.39718246459961 57.39757919311523 C 60.32459259033203 54.47018051147461 62.62260437011719 51.06207275390625 64.22737884521484 47.26795959472656 C 65.88816833496094 43.34140396118164 66.73026275634766 39.16861724853516 66.73026275634766 34.86513519287109 C 66.73026275634766 30.56204986572266 65.88816833496094 26.38926315307617 64.22737884521484 22.46271133422852 C 62.62260437011719 18.6685905456543 60.32459259033203 15.2604866027832 57.39718246459961 12.33308792114258 C 54.46977996826172 9.405673980712891 51.06167602539062 7.107662200927734 47.26755905151367 5.502883911132812 C 43.34100341796875 3.84210205078125 39.16821670532227 3.000007629394531 34.86513519287109 3.000007629394531 M 34.86513519287109 7.62939453125e-06 C 54.1206169128418 7.62939453125e-06 69.73026275634766 15.60964965820312 69.73026275634766 34.86513519287109 L 69.73026275634766 34.86553192138672 C 69.73026275634766 54.12101745605469 54.1206169128418 69.73065948486328 34.86513519287109 69.73065948486328 C 15.60965347290039 69.73065948486328 -7.62939453125e-06 54.12101745605469 -7.62939453125e-06 34.86553192138672 L -7.62939453125e-06 34.86513519287109 C -7.62939453125e-06 15.60964965820312 15.60965347290039 7.62939453125e-06 34.86513519287109 7.62939453125e-06 Z" stroke="none" fill="#fff"/>
      </g>
    </g>
    <g id="Grupo_1108205" data-name="Grupo 1108205">
      <g id="Trazado_874923" data-name="Trazado 874923" transform="translate(1075.051 3594)" fill="none">
        <path d="M34.865,0A34.865,34.865,0,0,1,69.73,34.865h0a34.865,34.865,0,0,1-69.73,0H0A34.865,34.865,0,0,1,34.865,0Z" stroke="none"/>
        <path d="M 34.86513519287109 3.000007629394531 C 30.56205368041992 3.000007629394531 26.38926315307617 3.84210205078125 22.46271133422852 5.502883911132812 C 18.66858291625977 7.107673645019531 15.2604866027832 9.405673980712891 12.33307647705078 12.33308792114258 C 9.405677795410156 15.2604866027832 7.107666015625 18.6685905456543 5.502891540527344 22.46271133422852 C 3.842086791992188 26.38926315307617 2.999992370605469 30.56204986572266 2.999992370605469 34.86553192138672 C 2.999992370605469 39.16861724853516 3.842086791992188 43.34140396118164 5.502891540527344 47.26795959472656 C 7.107666015625 51.06207275390625 9.405677795410156 54.47018051147461 12.33307647705078 57.39757919311523 C 15.2604866027832 60.32499313354492 18.66858291625977 62.62299346923828 22.46271133422852 64.227783203125 C 26.38926315307617 65.88856506347656 30.56205368041992 66.73065948486328 34.86513519287109 66.73065948486328 C 39.16821670532227 66.73065948486328 43.34100341796875 65.88856506347656 47.26755905151367 64.227783203125 C 51.06167602539062 62.62300491333008 54.46977996826172 60.32499313354492 57.39718246459961 57.39757919311523 C 60.32459259033203 54.47018051147461 62.62260437011719 51.06207275390625 64.22737884521484 47.26795959472656 C 65.88816833496094 43.34140396118164 66.73026275634766 39.16861724853516 66.73026275634766 34.86513519287109 C 66.73026275634766 30.56204986572266 65.88816833496094 26.38926315307617 64.22737884521484 22.46271133422852 C 62.62260437011719 18.6685905456543 60.32459259033203 15.2604866027832 57.39718246459961 12.33308792114258 C 54.46977996826172 9.405673980712891 51.06167602539062 7.107662200927734 47.26755905151367 5.502883911132812 C 43.34100341796875 3.84210205078125 39.16821670532227 3.000007629394531 34.86513519287109 3.000007629394531 M 34.86513519287109 7.62939453125e-06 C 54.1206169128418 7.62939453125e-06 69.73026275634766 15.60964965820312 69.73026275634766 34.86513519287109 L 69.73026275634766 34.86553192138672 C 69.73026275634766 54.12101745605469 54.1206169128418 69.73065948486328 34.86513519287109 69.73065948486328 C 15.60965347290039 69.73065948486328 -7.62939453125e-06 54.12101745605469 -7.62939453125e-06 34.86553192138672 L -7.62939453125e-06 34.86513519287109 C -7.62939453125e-06 15.60964965820312 15.60965347290039 7.62939453125e-06 34.86513519287109 7.62939453125e-06 Z" stroke="none" fill="#fff"/>
      </g>
      <g id="ingenieria_1_" data-name="ingenieria (1)" transform="translate(1084.494 3603.443)">
        <path id="Trazado_897964" data-name="Trazado 897964" d="M32.429,61.933V57.152H29.055a9.9,9.9,0,0,0-1.146-2.77L30.294,52l-3.38-3.38L24.528,51a9.909,9.909,0,0,0-2.768-1.146V46.481H16.977v3.376A9.909,9.909,0,0,0,14.207,51l-2.385-2.385L8.442,52l2.385,2.385a9.9,9.9,0,0,0-1.146,2.77H6.306v4.779H9.68a9.909,9.909,0,0,0,1.146,2.77L8.441,67.088l3.38,3.38,2.385-2.385a9.909,9.909,0,0,0,2.77,1.146V72.6h4.783V69.23a9.909,9.909,0,0,0,2.77-1.146l2.385,2.385,3.38-3.38L27.907,64.7a9.909,9.909,0,0,0,1.146-2.77Zm-13.061-.4a1.988,1.988,0,1,1,1.988-1.988,1.988,1.988,0,0,1-1.988,1.988Z" transform="translate(-1.142 -27.363)" fill="#fe8a71"/>
        <path id="Trazado_897965" data-name="Trazado 897965" d="M34.351,69.438a5.088,5.088,0,1,0,5.088,5.088,5.088,5.088,0,0,0-5.088-5.088Zm0,7.076a1.988,1.988,0,1,1,1.988-1.988,1.988,1.988,0,0,1-1.988,1.988Z" transform="translate(-16.125 -42.347)" fill="#f6cd61"/>
        <path id="Trazado_897966" data-name="Trazado 897966" d="M87.548,17.054V13.728H85.2a6.9,6.9,0,0,0-.8-1.927l1.659-1.659L83.71,7.791,82.051,9.45a6.9,6.9,0,0,0-1.927-.8V6.306H76.8V8.653a6.9,6.9,0,0,0-1.927.8L73.214,7.793l-2.351,2.351L72.522,11.8a6.9,6.9,0,0,0-.8,1.927H69.378v3.325h2.346a6.9,6.9,0,0,0,.8,1.927l-1.659,1.659,2.351,2.351,1.657-1.66a6.9,6.9,0,0,0,1.927.8v2.346h3.326V22.13a6.9,6.9,0,0,0,1.927-.8l1.659,1.659,2.351-2.351L84.4,18.981a6.9,6.9,0,0,0,.8-1.927ZM78.463,16.7a1.309,1.309,0,1,1,1.309-1.309A1.309,1.309,0,0,1,78.463,16.7Z" transform="translate(-42.308 -1.142)" fill="#f6cd61"/>
        <path id="Trazado_897967" data-name="Trazado 897967" d="M88.884,22.275a3.539,3.539,0,1,0,3.539,3.539,3.539,3.539,0,0,0-3.539-3.539Zm0,4.848a1.309,1.309,0,1,1,1.309-1.309,1.309,1.309,0,0,1-1.309,1.309Z" transform="translate(-52.729 -11.564)" fill="#fe8a71"/>
        <g id="Grupo_1108204" data-name="Grupo 1108204" transform="translate(4.557 4.557)">
          <path id="Trazado_897968" data-name="Trazado 897968" d="M33.361,93.243a4.511,4.511,0,0,1-.841-.7.609.609,0,1,0-.888.834,5.715,5.715,0,0,0,1.069.893.608.608,0,1,0,.66-1.021Z" transform="translate(-22.121 -61.856)" fill="#2b1e0c"/>
          <path id="Trazado_897969" data-name="Trazado 897969" d="M41.629,79.209a2.6,2.6,0,1,0-2.6,2.6A2.6,2.6,0,0,0,41.629,79.209Zm-3.976,0a1.381,1.381,0,1,1,1.38,1.38,1.381,1.381,0,0,1-1.38-1.38Z" transform="translate(-25.365 -51.586)" fill="#2b1e0c"/>
          <path id="Trazado_897970" data-name="Trazado 897970" d="M45.24,14.531a.608.608,0,0,0-.608.608V15.3H42.894a.608.608,0,0,0-.59.463,6.286,6.286,0,0,1-.727,1.757.608.608,0,0,0,.09.744L42.9,19.5,41.4,20.991l-1.229-1.229a.607.607,0,0,0-.744-.09,6.284,6.284,0,0,1-1.759.727.608.608,0,0,0-.463.59v1.739H35.1V21.69l4.012-4.535c.006-.006.009-.014.014-.02a4.142,4.142,0,1,0-5.858-5.858c-.006.006-.014.009-.02.015L28.715,15.3H27.678V13.195h1.739a.608.608,0,0,0,.59-.463,6.282,6.282,0,0,1,.728-1.757.608.608,0,0,0-.09-.744L29.415,9l1.493-1.493L32.136,8.74a.607.607,0,0,0,.744.09A6.286,6.286,0,0,1,34.638,8.1a.608.608,0,0,0,.463-.59V5.773h2.11V7.511a.608.608,0,0,0,.463.59,6.284,6.284,0,0,1,1.758.727.606.606,0,0,0,.744-.09L41.4,7.51,42.9,9l-1.23,1.227a.608.608,0,0,0-.09.744,6.282,6.282,0,0,1,.727,1.757.608.608,0,0,0,.59.463H45.24a.608.608,0,1,0,0-1.216H43.354a7.528,7.528,0,0,0-.5-1.216L44.184,9.43a.607.607,0,0,0,0-.86L41.833,6.22a.607.607,0,0,0-.86,0L39.64,7.553a7.471,7.471,0,0,0-1.216-.5V5.165a.607.607,0,0,0-.608-.608H34.493a.607.607,0,0,0-.607.608V7.05a7.528,7.528,0,0,0-1.216.5L31.336,6.22a.607.607,0,0,0-.859,0L28.126,8.571a.607.607,0,0,0,0,.86l1.333,1.333a7.5,7.5,0,0,0-.5,1.216H27.07a.607.607,0,0,0-.608.608v3.326a.607.607,0,0,0,.608.606h.271l-6.117,5.414V19.118a.608.608,0,0,0-.608-.608H15.835a.608.608,0,0,0-.608.608v2.908a10.54,10.54,0,0,0-2.062.854L11.11,20.824a.607.607,0,0,0-.86,0L6.87,24.2a.607.607,0,0,0,0,.86l2.056,2.056a10.509,10.509,0,0,0-.853,2.062H5.165a.607.607,0,0,0-.608.608V34.57a.607.607,0,0,0,.608.608H8.073a10.518,10.518,0,0,0,.853,2.062L6.87,39.295a.607.607,0,0,0,0,.86l3.38,3.38a.625.625,0,0,0,.86,0l2.056-2.056a10.517,10.517,0,0,0,2.062.853V45.24a.607.607,0,0,0,.608.608h4.783a.607.607,0,0,0,.608-.608V42.332a10.509,10.509,0,0,0,2.062-.853l2.056,2.056a.607.607,0,0,0,.86,0l3.38-3.38a.607.607,0,0,0,0-.86l-2.056-2.056a10.54,10.54,0,0,0,.854-2.062h2.908a.608.608,0,0,0,.608-.608V29.789a.608.608,0,0,0-.608-.608H28.472l5.414-6.117v.271a.607.607,0,0,0,.608.608h3.325a.607.607,0,0,0,.608-.608V21.449a7.439,7.439,0,0,0,1.216-.5l1.333,1.333a.607.607,0,0,0,.86,0l2.351-2.351a.607.607,0,0,0,0-.859l-1.334-1.333a7.528,7.528,0,0,0,.5-1.216H45.24a.607.607,0,0,0,.608-.608v-.773a.608.608,0,0,0-.608-.608ZM21.426,23.378a9.314,9.314,0,0,1,1.646.78.607.607,0,0,0,.745-.09l1.955-1.956,2.522,2.522-1.955,1.955a.608.608,0,0,0-.09.745,9.315,9.315,0,0,1,.78,1.646L23.9,32.508c.006-.109.017-.217.017-.328a5.7,5.7,0,0,0-5.7-5.7c-.111,0-.219.01-.328.017Zm6.1,3.741,2.056-2.056a.607.607,0,0,0,0-.86l-3.38-3.38a.625.625,0,0,0-.86,0L23.286,22.88c-.273-.149-.553-.282-.838-.406l6.562-5.806a7.526,7.526,0,0,0,.449,1.068l-1.333,1.333a.607.607,0,0,0,0,.859l2.351,2.351a.607.607,0,0,0,.859,0l1.333-1.333a7.525,7.525,0,0,0,1.068.449l-5.806,6.562c-.124-.285-.257-.565-.406-.838ZM32.88,19.67a.608.608,0,0,0-.744.09L30.907,20.99,29.413,19.5l1.229-1.229a.608.608,0,0,0,.09-.744,6.286,6.286,0,0,1-.723-1.744L32.019,14c0,.082-.013.164-.013.247A4.151,4.151,0,0,0,36.155,18.4c.083,0,.165-.008.247-.013l-1.779,2.01a6.286,6.286,0,0,1-1.744-.722Zm6.207-5.421a2.931,2.931,0,1,1-2.932-2.932,2.931,2.931,0,0,1,2.932,2.932ZM27.914,30.4h2.766v3.565H27.914a.608.608,0,0,0-.59.463,9.31,9.31,0,0,1-1.077,2.6.608.608,0,0,0,.09.745l1.955,1.955-2.521,2.521L23.816,40.29a.607.607,0,0,0-.745-.09,9.311,9.311,0,0,1-2.6,1.077.608.608,0,0,0-.463.59v2.766H16.443V41.867a.608.608,0,0,0-.463-.59,9.31,9.31,0,0,1-2.6-1.077.608.608,0,0,0-.745.09L10.68,42.245,8.159,39.724l1.955-1.955a.608.608,0,0,0,.09-.745,9.31,9.31,0,0,1-1.077-2.6.608.608,0,0,0-.59-.463H5.773V30.4H8.538a.608.608,0,0,0,.59-.463,9.311,9.311,0,0,1,1.077-2.6.608.608,0,0,0-.09-.745L8.16,24.634l2.52-2.522,1.955,1.955a.607.607,0,0,0,.745.09,9.31,9.31,0,0,1,2.6-1.077.608.608,0,0,0,.463-.59V19.726h3.565v2.766a.605.605,0,0,0,.145.389l-5.517,4.882c-.072.059-.139.122-.208.184l-.2.18a.608.608,0,0,0-.087.1,5.69,5.69,0,0,0-1.448,5.3.608.608,0,0,0,1.181-.286,4.476,4.476,0,0,1,1.252-4.286l.3-.265a4.475,4.475,0,0,1,6.293,6.294l-.265.3a4.464,4.464,0,0,1-3.225,1.377.608.608,0,0,0,0,1.216,5.674,5.674,0,0,0,3.956-1.606.6.6,0,0,0,.1-.089l.18-.2c.062-.069.125-.136.184-.208l4.881-5.517A.605.605,0,0,0,27.914,30.4Z" transform="translate(-4.557 -4.557)" fill="#2b1e0c"/>
          <path id="Trazado_897971" data-name="Trazado 897971" d="M91.933,30.779a1.917,1.917,0,1,0-1.916-1.917A1.917,1.917,0,0,0,91.933,30.779Zm0-2.618a.7.7,0,1,1-.7.7A.7.7,0,0,1,91.933,28.161Z" transform="translate(-60.335 -19.169)" fill="#2b1e0c"/>
        </g>
      </g>
    </g>
  </g>
</svg>
